<mxfile host="app.diagrams.net" modified="2022-01-23T20:16:13.525Z" agent="5.0 (Macintosh; Intel Mac OS X 10_15_7) AppleWebKit/605.1.15 (KHTML, like Gecko) Version/15.2 Safari/605.1.15" etag="NLYT1fM4aDtcyrir8uNw" version="16.4.3" type="github">
  <diagram id="V1GegNfxR0hlIaBJrGfv" name="Page-1">
    <mxGraphModel dx="541" dy="354" grid="0" gridSize="10" guides="1" tooltips="1" connect="0" arrows="0" fold="1" page="1" pageScale="1" pageWidth="1169" pageHeight="827" math="0" shadow="0">
      <root>
        <mxCell id="0" />
        <mxCell id="1" parent="0" />
        <mxCell id="UZAGVTF5EnCvgB7L0BSY-2" value="" style="rounded=0;whiteSpace=wrap;html=1;rotation=15;" vertex="1" parent="1">
          <mxGeometry x="341.48" y="147.17" width="213" height="109" as="geometry" />
        </mxCell>
        <mxCell id="UZAGVTF5EnCvgB7L0BSY-4" value="" style="shape=image;verticalLabelPosition=bottom;labelBackgroundColor=default;verticalAlign=top;aspect=fixed;imageAspect=0;image=data:image/png,iVBORw0KGgoAAAANSUhEUgAAAFQAAABUCAYAAAAcaxDBAAAYhWlDQ1BJQ0MgUHJvZmlsZQAAWIWVeQk4Vl3X/z7nPvfIbZ5nmck8k3me5zGV2zzTbYoiIYkKGVJI4RENNAoJUSnJlFIqKTKUSoMp5DuGep73ef/X/7u+fV37nN9Ze+211l57WGedAwD3K0pERAjMAEBoWBTV3kRfwNXNXQA/DiCAAAJgA2IU78gIPVtbS4CW3/f/LHPPUG60PJFek/Xf7f/fwuTjG+kNAOSBYi+fSO9QFLcCgBR7R1CjAMCt0YVioyLWcBKKWaiogSjOW8P+G7hqDXtt4KZ1Hkd7AxT3AkCgpVCo/gDQvULpAjHe/qgcumW0jSnMJzAMAFZ05Dht7wCKDwDctijP1tDQ8DW8D8XiKH8EiitQrOb1D5n+/yHf6498CsX/D94Y13ohGAZGRoRQ4v6PrvnfS2hI9G8domilDaCa2q+NH/Xh8+BwizVMi+LpMC9rmzVfo3gh0GfD7wDApIBoU6cNfpjHO9IA9R864wCW86EYWqCYB8XGYSHWlpt0L79AYzMUoz6D9wRGmTmimAPF6b6RRg6bPGeo4fabuuA6P6qB3ib9AYW6rndN13B0sJPepvxvAb5mm/IxdPEBji4oJqFYOCbQ2RrFdCiWiQx2sNjk2RYfYGD9m4cabb9mvzCK7X3DTPQ35GNi/KjG9pv8GaGRv8eLORMQaGa9ia9GBTiabvgHc9ebsm4/OhZMr2+YntNvOb6Rrpa/x+Lja2i0MXbMpG+Yk8OmnIWIKH37jb4IKSLEdpMf2eIbYrJG34JipcgYh82+iHMUujg35CN+EVG2jht2IvFBFHPbDXuQbGAJDIAhEADRaPUC4SAIBHZP35xGnzZajAEFUIE/8AXSm5TfPVzWW8LQqwOIB59Q5Asi//TTX2/1BTEofeUPdeMqDfzWW2PWewSDcRSHAgsQgj5Hr/cK+6PNGYyhlMD/0k5Bqzdqbwha19r/3/Tf1L8peijFcpMS/VujAP1vTpwRzhBnijPGSSBciDaiiViiV120KiBqiPrvcfzNjx3H9mHfYZ9iR7AvdgUmU/9lpRUYQeUbb/rC65++QERRmcqIPqKFSkclI2wIF5BGlFA9eogOqlkZpRps2r3mFYF/yf6PEfxjNjb5iHJEmMhO1CWK/7snnSSd8h8pa77+p382bPX642+DPy3/1m/wD+/7oHeLf3Ni0jHXMB2YO5iHmCbMTSCAacHUY7owt9fwn9U1tr66fmuzX7cnGJUT+F/6KJs61zwZKXdBbkpueaMtyndP1NrGMwiPiKMG+gdECeih0cFXwCzMW2argIKcggIAa7Fm4/j6br8eQyC2nr9pFDSWqKFcJP2/aeHomVGTj26Zk3/TRNE9zakOwFV772hqzAYNWbtg0VOCHt1pnIAPCAFxdDwKQAVoAl1gBMyBDXAEbmAn6uUAdJ1TQSzYBw6ANJAJskE+OAVKQTmoApfAVXATNIE74D54BHrBU/ASXT3vwUcwA+bAEgRBeIgMMUOcED8kAklBCpAapA0ZQZaQPeQGeUL+UBgUDe2DUqBM6Dh0CjoLVUNXoAboDvQQ6oNeQG+hKegb9BPGwLQwC8wLi8KysBqsB1vAjvAO2B/eDcfDqfAxuBAugy/CdfAd+BH8FB6BP8KzGIChwbBhBDHSGDWMAcYG447xw1AxiZgMTAGmDFODaUTn+QlmBDONWURwCDMigEijK9gUcUK8kd1IInIEOYVUIXXIXeQJ8haZQX5hyVgerBRWA2uGdcX6Y2OxadgCbCX2BvYeupfeY+dwOBwbTgyniu5FN1wQbi/uCK4EV4trxfXhRnGzeDyeEy+F18Lb4Cn4KHwa/iT+Ir4F349/j18g0BD4CQoEY4I7IYyQTCggnCc0E/oJE4QlIgNRhKhBtCH6EOOIWcQKYiOxh/ieuERiJImRtEiOpCDSAVIhqYZ0j/SK9J2GhmYLjTqNHU0gTRJNIc1lmgc0b2kWaZloJWkNaD1oo2mP0Z6jbaV9QfudTCaLknXJ7uQo8jFyNbmdPExeoGOmk6Ezo/Oh209XRFdH10/3mZ5IL0KvR7+TPp6+gP4afQ/9NAORQZTBgIHCkMhQxNDAMMgwy8jMKM9owxjKeITxPONDxkkmPJMokxGTD1MqUzlTO9MoM4ZZiNmA2Zs5hbmC+R7zexYcixiLGUsQSybLJZZulhlWJlYlVmfWPaxFrLdZR9gwbKJsZmwhbFlsV9mesf1k52XXY/dlP8xew97PPs/BzaHL4cuRwVHL8ZTjJ6cApxFnMGcO503O11wIlySXHVcs12mue1zT3Czcmtze3BncV7mHeGAeSR57nr085TxdPLO8fLwmvBG8J3nbeaf52Ph0+YL48via+ab4mfm1+QP58/hb+D8IsAroCYQIFArcFZgR5BE0FYwWPCvYLbi0RWyL05bkLbVbXguRhNSE/ITyhNqEZoT5ha2E9wlfEB4SIYqoiQSInBDpEJkXFRN1ET0kelN0UoxDzEwsXuyC2CtxsriO+G7xMvEBCZyEmkSwRIlEryQsqSwZIFkk2SMFS6lIBUqVSPVtxW5V3xq2tWzroDSttJ50jPQF6bcybDKWMskyN2U+ywrLusvmyHbI/pJTlguRq5B7Kc8kby6fLN8o/01BUsFboUhhQJGsaKy4X7Fe8auSlJKv0mml58rMylbKh5TblFdUVFWoKjUqU6rCqp6qxaqDaixqtmpH1B6oY9X11ferN6kvaqhoRGlc1fiiKa0ZrHlec3Kb2DbfbRXbRrW2aFG0zmqNaAtoe2qf0R7REdSh6JTpvNMV0vXRrdSd0JPQC9K7qPdZX06fqn9Df95AwyDBoNUQY2himGHYbcRk5GR0ymjYeIuxv/EF4xkTZZO9Jq2mWFML0xzTQTNeM2+zarMZc1XzBPO7FrQWDhanLN5ZSlpSLRutYCtzq1yrV9Yi1mHWN22AjZlNrs1rWzHb3ba37HB2tnZFduP28vb77DscmB12OZx3mHPUd8xyfOkk7hTt1OZM7+zhXO0872LoctxlxFXWNcH1kRuXW6BbvTve3dm90n12u9H2/O3vPZQ90jye7RDbsWfHw51cO0N23t5Fv4uy65on1tPF87znMsWGUkaZ9TLzKvaa8TbwPuH90UfXJ89nylfL97jvhJ+W33G/SX8t/1z/qQCdgIKA6UCDwFOBX4NMg0qD5oNtgs8Fr4a4hNSGEkI9QxvCmMKCw+6G84XvCe+LkIpIixjZrbE7f/cM1YJaGQlF7oisj2JBX+q7osWjD0a/jdGOKYpZiHWOvbaHcU/Ynq44ybjDcRPxxvF/7UX2eu9t2ye478C+twl6CWcToUSvxLb9QvtT979PMkmqOkA6EHzgcbJc8vHkHykuKY2pvKlJqaMHTQ5eSKNLo6YNHtI8VJqOpAemdx9WPHzy8K8Mn4zOTLnMgszlI95HOo/KHy08unrM71h3lkrW6Wxcdlj2sxydnKrjjMfjj4/mWuXW5QnkZeT9yN+V/7BAqaD0BOlE9ImRQsvC+pPCJ7NPLp8KOPW0SL+otpin+HDxfIlPSf9p3dM1pbylmaU/zwSeeX7W5GxdmWhZQTmuPKZ8vMK5ouMvtb+qK7kqMytXzoWdG6myr7pbrVpdfZ7nfNYF+EL0hamLHhd7Lxleqq+Rrjlby1abeRlcjr784YrnlWdXLa62XVO7VnNd5HrxDeYbGXVQXVzdzM2AmyP1bvV9DeYNbY2ajTduydw61yTYVHSb9XZWM6k5tXm1Jb5ltjWidfqO/53Rtl1tL9td2wfu2t3tvmdx78F94/vtHXodLQ+0HjQ91HjY0KnWefORyqO6LuWuG4+VH9/oVumu61Htqe9V723s29bX3K/Tf+eJ4ZP7A2YDj55aP+175vTs+aDH4Mhzn+eTL0JefB2KGVp6mfQK+yrjNcPrgmGe4bI3Em9qR1RGbr81fNv1zuHdy1Hv0Y9jkWPL71PHyeMFE/wT1ZMKk01TxlO9H7Z/eP8x4uPSdNonxk/Fn8U/X/+i+6VrxnXm/Vfq19VvR75zfj/3Q+lH26zt7PBc6NzSfMYC50LVotpix0+XnxNLscv45cIViZXGXxa/Xq2Grq5GUKiU9VcBDFphPz8Avp0DgOwGADOat5G2b+SCmwWDvnzA6N0ZkoE+wncxKYgDVhcnhucicBD5SVo01rTB5Gy6BvppRmkmX+ZyllE2SfY4jhYuem4Xngre7/zbBFIFHwsxCtuLHBV9JA4kFCX9pE5s7ZSelxWXs5NPUrig+FQZVpFX3aGWoV6n8XYbWUtN21PnsO4VvVcGBEMVI2/jbJN602FzyELY0sQqyDrL5rrtc7sFBzZHRScb51CXo641bo/c326f8ZjfsbQLeJIonF7S3no+9r67/Hz9KQEOgduCBIKh4JGQltAzYSnhARG2u9WoApGEyC9Rz6KbY6pic/ckxoXEu+0126eVoJqosl89Se+ARbJLim9q1MGDaXmHKtKvHW7N6Mp8duTN0Yljn7K+Zc/mzB2fzZ3N+1mAnGAt3HrS5JR30f7iwpKa0y2lj84MnB0qGymfqvhRiTnHWiVZrX/e40LsxbxLV2v6ar9eYbyqeM3heuSN7Lrqm431dxraG1tv3Wq6cbu2ubqlvLXkTn5bRvu+u0H3HO6rdHB0LD4YedjTef9Re9edx03dtT2FvZF9Bv3k/idPigb8nio/wz4bHKx6HvNCdwg31IGuL+VXE69zhjWHR98cHdEc+fi29J39KGa0dsxpbPF93vjW8ZYJ+4mxyYNTslNjH6o+hk0rTs9+qv3s/YXxy40Z25nxr/u+sX+7/z3rR9gsZc4PXUdjP++tyKyurs+/EHQZDsIoYCaRK9gknCteiyBNFCOJ0WyhlSNr0NnRezMkMpYyNTNPsTKwqbFTONI5r3MN89DwKvJt508SOCvYsuWl0KwIjSi/mLK4mYSnZJxU7tYr0l0yk3KIvKDCNkV3pSjlTJUK1Qa1x+rvNH5sw2lxa8vrWOmG6GXpXzboNfxkTDDhNVUwMzJ3svC2DLPaY51ok2J70C7NPt0hw/GIU4Zzqkuca4Cbo7vhdh0P4x3uO2N35XteprR5dXrf87nhW+y3198lQC6QNnA6qDe4MaQ6tCgsKzw5grrbg6obyR+5FPU0+lJMWqzXHqM4uXjhvbz7OBNYExn24/bPJb070Jl8JSU/NfbgjjTzQ4bplocpGQcy/zpy/+jwsc9Zs9nzObPHv+fO5H3Kny74fGLhJMMp9aKw4sqS7tOjpVNn3p99U/aivK/iwV/NlU3nOqs+nRe8sONi8aUXtSyXra+ko6fX4g2ZOp+bRfX9jdhbSk27bh9srmxpam2+c74tuz3hbuy9pPtZHSUPyh+e7jz2KLrL4bF0N9I91HO1N7MvqN/uidGA0VO7Z16D0c9TXxwaSnjp98rgNdfr6eGGN4dGXN9KvyO8Gx9tHyt5v3tcd4J2YmCyfGr/h8CPPtMBn0I/R3yJmIn4Sv0W8z3uR+xs4JzJPP38tQWjhUeL7ouffvYu064Mrc+/FLgLWUDPYV8MDpOFSCE92HicLG4K/xchgChLXCR10pTSxpLt6RTo6ejnGF4wtjJVM+eyJLD6s9mza3FIcLJyLnNNcvfzNPPW8JXzFwkUCOZtyRJKE44RoYgaiQmILYh3SZRKRkqZbhWUhqWnZAZlH8g1yp9XKFRMUvJUVlfBqfSo5qu5qnOqv9Ao0fTZpqCF0xrWrtPJ0g3QM9QXNWAwBIbfjSaMn5ncMi0w8zUXMR+xKLS0scJbtVun2JjZcth+sGu2z3UIcNR0IjsNO19y2edq7sbq9sa9ans4Gv8Xd9zembTLwJPg2Ucp9gr23uZD6zPke85vt7+a/3JAS2BSkG4wCG4NORBqEIaE3Qs/GKEXsbD7AtUNjdnVUTZRP6ILY7bFDMcm7eHdczvOM54tfmjvhX0pCa6J4olz+9uTcg/4JxumSKZyHKRJA2k/Do2mPz5cm3Ekk3JE6Sj+6NCxy1kZ2cE5JseZjt/P3Z47nRefr1egfyL9JOFURtFYCedphVL1M+pnlctky8UrBP/irGQ8R6oiVtOjK0nrouelQzWXap9cXr4qfs39+vEbfTdZ6t0aihsHm7C3JZpNWrxa99853dbc/ubu6n3BDoMH/g+PdF559KxrpVuiZ3vvib7hJwoDR59+HnR43jAk+DL/tewburexY5mTcZ+sv80t2q3N/8Y3wbWCUwEgF80znY+idQqAnJtonnkLAHYSALZkABzVAXyoBsAmNQAKPvgnfmx8NaUHbIAfSAAlNNO0BO5o1rwHHEYzyougGfSDcbAMMUESkC6aH0ZCR9F88B40CkOwIKwP+8CH0CyvH/6JEcJYYeIxVZhBhIBoIKFIOfICy4S1QDOydhyE08Ul4drwWLw5Phv/nCBICCE0EPFEF2IV8SfJinSWNE9jTVNFi9B60baTRciHyZ/pHOma0EwnhwEw7GYYY3Rj7GEyZrrNrMZcx6LB0s5qzzrKFs2OYy/gEOWo57TmnORK55bnHuUp5fXik+Jb4L8vkC/os0VJCCf0UviaSJZoiJiFuJQEWWJG8qnUra2npRNlPGTV5VjkZuQfK5xXPKwUoGyuIqPKqrqq9kl9WKNfs3PbPa272h063bpDepP6c4bACIeecwRTghnRnNaCxVLQSsna2ibMNs+uyf69I9lJydnNJcH1jNtd9wkPmh1yO5137fOsoHR7LfgI+zr4HfRvCvgZZBB8MmQxzDu8f7cxtSlKKbo2VnrPlfhte3sTwvfzJD1Lzku1PDh3KO/w1ox7R3yPsWa9yXmc+zp/tVDglHqx5eldZ+LKzlQMnZOuPnNRrmbkytnrO2/SNNQ07WiRauO/Z/ygrIu2R7xvbiBnUPxF36vTb0686x/3nFr8xPTl4jfwQ25OfX51MeNn/dLA8q2V8l8Rq6rr5we0/s2BCXADUaAAdIAV8AChIBHkgArQAHrAe7ACsUGykDnkB6VAZdAd6B2MwGKwJUyFT8Ht8BcMD8YCsw9TixlDuBB7JBO5h4WwWti92FvYZZwOLgX3EM+Ad8P/hf9G0CPkEsaJmsRc4jTJGJ3zZRpXmutoJkylHSCrk8/Q0dDtoZugd6PvZjBmaGXUZmxhMmDqZHZgfo1mpj9Zs9gk2R6x7+Zg46jjtOMc54rjJnNX8OjyjPHm8Jnz0/G/FrgmeGxLoJC+MIfwR5HbotlifuL6EiKSTFKErVhpggydLJMcozxBflFhUnFQqVP5jsod1U61l+rfNOm2yWnZaQfqROlS9QL0XQ1MDNWNlIzVTExMd5klmp+16LCcsea2MbINRmNansMJx3ynPOczLi2uX92Vtyd5PN7JtyvKs8dLyNvPJ9/3hl+3/1jAUhBbsGKIY2hM2Knw1ogPVPZI46iY6HMxQ3sY4qzis/Y+TxBNTNg/esA/hSG1My0qHXf4UCZyJP0Yd1Z7TnKua77BCc2TmkWaJeqlEmeRsvsVMZXc525Xe11gvfi65t7lnquzN+Rv7mt41ETfbNhKbau8O9Wh//Bql3x3ce/r/h8DX59NPB8dmnz14w30ljTK8l54wnSqYFr1S8b3yvmQxe6l1OX2lR+/FtfnH0Z3PyPgA9JAG9gBP5AACsBl0AU+QERICrKCqFAh1Ap9gNlgQzgKroSHMIwYM0wqphWzgmgi8UgjsozVw2ZgB3ESuAO413htfBmBQAgnDBDViSUkmBREekpjSHOLVp32DtmWPE6XTC9I38rgwTDHmM0kzfSYOYyFzFLFqs/6ii2OnY+9m+MYpxeXPrckDwvPEu9rvnr+4wKhgpZb5IQ4hHHCiyJfRb+IfRdfkaSTEt6qK+0pkyRbIlcv/0ThuxKXsplKsmq7Oq2Gh+ZlLTz6rtqst0U/15DNqMbE3YzRvM/ylHW4rZO9gsOQk7tzl6up25Ptfh4LO1M8IUqE11MfVd9if2LAgSBScHmoVTiIuEkNj+KLbo+NjvPZ+zmxIinuwLPk5VT4ICGN4ZBieuThgUynI1PH0rNlcl7kpudrFnwtrD61s5hUcq5U9cztMp3y1r8MKzurbKsHLjhe7K0xrm24In71xHXCjYS65frDjaK3em8nt6i0TrUV37W5j3Tcehj5SKprrPt0r2s/y5P+p1mD5s9Xhy6+snk9+SZ6ZOVd8hjmffIEPJnyAfm4f/rzZ+MvcTMlX49+i/5u+H3+x/lZ69mXcwFzc/Mx81MLHgs9iwaLF36Sf0b87F9SXipc+rpstly2vLTiuHLpF+aX66+Lq9Cq0+r5tfmP9FNUWA8fEK0+ANjh1dXvogDgjwOwkrO6ulS2urpSjiYbrwBoDdn4z7QeaxgAKH6zhjolnyb9+x/Pxj+of+Qx/76D9Ui0rhWNRGtlLSqB/wGS8u+dg9nj8AAAAFZlWElmTU0AKgAAAAgAAYdpAAQAAAABAAAAGgAAAAAAA5KGAAcAAAASAAAARKACAAQAAAABAAAAVKADAAQAAAABAAAAVAAAAABBU0NJSQAAAFNjcmVlbnNob3RenayNAAAB1GlUWHRYTUw6Y29tLmFkb2JlLnhtcAAAAAAAPHg6eG1wbWV0YSB4bWxuczp4PSJhZG9iZTpuczptZXRhLyIgeDp4bXB0az0iWE1QIENvcmUgNi4wLjAiPgogICA8cmRmOlJERiB4bWxuczpyZGY9Imh0dHA6Ly93d3cudzMub3JnLzE5OTkvMDIvMjItcmRmLXN5bnRheC1ucyMiPgogICAgICA8cmRmOkRlc2NyaXB0aW9uIHJkZjphYm91dD0iIgogICAgICAgICAgICB4bWxuczpleGlmPSJodHRwOi8vbnMuYWRvYmUuY29tL2V4aWYvMS4wLyI+CiAgICAgICAgIDxleGlmOlBpeGVsWURpbWVuc2lvbj44NDwvZXhpZjpQaXhlbFlEaW1lbnNpb24+CiAgICAgICAgIDxleGlmOlBpeGVsWERpbWVuc2lvbj44NDwvZXhpZjpQaXhlbFhEaW1lbnNpb24+CiAgICAgICAgIDxleGlmOlVzZXJDb21tZW50PlNjcmVlbnNob3Q8L2V4aWY6VXNlckNvbW1lbnQ+CiAgICAgIDwvcmRmOkRlc2NyaXB0aW9uPgogICA8L3JkZjpSREY+CjwveDp4bXBtZXRhPgr/fMjhAAAKu0lEQVR4Ae2ca3BbxRXHj2RZsmVHfr8CSewYkvYLkEKJC4XOdDrtBFpKiEMJcZxkhhkGOp0y08JAialdWihp8wHiPEgnFFLHSZyHEzJNCQVmSMirIQbaNPGD4Gf8kmTLliVZL7vnXGl1FRdZK/vKutfymURXlq727v7uf8/unru7qnE0mDPJCKglS2kuIYHAHFCJhTAHNF6A7r9ghNueb4CNu1okLnJ0k1PJsVF68q9fQt2ZfnCP+drL/HQtlN+fDy89vCC6NCRIXVZAj14agMojbdAz4AK3dxw8njFIUKtAm6CGMXRO6XoNgs2Dip/KF6xsgD6xuwWOf2qGMVIJvmQZNFBZWgiXO22w/2w/WOweSBhXCWAz/GA3yRBszIEevGiGl+vboWfQBWoE6VWNw0N3ZsMrjxbeUAGrP+iGA2eNMGhzB8Cmp2hgA7qCFx+6+YZzY/lHTIFu/EsLnGgQVZmTlgh/WrsY7ixMDclk+wc9gmIHgsBmItj138uH3/wk9mBjArT2nBFePdoJvcOiKh++Kxt+v7owJMiJX+z4sAf2YcM1ESwp9oUYKnbGgZbvbIaTXwwIvpJGvQVpWtiMqly2KLQqJ8IM/nsngUUfax4RXUFWqgbW3RcbVzBjQA9cMEHV4XYwWt0BX1l6dw5UrloUzGfK79/8qBdqz/T9H9iy7+bBTDZeUQdqd47B+l1NcOrKUECV8zN1sHnNYrhjYcqUAYb6ISl2/7l+MOGNY72CbFTs4wh2JrpbUQVag61y1aE2sDi8AVX+rCQXKlYuDMVDss/Jx9YhWKoRAbDzEmHNPblRHSBEBSipsmxHE5xpElVZmJMEf3i0CG6PgionuwvbEOzB86jYYRFsDoJ97DsIdqX0AwTJge47b4RNB9pgeNSnSsARTtl9efDsg7Ht0mzD7tZhjA/0Y8+CKTYPwa5GsL+VEKxkQEmVa7Y1wvmW4YCvLM5Lhj9jC34rHuVi2/7ZDYf/ZboBbK4BwaIrqpQArCRA6zCDz9V+BTaESqMdQZU45n72gdiqcrKbWP1+Nxy9aBL6wsGKXVWSA1WPTN3HTwsoqXLt9kY42yyqckm+XhjtFOcmTVYe2Xy3FcEemwCWfGzp8hz43arIwU4ZaD0GMn655xo43D5VqtFXrsVRyq8fuEk2sCLJyOt+sME+VpuggpV3Z0N1eTF3UhEDJVWue7MJPrk6JESFKJixpEAv+MrF2JIr3d44ia7gUxNcH3DCOIYQVQi1d/tySNYmcBUtIqB1503wzN+u+QK/6Cs1eI0yVOWvVihTlZMR2rCrGc6haKjmtVeXgCEJ33CYhuMcIFWWbr0Kl65ZBVWOkyrn62FL2WIoyla+Kr+OwcIsHVxKVAtA7U6vdECv9tihZNPnwjW1GjXoNCp48vsF8PQP5n9dPmbNZzdl6AJlae5xQD6GFnksrEJfO94FXpoLgf++ebMetm64BfKw3zbbLT05AagmAqiEgAtvecM6hmUY7KVnOqTOKowMxQNMgqfTiWioJ8Nr4q9C/EKPCSdiNVdjA2R38SccIjnFfJyM/pOMSmyXEmhKUHfB5vIKF4mHl/w00Yf2WdzcRQ6r0JxUn79U4RNHi83DnbDST1yQJbYT1NnntbBAl84XAxutRidvuoo/L7hmjkpa5XXiCCGShJVOVIc+NEGlEorhclNrz2dhFTrPP0KgE+MJKOHTYGNMZnXyu7qwQKm7xMwVR608lTkt2ddN75eyURISxqkvZB3mUeEYLy+kUIrvur383UVRfpNQouEmmdPD70smSU4xXyXiRDUymrjGa1xAtf5Orhtnw8WTJWl9eBwRuDo+oKhQmk7oiuBOzQbwFLknG8aZf7zGBTTXoBXSi6eOPRWYaibVyQhcKD1OC28Gva8vGm/dJtZ2eHEmNf3nMS6gSX4fypsoz4WVcI4uqMtIQXYe4wKanOhTqCeCO8VzcbmfU5QrDrsbOmxc2eUCujDoMQdFr+PF9FgzfUFmDOFJqdD01ISAszXhzOF4sSSdrx9K5R3lDF1yKZTuFDOHi885s/OVfNT7Y8HkPXmD6yKpSUqeEhRxsnPeqUmSU8xXNDeLWauRb9jNBXRBpq8fSkHmSKLXLDNKPWbhYghmQzjHlce4gAY3SkYrf/SaJwNyPicl6EGdk3PYzQU0NSjh0QjGtXKGxZM3Cl3SzDwy3tAlF1Dq2FPwmk7mvVNCLmbBi84fIOm28NVMLqDEJck/ajCP8AcKZgFPSMbaSTFRG07H4TFuoAZcSUEWbwESDc6+I3NzxoK5ger8CbsiCb0IWVH2CwuQ8MaCuYEm+qt8JNFrZaP05T7V//jHKmW3iZJOTUoQgsyjnGPa2QCTypDhf1Bn5RzQcCuUTefjvVOzBSi18jT0HOP0oeJQIAwBevBPRttWUFyUdlqIB7ONjuE6Ai/uLsFXXm6FsgdWtIKYtwuhZOA2XLhWvrMJzjZZQB1BPIhboSxqT5AIqMHvW5QMLVTea84Y4Y33usCB7YUGG+NkrQqe+iHfjG1uoEsKxMjLf7ocUJAuTvcLlTGlfT6Iswt/gUuFPm+zCkNOWrBQcqsB9v38G0DzZHmMGyjNRqMkabxwpcsGdxWlQGaKOOWP52JyPmfP6X6oPnkd6Bm8CtuHefhg8kVcUbcRl4VHYtxA71+aBnrsOo2gb3n/8iA0tI3Aitsy4Ee3ZygabD+uUn6m5hr8u30koMp7lhhg79P8qgwGHtE6pcZeB3z0Xwuc+GwAzLgOnXoSGRgzVCrY13GRV82pXpxViAXB6kcLFSpwHUH5vbnBjCJ6HxFQlrLR6oFjl0xwBJcnDioQ7Jf9Dni+thUaccmQEJ5DmPdiDax5aim3r2QsJh6nBJQlQmDrcRnfUQKLm6goQbFb/nEd9p7u8wU7SJU4tHwJfeW6aaiS8aDjtICyhEwY0juEK3ppVS9Fo+QI9go+/t60vxWae0VVrliWCdvX3zJtVTIOkgFlCQ4gzAO4a8Ix3C1sCCdYyQXs5r93CTvmeCmUi6qkSWBVqxfB6m9ns6xLdpREoRNzY7F5oRb3+SBXYI0h2Muddqg42AotfY6Ar3zwW1nCcm3efuXEsoX7OypA2UUtdi/sxU2qyM/aMPw1k4p95XgnHMSdx8YwskFTMWkbjMrS6KiSlZeOUQXKLkQRqndwk6p6dAV27MdGE2xDuw0qcWujr7AlV+GDMGQJ0VYlKycdZwQou+AIRm7eOt2Le32YcZwsPdiX6zvgEPpwireRKvPTE7EFj74qWflmHCi7ME282o0d6voLCJZCY9McIHzcOASvHuuALtyFIRaqZOWKGVCWAZonRWBJVU4cQ08F7At1bXAcBxlsZxvanLACN1+JRgvO8j3ZcUarfKiMOHHp3+5TfcKGqy6cocED9kMcAr/2bid0W0RVPoKbE255vEjSfmWoPIf6XBZAWeYIJoGt/cQIHny6Ggrsc9hBP/GZOaBK2s6iClvwH9+RyZKK2VFWQBkFD642eQvB7sH/9LiFgV1ebIAjF43QN+QK+EpS5Y6NxeynMT/KEiijQjBJsW9/jGNvdAsdZlwN7W/B5aRKll86yhooyyhteUKhtj++2wH0Xm6qZPlUDFCW4VaTE2gmIFuQxT6X01ERCpUTsHB5oZHZnElIYA6ohDApqTmgc0AlJiBxcv8Drs2tYjwqYo0AAAAASUVORK5CYII=;rotation=-15;imageBackground=#E6D0DE;" vertex="1" parent="1">
          <mxGeometry x="255" y="229" width="47" height="47" as="geometry" />
        </mxCell>
        <mxCell id="UZAGVTF5EnCvgB7L0BSY-5" value="" style="shape=image;verticalLabelPosition=bottom;labelBackgroundColor=default;verticalAlign=top;aspect=fixed;imageAspect=0;image=data:image/png,iVBORw0KGgoAAAANSUhEUgAAAEgAAABICAYAAABV7bNHAAAAAXNSR0IArs4c6QAAAHhlWElmTU0AKgAAAAgABAEaAAUAAAABAAAAPgEbAAUAAAABAAAARgEoAAMAAAABAAIAAIdpAAQAAAABAAAATgAAAAAAAABIAAAAAQAAAEgAAAABAAOgAQADAAAAAQABAACgAgAEAAAAAQAAAEigAwAEAAAAAQAAAEgAAAAAo75y2AAAAAlwSFlzAAALEwAACxMBAJqcGAAABMBJREFUeAHtmFmIHUUUhuMSNyYYI24xihI1BndUkKgIbqCIBhWUEB/1XQTRKAYEUXzw1RfxwQURFwQVUcEXCREXgguaxEkc47hFMTGKxGRQvy/cHsqarntv93SuoufAR3dV9Tl16r9VXdV3zpywUCAUCAVCgVAgFAgFQoFQIBQIBUKBUCAUCAVCgVAgFAgFQoFQIBQIBUKB/4AC+7Qcw/74LYTjYQGMwb6wA7bCJHwDf8AozL7NZxEcBfPAvn+FbbAFvoYpaGTDCHQAEc+FC+B8OAOWwFzoZ7toHIcN8Bl83MNy40Tx0fxh7NscZGmvfBJX8+xn9rkRzON9eAfeg9+haCWBTsfjKrgSlsEh0JXtJJBJrgMTFcu5aIqhCOf1OKdXPohrV2Yua+ENeA0+hL52L62b4c8R8xv9rYFHenhv3ajzmKDPu2Ha8hlkQv93UwPfaXvMadzEdP4EPoCPwNk2Cb+AL8XD4Bg4AU6GU8H3xLGwN+xLgq7vMc51Ar6F7eDY5sEiWAxngcvVnPKJQdW09WsrTunvcV8JCtDG3OkugdXwAyh0G77DbxVcBIdCGzsCp1tBEUs5FOOWnC4vejRvWIjLJiglV6r/HJ+jm3dX9LipkINHlaLdTotLJU9ybtGjXcPVNX3kfeZld9UuTbHzPiyvHtSJO0nuOMinabvvh901/eT9VmWf1adLc4lW8aurY/+b1XXqCfifMLf1h8Ed5E5IzzsOoGubqgk4UVM3o8oXWKVoda0TcoZjg4oLa/q4K/G/p6Zdny5tjGDV+KrriryD6f0+aXCbzO3gvGKW5Wtq/J9P6p5J7qvbOp+qrc217tNkqNXjeaFStLoe2SaDPj7jWR+f1jzrOavq36tnri7N81oa3/sT8w7qZtCW/CHKnh26smUE8uCW2tNpoXf/RFZn8hdndbMpHp45+06azOqKRR9M1b22+GTzhhey2Dsp1/0A86n374o0j5cod2XXESiN7RfCDKubQT60Jnuyqxfk2cRdnsV+krKn69y2U/FYVukP5edCF+ZMTm1tWhh0fwsPpOp6xG97tK/62o8bv+HSuD9T7nc69hPlx8zHd9NsD66OxTGluVxPeWjz/x+/v9IAr1Nuu5v5Afh4Fs/Yd8Agu40H0jy8fwpKs39QPMfgWNKY7twHDnLM22/OghjwXViSPzigbMculTQh71+FYQf5bI2/S7PpD2bujiHPxbG2sofwyoPtou5ROG1ARA+XN4J/t+Yx1lPXZMk6o9fVxNlInR+dg5acuZqzuee5PEhd0fr+99Hz8lR7P9T92ib4NmyAbWCinplM6FLIt1Kq9vwvfBnXobdUnTDjvglnWsjsJ8pvgTvRVtgN/jXjjPFocArk5kf5ffBA3tCmfAVOX0CuftPyy8Ro+5+SeY9B3XJrmodjcUydmtN8FbglN01oMz4roCu7gUDO3qZ5mLtjcCx7zQy+El6BHVBK0iX3Ivgecul1bR4bPFM9By6xUh7maK7m3FiYYd5BxC2a76WlcBwsgCnwbLMJnDWu81GYefgpshjmgxuEon0FbhKjyoOuwkKBUCAUCAVCgVAgFAgFQoFQIBQIBUKBUCAUCAVCgVAgFAgFQoFQIBQIBf6FCvwFt9Lnr1bMg8sAAAAASUVORK5CYII=;rotation=20;" vertex="1" parent="1">
          <mxGeometry x="570" y="46" width="54" height="54" as="geometry" />
        </mxCell>
        <mxCell id="UZAGVTF5EnCvgB7L0BSY-6" value="" style="ellipse;whiteSpace=wrap;html=1;aspect=fixed;fillColor=#000000;" vertex="1" parent="1">
          <mxGeometry x="274.5" y="249.17000000000002" width="6" height="6" as="geometry" />
        </mxCell>
        <mxCell id="UZAGVTF5EnCvgB7L0BSY-7" value="" style="shape=image;verticalLabelPosition=bottom;labelBackgroundColor=default;verticalAlign=top;aspect=fixed;imageAspect=0;image=data:image/png,iVBORw0KGgoAAAANSUhEUgAAAFQAAABUCAYAAAAcaxDBAAAYhWlDQ1BJQ0MgUHJvZmlsZQAAWIWVeQk4Vl3X/z7nPvfIbZ5nmck8k3me5zGV2zzTbYoiIYkKGVJI4RENNAoJUSnJlFIqKTKUSoMp5DuGep73ef/X/7u+fV37nN9Ze+211l57WGedAwD3K0pERAjMAEBoWBTV3kRfwNXNXQA/DiCAAAJgA2IU78gIPVtbS4CW3/f/LHPPUG60PJFek/Xf7f/fwuTjG+kNAOSBYi+fSO9QFLcCgBR7R1CjAMCt0YVioyLWcBKKWaiogSjOW8P+G7hqDXtt4KZ1Hkd7AxT3AkCgpVCo/gDQvULpAjHe/qgcumW0jSnMJzAMAFZ05Dht7wCKDwDctijP1tDQ8DW8D8XiKH8EiitQrOb1D5n+/yHf6498CsX/D94Y13ohGAZGRoRQ4v6PrvnfS2hI9G8domilDaCa2q+NH/Xh8+BwizVMi+LpMC9rmzVfo3gh0GfD7wDApIBoU6cNfpjHO9IA9R864wCW86EYWqCYB8XGYSHWlpt0L79AYzMUoz6D9wRGmTmimAPF6b6RRg6bPGeo4fabuuA6P6qB3ib9AYW6rndN13B0sJPepvxvAb5mm/IxdPEBji4oJqFYOCbQ2RrFdCiWiQx2sNjk2RYfYGD9m4cabb9mvzCK7X3DTPQ35GNi/KjG9pv8GaGRv8eLORMQaGa9ia9GBTiabvgHc9ebsm4/OhZMr2+YntNvOb6Rrpa/x+Lja2i0MXbMpG+Yk8OmnIWIKH37jb4IKSLEdpMf2eIbYrJG34JipcgYh82+iHMUujg35CN+EVG2jht2IvFBFHPbDXuQbGAJDIAhEADRaPUC4SAIBHZP35xGnzZajAEFUIE/8AXSm5TfPVzWW8LQqwOIB59Q5Asi//TTX2/1BTEofeUPdeMqDfzWW2PWewSDcRSHAgsQgj5Hr/cK+6PNGYyhlMD/0k5Bqzdqbwha19r/3/Tf1L8peijFcpMS/VujAP1vTpwRzhBnijPGSSBciDaiiViiV120KiBqiPrvcfzNjx3H9mHfYZ9iR7AvdgUmU/9lpRUYQeUbb/rC65++QERRmcqIPqKFSkclI2wIF5BGlFA9eogOqlkZpRps2r3mFYF/yf6PEfxjNjb5iHJEmMhO1CWK/7snnSSd8h8pa77+p382bPX642+DPy3/1m/wD+/7oHeLf3Ni0jHXMB2YO5iHmCbMTSCAacHUY7owt9fwn9U1tr66fmuzX7cnGJUT+F/6KJs61zwZKXdBbkpueaMtyndP1NrGMwiPiKMG+gdECeih0cFXwCzMW2argIKcggIAa7Fm4/j6br8eQyC2nr9pFDSWqKFcJP2/aeHomVGTj26Zk3/TRNE9zakOwFV772hqzAYNWbtg0VOCHt1pnIAPCAFxdDwKQAVoAl1gBMyBDXAEbmAn6uUAdJ1TQSzYBw6ANJAJskE+OAVKQTmoApfAVXATNIE74D54BHrBU/ASXT3vwUcwA+bAEgRBeIgMMUOcED8kAklBCpAapA0ZQZaQPeQGeUL+UBgUDe2DUqBM6Dh0CjoLVUNXoAboDvQQ6oNeQG+hKegb9BPGwLQwC8wLi8KysBqsB1vAjvAO2B/eDcfDqfAxuBAugy/CdfAd+BH8FB6BP8KzGIChwbBhBDHSGDWMAcYG447xw1AxiZgMTAGmDFODaUTn+QlmBDONWURwCDMigEijK9gUcUK8kd1IInIEOYVUIXXIXeQJ8haZQX5hyVgerBRWA2uGdcX6Y2OxadgCbCX2BvYeupfeY+dwOBwbTgyniu5FN1wQbi/uCK4EV4trxfXhRnGzeDyeEy+F18Lb4Cn4KHwa/iT+Ir4F349/j18g0BD4CQoEY4I7IYyQTCggnCc0E/oJE4QlIgNRhKhBtCH6EOOIWcQKYiOxh/ieuERiJImRtEiOpCDSAVIhqYZ0j/SK9J2GhmYLjTqNHU0gTRJNIc1lmgc0b2kWaZloJWkNaD1oo2mP0Z6jbaV9QfudTCaLknXJ7uQo8jFyNbmdPExeoGOmk6Ezo/Oh209XRFdH10/3mZ5IL0KvR7+TPp6+gP4afQ/9NAORQZTBgIHCkMhQxNDAMMgwy8jMKM9owxjKeITxPONDxkkmPJMokxGTD1MqUzlTO9MoM4ZZiNmA2Zs5hbmC+R7zexYcixiLGUsQSybLJZZulhlWJlYlVmfWPaxFrLdZR9gwbKJsZmwhbFlsV9mesf1k52XXY/dlP8xew97PPs/BzaHL4cuRwVHL8ZTjJ6cApxFnMGcO503O11wIlySXHVcs12mue1zT3Czcmtze3BncV7mHeGAeSR57nr085TxdPLO8fLwmvBG8J3nbeaf52Ph0+YL48via+ab4mfm1+QP58/hb+D8IsAroCYQIFArcFZgR5BE0FYwWPCvYLbi0RWyL05bkLbVbXguRhNSE/ITyhNqEZoT5ha2E9wlfEB4SIYqoiQSInBDpEJkXFRN1ET0kelN0UoxDzEwsXuyC2CtxsriO+G7xMvEBCZyEmkSwRIlEryQsqSwZIFkk2SMFS6lIBUqVSPVtxW5V3xq2tWzroDSttJ50jPQF6bcybDKWMskyN2U+ywrLusvmyHbI/pJTlguRq5B7Kc8kby6fLN8o/01BUsFboUhhQJGsaKy4X7Fe8auSlJKv0mml58rMylbKh5TblFdUVFWoKjUqU6rCqp6qxaqDaixqtmpH1B6oY9X11ferN6kvaqhoRGlc1fiiKa0ZrHlec3Kb2DbfbRXbRrW2aFG0zmqNaAtoe2qf0R7REdSh6JTpvNMV0vXRrdSd0JPQC9K7qPdZX06fqn9Df95AwyDBoNUQY2himGHYbcRk5GR0ymjYeIuxv/EF4xkTZZO9Jq2mWFML0xzTQTNeM2+zarMZc1XzBPO7FrQWDhanLN5ZSlpSLRutYCtzq1yrV9Yi1mHWN22AjZlNrs1rWzHb3ba37HB2tnZFduP28vb77DscmB12OZx3mHPUd8xyfOkk7hTt1OZM7+zhXO0872LoctxlxFXWNcH1kRuXW6BbvTve3dm90n12u9H2/O3vPZQ90jye7RDbsWfHw51cO0N23t5Fv4uy65on1tPF87znMsWGUkaZ9TLzKvaa8TbwPuH90UfXJ89nylfL97jvhJ+W33G/SX8t/1z/qQCdgIKA6UCDwFOBX4NMg0qD5oNtgs8Fr4a4hNSGEkI9QxvCmMKCw+6G84XvCe+LkIpIixjZrbE7f/cM1YJaGQlF7oisj2JBX+q7osWjD0a/jdGOKYpZiHWOvbaHcU/Ynq44ybjDcRPxxvF/7UX2eu9t2ye478C+twl6CWcToUSvxLb9QvtT979PMkmqOkA6EHzgcbJc8vHkHykuKY2pvKlJqaMHTQ5eSKNLo6YNHtI8VJqOpAemdx9WPHzy8K8Mn4zOTLnMgszlI95HOo/KHy08unrM71h3lkrW6Wxcdlj2sxydnKrjjMfjj4/mWuXW5QnkZeT9yN+V/7BAqaD0BOlE9ImRQsvC+pPCJ7NPLp8KOPW0SL+otpin+HDxfIlPSf9p3dM1pbylmaU/zwSeeX7W5GxdmWhZQTmuPKZ8vMK5ouMvtb+qK7kqMytXzoWdG6myr7pbrVpdfZ7nfNYF+EL0hamLHhd7Lxleqq+Rrjlby1abeRlcjr784YrnlWdXLa62XVO7VnNd5HrxDeYbGXVQXVzdzM2AmyP1bvV9DeYNbY2ajTduydw61yTYVHSb9XZWM6k5tXm1Jb5ltjWidfqO/53Rtl1tL9td2wfu2t3tvmdx78F94/vtHXodLQ+0HjQ91HjY0KnWefORyqO6LuWuG4+VH9/oVumu61Htqe9V723s29bX3K/Tf+eJ4ZP7A2YDj55aP+175vTs+aDH4Mhzn+eTL0JefB2KGVp6mfQK+yrjNcPrgmGe4bI3Em9qR1RGbr81fNv1zuHdy1Hv0Y9jkWPL71PHyeMFE/wT1ZMKk01TxlO9H7Z/eP8x4uPSdNonxk/Fn8U/X/+i+6VrxnXm/Vfq19VvR75zfj/3Q+lH26zt7PBc6NzSfMYC50LVotpix0+XnxNLscv45cIViZXGXxa/Xq2Grq5GUKiU9VcBDFphPz8Avp0DgOwGADOat5G2b+SCmwWDvnzA6N0ZkoE+wncxKYgDVhcnhucicBD5SVo01rTB5Gy6BvppRmkmX+ZyllE2SfY4jhYuem4Xngre7/zbBFIFHwsxCtuLHBV9JA4kFCX9pE5s7ZSelxWXs5NPUrig+FQZVpFX3aGWoV6n8XYbWUtN21PnsO4VvVcGBEMVI2/jbJN602FzyELY0sQqyDrL5rrtc7sFBzZHRScb51CXo641bo/c326f8ZjfsbQLeJIonF7S3no+9r67/Hz9KQEOgduCBIKh4JGQltAzYSnhARG2u9WoApGEyC9Rz6KbY6pic/ckxoXEu+0126eVoJqosl89Se+ARbJLim9q1MGDaXmHKtKvHW7N6Mp8duTN0Yljn7K+Zc/mzB2fzZ3N+1mAnGAt3HrS5JR30f7iwpKa0y2lj84MnB0qGymfqvhRiTnHWiVZrX/e40LsxbxLV2v6ar9eYbyqeM3heuSN7Lrqm431dxraG1tv3Wq6cbu2ubqlvLXkTn5bRvu+u0H3HO6rdHB0LD4YedjTef9Re9edx03dtT2FvZF9Bv3k/idPigb8nio/wz4bHKx6HvNCdwg31IGuL+VXE69zhjWHR98cHdEc+fi29J39KGa0dsxpbPF93vjW8ZYJ+4mxyYNTslNjH6o+hk0rTs9+qv3s/YXxy40Z25nxr/u+sX+7/z3rR9gsZc4PXUdjP++tyKyurs+/EHQZDsIoYCaRK9gknCteiyBNFCOJ0WyhlSNr0NnRezMkMpYyNTNPsTKwqbFTONI5r3MN89DwKvJt508SOCvYsuWl0KwIjSi/mLK4mYSnZJxU7tYr0l0yk3KIvKDCNkV3pSjlTJUK1Qa1x+rvNH5sw2lxa8vrWOmG6GXpXzboNfxkTDDhNVUwMzJ3svC2DLPaY51ok2J70C7NPt0hw/GIU4Zzqkuca4Cbo7vhdh0P4x3uO2N35XteprR5dXrf87nhW+y3198lQC6QNnA6qDe4MaQ6tCgsKzw5grrbg6obyR+5FPU0+lJMWqzXHqM4uXjhvbz7OBNYExn24/bPJb070Jl8JSU/NfbgjjTzQ4bplocpGQcy/zpy/+jwsc9Zs9nzObPHv+fO5H3Kny74fGLhJMMp9aKw4sqS7tOjpVNn3p99U/aivK/iwV/NlU3nOqs+nRe8sONi8aUXtSyXra+ko6fX4g2ZOp+bRfX9jdhbSk27bh9srmxpam2+c74tuz3hbuy9pPtZHSUPyh+e7jz2KLrL4bF0N9I91HO1N7MvqN/uidGA0VO7Z16D0c9TXxwaSnjp98rgNdfr6eGGN4dGXN9KvyO8Gx9tHyt5v3tcd4J2YmCyfGr/h8CPPtMBn0I/R3yJmIn4Sv0W8z3uR+xs4JzJPP38tQWjhUeL7ouffvYu064Mrc+/FLgLWUDPYV8MDpOFSCE92HicLG4K/xchgChLXCR10pTSxpLt6RTo6ejnGF4wtjJVM+eyJLD6s9mza3FIcLJyLnNNcvfzNPPW8JXzFwkUCOZtyRJKE44RoYgaiQmILYh3SZRKRkqZbhWUhqWnZAZlH8g1yp9XKFRMUvJUVlfBqfSo5qu5qnOqv9Ao0fTZpqCF0xrWrtPJ0g3QM9QXNWAwBIbfjSaMn5ncMi0w8zUXMR+xKLS0scJbtVun2JjZcth+sGu2z3UIcNR0IjsNO19y2edq7sbq9sa9ans4Gv8Xd9zembTLwJPg2Ucp9gr23uZD6zPke85vt7+a/3JAS2BSkG4wCG4NORBqEIaE3Qs/GKEXsbD7AtUNjdnVUTZRP6ILY7bFDMcm7eHdczvOM54tfmjvhX0pCa6J4olz+9uTcg/4JxumSKZyHKRJA2k/Do2mPz5cm3Ekk3JE6Sj+6NCxy1kZ2cE5JseZjt/P3Z47nRefr1egfyL9JOFURtFYCedphVL1M+pnlctky8UrBP/irGQ8R6oiVtOjK0nrouelQzWXap9cXr4qfs39+vEbfTdZ6t0aihsHm7C3JZpNWrxa99853dbc/ubu6n3BDoMH/g+PdF559KxrpVuiZ3vvib7hJwoDR59+HnR43jAk+DL/tewburexY5mTcZ+sv80t2q3N/8Y3wbWCUwEgF80znY+idQqAnJtonnkLAHYSALZkABzVAXyoBsAmNQAKPvgnfmx8NaUHbIAfSAAlNNO0BO5o1rwHHEYzyougGfSDcbAMMUESkC6aH0ZCR9F88B40CkOwIKwP+8CH0CyvH/6JEcJYYeIxVZhBhIBoIKFIOfICy4S1QDOydhyE08Ul4drwWLw5Phv/nCBICCE0EPFEF2IV8SfJinSWNE9jTVNFi9B60baTRciHyZ/pHOma0EwnhwEw7GYYY3Rj7GEyZrrNrMZcx6LB0s5qzzrKFs2OYy/gEOWo57TmnORK55bnHuUp5fXik+Jb4L8vkC/os0VJCCf0UviaSJZoiJiFuJQEWWJG8qnUra2npRNlPGTV5VjkZuQfK5xXPKwUoGyuIqPKqrqq9kl9WKNfs3PbPa272h063bpDepP6c4bACIeecwRTghnRnNaCxVLQSsna2ibMNs+uyf69I9lJydnNJcH1jNtd9wkPmh1yO5137fOsoHR7LfgI+zr4HfRvCvgZZBB8MmQxzDu8f7cxtSlKKbo2VnrPlfhte3sTwvfzJD1Lzku1PDh3KO/w1ox7R3yPsWa9yXmc+zp/tVDglHqx5eldZ+LKzlQMnZOuPnNRrmbkytnrO2/SNNQ07WiRauO/Z/ygrIu2R7xvbiBnUPxF36vTb0686x/3nFr8xPTl4jfwQ25OfX51MeNn/dLA8q2V8l8Rq6rr5we0/s2BCXADUaAAdIAV8AChIBHkgArQAHrAe7ACsUGykDnkB6VAZdAd6B2MwGKwJUyFT8Ht8BcMD8YCsw9TixlDuBB7JBO5h4WwWti92FvYZZwOLgX3EM+Ad8P/hf9G0CPkEsaJmsRc4jTJGJ3zZRpXmutoJkylHSCrk8/Q0dDtoZugd6PvZjBmaGXUZmxhMmDqZHZgfo1mpj9Zs9gk2R6x7+Zg46jjtOMc54rjJnNX8OjyjPHm8Jnz0/G/FrgmeGxLoJC+MIfwR5HbotlifuL6EiKSTFKErVhpggydLJMcozxBflFhUnFQqVP5jsod1U61l+rfNOm2yWnZaQfqROlS9QL0XQ1MDNWNlIzVTExMd5klmp+16LCcsea2MbINRmNansMJx3ynPOczLi2uX92Vtyd5PN7JtyvKs8dLyNvPJ9/3hl+3/1jAUhBbsGKIY2hM2Knw1ogPVPZI46iY6HMxQ3sY4qzis/Y+TxBNTNg/esA/hSG1My0qHXf4UCZyJP0Yd1Z7TnKua77BCc2TmkWaJeqlEmeRsvsVMZXc525Xe11gvfi65t7lnquzN+Rv7mt41ETfbNhKbau8O9Wh//Bql3x3ce/r/h8DX59NPB8dmnz14w30ljTK8l54wnSqYFr1S8b3yvmQxe6l1OX2lR+/FtfnH0Z3PyPgA9JAG9gBP5AACsBl0AU+QERICrKCqFAh1Ap9gNlgQzgKroSHMIwYM0wqphWzgmgi8UgjsozVw2ZgB3ESuAO413htfBmBQAgnDBDViSUkmBREekpjSHOLVp32DtmWPE6XTC9I38rgwTDHmM0kzfSYOYyFzFLFqs/6ii2OnY+9m+MYpxeXPrckDwvPEu9rvnr+4wKhgpZb5IQ4hHHCiyJfRb+IfRdfkaSTEt6qK+0pkyRbIlcv/0ThuxKXsplKsmq7Oq2Gh+ZlLTz6rtqst0U/15DNqMbE3YzRvM/ylHW4rZO9gsOQk7tzl6up25Ptfh4LO1M8IUqE11MfVd9if2LAgSBScHmoVTiIuEkNj+KLbo+NjvPZ+zmxIinuwLPk5VT4ICGN4ZBieuThgUynI1PH0rNlcl7kpudrFnwtrD61s5hUcq5U9cztMp3y1r8MKzurbKsHLjhe7K0xrm24In71xHXCjYS65frDjaK3em8nt6i0TrUV37W5j3Tcehj5SKprrPt0r2s/y5P+p1mD5s9Xhy6+snk9+SZ6ZOVd8hjmffIEPJnyAfm4f/rzZ+MvcTMlX49+i/5u+H3+x/lZ69mXcwFzc/Mx81MLHgs9iwaLF36Sf0b87F9SXipc+rpstly2vLTiuHLpF+aX66+Lq9Cq0+r5tfmP9FNUWA8fEK0+ANjh1dXvogDgjwOwkrO6ulS2urpSjiYbrwBoDdn4z7QeaxgAKH6zhjolnyb9+x/Pxj+of+Qx/76D9Ui0rhWNRGtlLSqB/wGS8u+dg9nj8AAAAFZlWElmTU0AKgAAAAgAAYdpAAQAAAABAAAAGgAAAAAAA5KGAAcAAAASAAAARKACAAQAAAABAAAAVKADAAQAAAABAAAAVAAAAABBU0NJSQAAAFNjcmVlbnNob3RenayNAAAB1GlUWHRYTUw6Y29tLmFkb2JlLnhtcAAAAAAAPHg6eG1wbWV0YSB4bWxuczp4PSJhZG9iZTpuczptZXRhLyIgeDp4bXB0az0iWE1QIENvcmUgNi4wLjAiPgogICA8cmRmOlJERiB4bWxuczpyZGY9Imh0dHA6Ly93d3cudzMub3JnLzE5OTkvMDIvMjItcmRmLXN5bnRheC1ucyMiPgogICAgICA8cmRmOkRlc2NyaXB0aW9uIHJkZjphYm91dD0iIgogICAgICAgICAgICB4bWxuczpleGlmPSJodHRwOi8vbnMuYWRvYmUuY29tL2V4aWYvMS4wLyI+CiAgICAgICAgIDxleGlmOlBpeGVsWURpbWVuc2lvbj44NDwvZXhpZjpQaXhlbFlEaW1lbnNpb24+CiAgICAgICAgIDxleGlmOlBpeGVsWERpbWVuc2lvbj44NDwvZXhpZjpQaXhlbFhEaW1lbnNpb24+CiAgICAgICAgIDxleGlmOlVzZXJDb21tZW50PlNjcmVlbnNob3Q8L2V4aWY6VXNlckNvbW1lbnQ+CiAgICAgIDwvcmRmOkRlc2NyaXB0aW9uPgogICA8L3JkZjpSREY+CjwveDp4bXBtZXRhPgr/fMjhAAAKu0lEQVR4Ae2ca3BbxRXHj2RZsmVHfr8CSewYkvYLkEKJC4XOdDrtBFpKiEMJcZxkhhkGOp0y08JAialdWihp8wHiPEgnFFLHSZyHEzJNCQVmSMirIQbaNPGD4Gf8kmTLliVZL7vnXGl1FRdZK/vKutfymURXlq727v7uf8/unru7qnE0mDPJCKglS2kuIYHAHFCJhTAHNF6A7r9ghNueb4CNu1okLnJ0k1PJsVF68q9fQt2ZfnCP+drL/HQtlN+fDy89vCC6NCRIXVZAj14agMojbdAz4AK3dxw8njFIUKtAm6CGMXRO6XoNgs2Dip/KF6xsgD6xuwWOf2qGMVIJvmQZNFBZWgiXO22w/2w/WOweSBhXCWAz/GA3yRBszIEevGiGl+vboWfQBWoE6VWNw0N3ZsMrjxbeUAGrP+iGA2eNMGhzB8Cmp2hgA7qCFx+6+YZzY/lHTIFu/EsLnGgQVZmTlgh/WrsY7ixMDclk+wc9gmIHgsBmItj138uH3/wk9mBjArT2nBFePdoJvcOiKh++Kxt+v7owJMiJX+z4sAf2YcM1ESwp9oUYKnbGgZbvbIaTXwwIvpJGvQVpWtiMqly2KLQqJ8IM/nsngUUfax4RXUFWqgbW3RcbVzBjQA9cMEHV4XYwWt0BX1l6dw5UrloUzGfK79/8qBdqz/T9H9iy7+bBTDZeUQdqd47B+l1NcOrKUECV8zN1sHnNYrhjYcqUAYb6ISl2/7l+MOGNY72CbFTs4wh2JrpbUQVag61y1aE2sDi8AVX+rCQXKlYuDMVDss/Jx9YhWKoRAbDzEmHNPblRHSBEBSipsmxHE5xpElVZmJMEf3i0CG6PgionuwvbEOzB86jYYRFsDoJ97DsIdqX0AwTJge47b4RNB9pgeNSnSsARTtl9efDsg7Ht0mzD7tZhjA/0Y8+CKTYPwa5GsL+VEKxkQEmVa7Y1wvmW4YCvLM5Lhj9jC34rHuVi2/7ZDYf/ZboBbK4BwaIrqpQArCRA6zCDz9V+BTaESqMdQZU45n72gdiqcrKbWP1+Nxy9aBL6wsGKXVWSA1WPTN3HTwsoqXLt9kY42yyqckm+XhjtFOcmTVYe2Xy3FcEemwCWfGzp8hz43arIwU4ZaD0GMn655xo43D5VqtFXrsVRyq8fuEk2sCLJyOt+sME+VpuggpV3Z0N1eTF3UhEDJVWue7MJPrk6JESFKJixpEAv+MrF2JIr3d44ia7gUxNcH3DCOIYQVQi1d/tySNYmcBUtIqB1503wzN+u+QK/6Cs1eI0yVOWvVihTlZMR2rCrGc6haKjmtVeXgCEJ33CYhuMcIFWWbr0Kl65ZBVWOkyrn62FL2WIoyla+Kr+OwcIsHVxKVAtA7U6vdECv9tihZNPnwjW1GjXoNCp48vsF8PQP5n9dPmbNZzdl6AJlae5xQD6GFnksrEJfO94FXpoLgf++ebMetm64BfKw3zbbLT05AagmAqiEgAtvecM6hmUY7KVnOqTOKowMxQNMgqfTiWioJ8Nr4q9C/EKPCSdiNVdjA2R38SccIjnFfJyM/pOMSmyXEmhKUHfB5vIKF4mHl/w00Yf2WdzcRQ6r0JxUn79U4RNHi83DnbDST1yQJbYT1NnntbBAl84XAxutRidvuoo/L7hmjkpa5XXiCCGShJVOVIc+NEGlEorhclNrz2dhFTrPP0KgE+MJKOHTYGNMZnXyu7qwQKm7xMwVR608lTkt2ddN75eyURISxqkvZB3mUeEYLy+kUIrvur383UVRfpNQouEmmdPD70smSU4xXyXiRDUymrjGa1xAtf5Orhtnw8WTJWl9eBwRuDo+oKhQmk7oiuBOzQbwFLknG8aZf7zGBTTXoBXSi6eOPRWYaibVyQhcKD1OC28Gva8vGm/dJtZ2eHEmNf3nMS6gSX4fypsoz4WVcI4uqMtIQXYe4wKanOhTqCeCO8VzcbmfU5QrDrsbOmxc2eUCujDoMQdFr+PF9FgzfUFmDOFJqdD01ISAszXhzOF4sSSdrx9K5R3lDF1yKZTuFDOHi885s/OVfNT7Y8HkPXmD6yKpSUqeEhRxsnPeqUmSU8xXNDeLWauRb9jNBXRBpq8fSkHmSKLXLDNKPWbhYghmQzjHlce4gAY3SkYrf/SaJwNyPicl6EGdk3PYzQU0NSjh0QjGtXKGxZM3Cl3SzDwy3tAlF1Dq2FPwmk7mvVNCLmbBi84fIOm28NVMLqDEJck/ajCP8AcKZgFPSMbaSTFRG07H4TFuoAZcSUEWbwESDc6+I3NzxoK5ger8CbsiCb0IWVH2CwuQ8MaCuYEm+qt8JNFrZaP05T7V//jHKmW3iZJOTUoQgsyjnGPa2QCTypDhf1Bn5RzQcCuUTefjvVOzBSi18jT0HOP0oeJQIAwBevBPRttWUFyUdlqIB7ONjuE6Ai/uLsFXXm6FsgdWtIKYtwuhZOA2XLhWvrMJzjZZQB1BPIhboSxqT5AIqMHvW5QMLVTea84Y4Y33usCB7YUGG+NkrQqe+iHfjG1uoEsKxMjLf7ocUJAuTvcLlTGlfT6Iswt/gUuFPm+zCkNOWrBQcqsB9v38G0DzZHmMGyjNRqMkabxwpcsGdxWlQGaKOOWP52JyPmfP6X6oPnkd6Bm8CtuHefhg8kVcUbcRl4VHYtxA71+aBnrsOo2gb3n/8iA0tI3Aitsy4Ee3ZygabD+uUn6m5hr8u30koMp7lhhg79P8qgwGHtE6pcZeB3z0Xwuc+GwAzLgOnXoSGRgzVCrY13GRV82pXpxViAXB6kcLFSpwHUH5vbnBjCJ6HxFQlrLR6oFjl0xwBJcnDioQ7Jf9Dni+thUaccmQEJ5DmPdiDax5aim3r2QsJh6nBJQlQmDrcRnfUQKLm6goQbFb/nEd9p7u8wU7SJU4tHwJfeW6aaiS8aDjtICyhEwY0juEK3ppVS9Fo+QI9go+/t60vxWae0VVrliWCdvX3zJtVTIOkgFlCQ4gzAO4a8Ix3C1sCCdYyQXs5r93CTvmeCmUi6qkSWBVqxfB6m9ns6xLdpREoRNzY7F5oRb3+SBXYI0h2Muddqg42AotfY6Ar3zwW1nCcm3efuXEsoX7OypA2UUtdi/sxU2qyM/aMPw1k4p95XgnHMSdx8YwskFTMWkbjMrS6KiSlZeOUQXKLkQRqndwk6p6dAV27MdGE2xDuw0qcWujr7AlV+GDMGQJ0VYlKycdZwQou+AIRm7eOt2Le32YcZwsPdiX6zvgEPpwireRKvPTE7EFj74qWflmHCi7ME282o0d6voLCJZCY9McIHzcOASvHuuALtyFIRaqZOWKGVCWAZonRWBJVU4cQ08F7At1bXAcBxlsZxvanLACN1+JRgvO8j3ZcUarfKiMOHHp3+5TfcKGqy6cocED9kMcAr/2bid0W0RVPoKbE255vEjSfmWoPIf6XBZAWeYIJoGt/cQIHny6Ggrsc9hBP/GZOaBK2s6iClvwH9+RyZKK2VFWQBkFD642eQvB7sH/9LiFgV1ebIAjF43QN+QK+EpS5Y6NxeynMT/KEiijQjBJsW9/jGNvdAsdZlwN7W/B5aRKll86yhooyyhteUKhtj++2wH0Xm6qZPlUDFCW4VaTE2gmIFuQxT6X01ERCpUTsHB5oZHZnElIYA6ohDApqTmgc0AlJiBxcv8Drs2tYjwqYo0AAAAASUVORK5CYII=;rotation=-15;imageBackground=none;" vertex="1" parent="1">
          <mxGeometry x="292" y="259" width="47" height="47" as="geometry" />
        </mxCell>
        <mxCell id="UZAGVTF5EnCvgB7L0BSY-8" value="" style="ellipse;whiteSpace=wrap;html=1;aspect=fixed;fillColor=#000000;" vertex="1" parent="1">
          <mxGeometry x="311.5" y="279.17" width="6" height="6" as="geometry" />
        </mxCell>
        <mxCell id="UZAGVTF5EnCvgB7L0BSY-9" value="" style="endArrow=none;dashed=1;html=1;rounded=0;exitX=0;exitY=0.5;exitDx=0;exitDy=0;entryX=0.233;entryY=0.578;entryDx=0;entryDy=0;entryPerimeter=0;" edge="1" parent="1">
          <mxGeometry width="50" height="50" relative="1" as="geometry">
            <mxPoint x="276.5000000000023" y="252.1700000000002" as="sourcePoint" />
            <mxPoint x="584.0109229498212" y="72.02673889228072" as="targetPoint" />
          </mxGeometry>
        </mxCell>
        <mxCell id="UZAGVTF5EnCvgB7L0BSY-10" value="" style="endArrow=none;dashed=1;html=1;rounded=0;exitX=0;exitY=0.5;exitDx=0;exitDy=0;" edge="1" parent="1">
          <mxGeometry width="50" height="50" relative="1" as="geometry">
            <mxPoint x="274.5000000000023" y="255.1700000000002" as="sourcePoint" />
            <mxPoint x="611" y="78" as="targetPoint" />
          </mxGeometry>
        </mxCell>
        <mxCell id="UZAGVTF5EnCvgB7L0BSY-12" value="" style="endArrow=blockThin;html=1;rounded=0;exitX=0;exitY=0;exitDx=0;exitDy=0;fontColor=#FF0000;strokeColor=#FF0000;endFill=1;" edge="1" parent="1">
          <mxGeometry width="50" height="50" relative="1" as="geometry">
            <mxPoint x="312.37867965644205" y="282.04867965644223" as="sourcePoint" />
            <mxPoint x="387" y="243" as="targetPoint" />
          </mxGeometry>
        </mxCell>
        <mxCell id="UZAGVTF5EnCvgB7L0BSY-13" value="" style="endArrow=blockThin;html=1;rounded=0;exitX=1;exitY=0.5;exitDx=0;exitDy=0;fontColor=#FF0000;strokeColor=#FF0000;endFill=1;" edge="1" parent="1" source="UZAGVTF5EnCvgB7L0BSY-8">
          <mxGeometry width="50" height="50" relative="1" as="geometry">
            <mxPoint x="322.37867965644205" y="292.04867965644223" as="sourcePoint" />
            <mxPoint x="397" y="246" as="targetPoint" />
          </mxGeometry>
        </mxCell>
        <mxCell id="UZAGVTF5EnCvgB7L0BSY-14" value="" style="rounded=0;whiteSpace=wrap;html=1;rotation=15;" vertex="1" parent="1">
          <mxGeometry x="213.48000000000002" y="450.16999999999996" width="213" height="109" as="geometry" />
        </mxCell>
        <mxCell id="UZAGVTF5EnCvgB7L0BSY-15" value="" style="shape=image;verticalLabelPosition=bottom;labelBackgroundColor=default;verticalAlign=top;aspect=fixed;imageAspect=0;image=data:image/png,iVBORw0KGgoAAAANSUhEUgAAAFQAAABUCAYAAAAcaxDBAAAYhWlDQ1BJQ0MgUHJvZmlsZQAAWIWVeQk4Vl3X/z7nPvfIbZ5nmck8k3me5zGV2zzTbYoiIYkKGVJI4RENNAoJUSnJlFIqKTKUSoMp5DuGep73ef/X/7u+fV37nN9Ze+211l57WGedAwD3K0pERAjMAEBoWBTV3kRfwNXNXQA/DiCAAAJgA2IU78gIPVtbS4CW3/f/LHPPUG60PJFek/Xf7f/fwuTjG+kNAOSBYi+fSO9QFLcCgBR7R1CjAMCt0YVioyLWcBKKWaiogSjOW8P+G7hqDXtt4KZ1Hkd7AxT3AkCgpVCo/gDQvULpAjHe/qgcumW0jSnMJzAMAFZ05Dht7wCKDwDctijP1tDQ8DW8D8XiKH8EiitQrOb1D5n+/yHf6498CsX/D94Y13ohGAZGRoRQ4v6PrvnfS2hI9G8domilDaCa2q+NH/Xh8+BwizVMi+LpMC9rmzVfo3gh0GfD7wDApIBoU6cNfpjHO9IA9R864wCW86EYWqCYB8XGYSHWlpt0L79AYzMUoz6D9wRGmTmimAPF6b6RRg6bPGeo4fabuuA6P6qB3ib9AYW6rndN13B0sJPepvxvAb5mm/IxdPEBji4oJqFYOCbQ2RrFdCiWiQx2sNjk2RYfYGD9m4cabb9mvzCK7X3DTPQ35GNi/KjG9pv8GaGRv8eLORMQaGa9ia9GBTiabvgHc9ebsm4/OhZMr2+YntNvOb6Rrpa/x+Lja2i0MXbMpG+Yk8OmnIWIKH37jb4IKSLEdpMf2eIbYrJG34JipcgYh82+iHMUujg35CN+EVG2jht2IvFBFHPbDXuQbGAJDIAhEADRaPUC4SAIBHZP35xGnzZajAEFUIE/8AXSm5TfPVzWW8LQqwOIB59Q5Asi//TTX2/1BTEofeUPdeMqDfzWW2PWewSDcRSHAgsQgj5Hr/cK+6PNGYyhlMD/0k5Bqzdqbwha19r/3/Tf1L8peijFcpMS/VujAP1vTpwRzhBnijPGSSBciDaiiViiV120KiBqiPrvcfzNjx3H9mHfYZ9iR7AvdgUmU/9lpRUYQeUbb/rC65++QERRmcqIPqKFSkclI2wIF5BGlFA9eogOqlkZpRps2r3mFYF/yf6PEfxjNjb5iHJEmMhO1CWK/7snnSSd8h8pa77+p382bPX642+DPy3/1m/wD+/7oHeLf3Ni0jHXMB2YO5iHmCbMTSCAacHUY7owt9fwn9U1tr66fmuzX7cnGJUT+F/6KJs61zwZKXdBbkpueaMtyndP1NrGMwiPiKMG+gdECeih0cFXwCzMW2argIKcggIAa7Fm4/j6br8eQyC2nr9pFDSWqKFcJP2/aeHomVGTj26Zk3/TRNE9zakOwFV772hqzAYNWbtg0VOCHt1pnIAPCAFxdDwKQAVoAl1gBMyBDXAEbmAn6uUAdJ1TQSzYBw6ANJAJskE+OAVKQTmoApfAVXATNIE74D54BHrBU/ASXT3vwUcwA+bAEgRBeIgMMUOcED8kAklBCpAapA0ZQZaQPeQGeUL+UBgUDe2DUqBM6Dh0CjoLVUNXoAboDvQQ6oNeQG+hKegb9BPGwLQwC8wLi8KysBqsB1vAjvAO2B/eDcfDqfAxuBAugy/CdfAd+BH8FB6BP8KzGIChwbBhBDHSGDWMAcYG447xw1AxiZgMTAGmDFODaUTn+QlmBDONWURwCDMigEijK9gUcUK8kd1IInIEOYVUIXXIXeQJ8haZQX5hyVgerBRWA2uGdcX6Y2OxadgCbCX2BvYeupfeY+dwOBwbTgyniu5FN1wQbi/uCK4EV4trxfXhRnGzeDyeEy+F18Lb4Cn4KHwa/iT+Ir4F349/j18g0BD4CQoEY4I7IYyQTCggnCc0E/oJE4QlIgNRhKhBtCH6EOOIWcQKYiOxh/ieuERiJImRtEiOpCDSAVIhqYZ0j/SK9J2GhmYLjTqNHU0gTRJNIc1lmgc0b2kWaZloJWkNaD1oo2mP0Z6jbaV9QfudTCaLknXJ7uQo8jFyNbmdPExeoGOmk6Ezo/Oh209XRFdH10/3mZ5IL0KvR7+TPp6+gP4afQ/9NAORQZTBgIHCkMhQxNDAMMgwy8jMKM9owxjKeITxPONDxkkmPJMokxGTD1MqUzlTO9MoM4ZZiNmA2Zs5hbmC+R7zexYcixiLGUsQSybLJZZulhlWJlYlVmfWPaxFrLdZR9gwbKJsZmwhbFlsV9mesf1k52XXY/dlP8xew97PPs/BzaHL4cuRwVHL8ZTjJ6cApxFnMGcO503O11wIlySXHVcs12mue1zT3Czcmtze3BncV7mHeGAeSR57nr085TxdPLO8fLwmvBG8J3nbeaf52Ph0+YL48via+ab4mfm1+QP58/hb+D8IsAroCYQIFArcFZgR5BE0FYwWPCvYLbi0RWyL05bkLbVbXguRhNSE/ITyhNqEZoT5ha2E9wlfEB4SIYqoiQSInBDpEJkXFRN1ET0kelN0UoxDzEwsXuyC2CtxsriO+G7xMvEBCZyEmkSwRIlEryQsqSwZIFkk2SMFS6lIBUqVSPVtxW5V3xq2tWzroDSttJ50jPQF6bcybDKWMskyN2U+ywrLusvmyHbI/pJTlguRq5B7Kc8kby6fLN8o/01BUsFboUhhQJGsaKy4X7Fe8auSlJKv0mml58rMylbKh5TblFdUVFWoKjUqU6rCqp6qxaqDaixqtmpH1B6oY9X11ferN6kvaqhoRGlc1fiiKa0ZrHlec3Kb2DbfbRXbRrW2aFG0zmqNaAtoe2qf0R7REdSh6JTpvNMV0vXRrdSd0JPQC9K7qPdZX06fqn9Df95AwyDBoNUQY2himGHYbcRk5GR0ymjYeIuxv/EF4xkTZZO9Jq2mWFML0xzTQTNeM2+zarMZc1XzBPO7FrQWDhanLN5ZSlpSLRutYCtzq1yrV9Yi1mHWN22AjZlNrs1rWzHb3ba37HB2tnZFduP28vb77DscmB12OZx3mHPUd8xyfOkk7hTt1OZM7+zhXO0872LoctxlxFXWNcH1kRuXW6BbvTve3dm90n12u9H2/O3vPZQ90jye7RDbsWfHw51cO0N23t5Fv4uy65on1tPF87znMsWGUkaZ9TLzKvaa8TbwPuH90UfXJ89nylfL97jvhJ+W33G/SX8t/1z/qQCdgIKA6UCDwFOBX4NMg0qD5oNtgs8Fr4a4hNSGEkI9QxvCmMKCw+6G84XvCe+LkIpIixjZrbE7f/cM1YJaGQlF7oisj2JBX+q7osWjD0a/jdGOKYpZiHWOvbaHcU/Ynq44ybjDcRPxxvF/7UX2eu9t2ye478C+twl6CWcToUSvxLb9QvtT979PMkmqOkA6EHzgcbJc8vHkHykuKY2pvKlJqaMHTQ5eSKNLo6YNHtI8VJqOpAemdx9WPHzy8K8Mn4zOTLnMgszlI95HOo/KHy08unrM71h3lkrW6Wxcdlj2sxydnKrjjMfjj4/mWuXW5QnkZeT9yN+V/7BAqaD0BOlE9ImRQsvC+pPCJ7NPLp8KOPW0SL+otpin+HDxfIlPSf9p3dM1pbylmaU/zwSeeX7W5GxdmWhZQTmuPKZ8vMK5ouMvtb+qK7kqMytXzoWdG6myr7pbrVpdfZ7nfNYF+EL0hamLHhd7Lxleqq+Rrjlby1abeRlcjr784YrnlWdXLa62XVO7VnNd5HrxDeYbGXVQXVzdzM2AmyP1bvV9DeYNbY2ajTduydw61yTYVHSb9XZWM6k5tXm1Jb5ltjWidfqO/53Rtl1tL9td2wfu2t3tvmdx78F94/vtHXodLQ+0HjQ91HjY0KnWefORyqO6LuWuG4+VH9/oVumu61Htqe9V723s29bX3K/Tf+eJ4ZP7A2YDj55aP+175vTs+aDH4Mhzn+eTL0JefB2KGVp6mfQK+yrjNcPrgmGe4bI3Em9qR1RGbr81fNv1zuHdy1Hv0Y9jkWPL71PHyeMFE/wT1ZMKk01TxlO9H7Z/eP8x4uPSdNonxk/Fn8U/X/+i+6VrxnXm/Vfq19VvR75zfj/3Q+lH26zt7PBc6NzSfMYC50LVotpix0+XnxNLscv45cIViZXGXxa/Xq2Grq5GUKiU9VcBDFphPz8Avp0DgOwGADOat5G2b+SCmwWDvnzA6N0ZkoE+wncxKYgDVhcnhucicBD5SVo01rTB5Gy6BvppRmkmX+ZyllE2SfY4jhYuem4Xngre7/zbBFIFHwsxCtuLHBV9JA4kFCX9pE5s7ZSelxWXs5NPUrig+FQZVpFX3aGWoV6n8XYbWUtN21PnsO4VvVcGBEMVI2/jbJN602FzyELY0sQqyDrL5rrtc7sFBzZHRScb51CXo641bo/c326f8ZjfsbQLeJIonF7S3no+9r67/Hz9KQEOgduCBIKh4JGQltAzYSnhARG2u9WoApGEyC9Rz6KbY6pic/ckxoXEu+0126eVoJqosl89Se+ARbJLim9q1MGDaXmHKtKvHW7N6Mp8duTN0Yljn7K+Zc/mzB2fzZ3N+1mAnGAt3HrS5JR30f7iwpKa0y2lj84MnB0qGymfqvhRiTnHWiVZrX/e40LsxbxLV2v6ar9eYbyqeM3heuSN7Lrqm431dxraG1tv3Wq6cbu2ubqlvLXkTn5bRvu+u0H3HO6rdHB0LD4YedjTef9Re9edx03dtT2FvZF9Bv3k/idPigb8nio/wz4bHKx6HvNCdwg31IGuL+VXE69zhjWHR98cHdEc+fi29J39KGa0dsxpbPF93vjW8ZYJ+4mxyYNTslNjH6o+hk0rTs9+qv3s/YXxy40Z25nxr/u+sX+7/z3rR9gsZc4PXUdjP++tyKyurs+/EHQZDsIoYCaRK9gknCteiyBNFCOJ0WyhlSNr0NnRezMkMpYyNTNPsTKwqbFTONI5r3MN89DwKvJt508SOCvYsuWl0KwIjSi/mLK4mYSnZJxU7tYr0l0yk3KIvKDCNkV3pSjlTJUK1Qa1x+rvNH5sw2lxa8vrWOmG6GXpXzboNfxkTDDhNVUwMzJ3svC2DLPaY51ok2J70C7NPt0hw/GIU4Zzqkuca4Cbo7vhdh0P4x3uO2N35XteprR5dXrf87nhW+y3198lQC6QNnA6qDe4MaQ6tCgsKzw5grrbg6obyR+5FPU0+lJMWqzXHqM4uXjhvbz7OBNYExn24/bPJb070Jl8JSU/NfbgjjTzQ4bplocpGQcy/zpy/+jwsc9Zs9nzObPHv+fO5H3Kny74fGLhJMMp9aKw4sqS7tOjpVNn3p99U/aivK/iwV/NlU3nOqs+nRe8sONi8aUXtSyXra+ko6fX4g2ZOp+bRfX9jdhbSk27bh9srmxpam2+c74tuz3hbuy9pPtZHSUPyh+e7jz2KLrL4bF0N9I91HO1N7MvqN/uidGA0VO7Z16D0c9TXxwaSnjp98rgNdfr6eGGN4dGXN9KvyO8Gx9tHyt5v3tcd4J2YmCyfGr/h8CPPtMBn0I/R3yJmIn4Sv0W8z3uR+xs4JzJPP38tQWjhUeL7ouffvYu064Mrc+/FLgLWUDPYV8MDpOFSCE92HicLG4K/xchgChLXCR10pTSxpLt6RTo6ejnGF4wtjJVM+eyJLD6s9mza3FIcLJyLnNNcvfzNPPW8JXzFwkUCOZtyRJKE44RoYgaiQmILYh3SZRKRkqZbhWUhqWnZAZlH8g1yp9XKFRMUvJUVlfBqfSo5qu5qnOqv9Ao0fTZpqCF0xrWrtPJ0g3QM9QXNWAwBIbfjSaMn5ncMi0w8zUXMR+xKLS0scJbtVun2JjZcth+sGu2z3UIcNR0IjsNO19y2edq7sbq9sa9ans4Gv8Xd9zembTLwJPg2Ucp9gr23uZD6zPke85vt7+a/3JAS2BSkG4wCG4NORBqEIaE3Qs/GKEXsbD7AtUNjdnVUTZRP6ILY7bFDMcm7eHdczvOM54tfmjvhX0pCa6J4olz+9uTcg/4JxumSKZyHKRJA2k/Do2mPz5cm3Ekk3JE6Sj+6NCxy1kZ2cE5JseZjt/P3Z47nRefr1egfyL9JOFURtFYCedphVL1M+pnlctky8UrBP/irGQ8R6oiVtOjK0nrouelQzWXap9cXr4qfs39+vEbfTdZ6t0aihsHm7C3JZpNWrxa99853dbc/ubu6n3BDoMH/g+PdF559KxrpVuiZ3vvib7hJwoDR59+HnR43jAk+DL/tewburexY5mTcZ+sv80t2q3N/8Y3wbWCUwEgF80znY+idQqAnJtonnkLAHYSALZkABzVAXyoBsAmNQAKPvgnfmx8NaUHbIAfSAAlNNO0BO5o1rwHHEYzyougGfSDcbAMMUESkC6aH0ZCR9F88B40CkOwIKwP+8CH0CyvH/6JEcJYYeIxVZhBhIBoIKFIOfICy4S1QDOydhyE08Ul4drwWLw5Phv/nCBICCE0EPFEF2IV8SfJinSWNE9jTVNFi9B60baTRciHyZ/pHOma0EwnhwEw7GYYY3Rj7GEyZrrNrMZcx6LB0s5qzzrKFs2OYy/gEOWo57TmnORK55bnHuUp5fXik+Jb4L8vkC/os0VJCCf0UviaSJZoiJiFuJQEWWJG8qnUra2npRNlPGTV5VjkZuQfK5xXPKwUoGyuIqPKqrqq9kl9WKNfs3PbPa272h063bpDepP6c4bACIeecwRTghnRnNaCxVLQSsna2ibMNs+uyf69I9lJydnNJcH1jNtd9wkPmh1yO5137fOsoHR7LfgI+zr4HfRvCvgZZBB8MmQxzDu8f7cxtSlKKbo2VnrPlfhte3sTwvfzJD1Lzku1PDh3KO/w1ox7R3yPsWa9yXmc+zp/tVDglHqx5eldZ+LKzlQMnZOuPnNRrmbkytnrO2/SNNQ07WiRauO/Z/ygrIu2R7xvbiBnUPxF36vTb0686x/3nFr8xPTl4jfwQ25OfX51MeNn/dLA8q2V8l8Rq6rr5we0/s2BCXADUaAAdIAV8AChIBHkgArQAHrAe7ACsUGykDnkB6VAZdAd6B2MwGKwJUyFT8Ht8BcMD8YCsw9TixlDuBB7JBO5h4WwWti92FvYZZwOLgX3EM+Ad8P/hf9G0CPkEsaJmsRc4jTJGJ3zZRpXmutoJkylHSCrk8/Q0dDtoZugd6PvZjBmaGXUZmxhMmDqZHZgfo1mpj9Zs9gk2R6x7+Zg46jjtOMc54rjJnNX8OjyjPHm8Jnz0/G/FrgmeGxLoJC+MIfwR5HbotlifuL6EiKSTFKErVhpggydLJMcozxBflFhUnFQqVP5jsod1U61l+rfNOm2yWnZaQfqROlS9QL0XQ1MDNWNlIzVTExMd5klmp+16LCcsea2MbINRmNansMJx3ynPOczLi2uX92Vtyd5PN7JtyvKs8dLyNvPJ9/3hl+3/1jAUhBbsGKIY2hM2Knw1ogPVPZI46iY6HMxQ3sY4qzis/Y+TxBNTNg/esA/hSG1My0qHXf4UCZyJP0Yd1Z7TnKua77BCc2TmkWaJeqlEmeRsvsVMZXc525Xe11gvfi65t7lnquzN+Rv7mt41ETfbNhKbau8O9Wh//Bql3x3ce/r/h8DX59NPB8dmnz14w30ljTK8l54wnSqYFr1S8b3yvmQxe6l1OX2lR+/FtfnH0Z3PyPgA9JAG9gBP5AACsBl0AU+QERICrKCqFAh1Ap9gNlgQzgKroSHMIwYM0wqphWzgmgi8UgjsozVw2ZgB3ESuAO413htfBmBQAgnDBDViSUkmBREekpjSHOLVp32DtmWPE6XTC9I38rgwTDHmM0kzfSYOYyFzFLFqs/6ii2OnY+9m+MYpxeXPrckDwvPEu9rvnr+4wKhgpZb5IQ4hHHCiyJfRb+IfRdfkaSTEt6qK+0pkyRbIlcv/0ThuxKXsplKsmq7Oq2Gh+ZlLTz6rtqst0U/15DNqMbE3YzRvM/ylHW4rZO9gsOQk7tzl6up25Ptfh4LO1M8IUqE11MfVd9if2LAgSBScHmoVTiIuEkNj+KLbo+NjvPZ+zmxIinuwLPk5VT4ICGN4ZBieuThgUynI1PH0rNlcl7kpudrFnwtrD61s5hUcq5U9cztMp3y1r8MKzurbKsHLjhe7K0xrm24In71xHXCjYS65frDjaK3em8nt6i0TrUV37W5j3Tcehj5SKprrPt0r2s/y5P+p1mD5s9Xhy6+snk9+SZ6ZOVd8hjmffIEPJnyAfm4f/rzZ+MvcTMlX49+i/5u+H3+x/lZ69mXcwFzc/Mx81MLHgs9iwaLF36Sf0b87F9SXipc+rpstly2vLTiuHLpF+aX66+Lq9Cq0+r5tfmP9FNUWA8fEK0+ANjh1dXvogDgjwOwkrO6ulS2urpSjiYbrwBoDdn4z7QeaxgAKH6zhjolnyb9+x/Pxj+of+Qx/76D9Ui0rhWNRGtlLSqB/wGS8u+dg9nj8AAAAFZlWElmTU0AKgAAAAgAAYdpAAQAAAABAAAAGgAAAAAAA5KGAAcAAAASAAAARKACAAQAAAABAAAAVKADAAQAAAABAAAAVAAAAABBU0NJSQAAAFNjcmVlbnNob3RenayNAAAB1GlUWHRYTUw6Y29tLmFkb2JlLnhtcAAAAAAAPHg6eG1wbWV0YSB4bWxuczp4PSJhZG9iZTpuczptZXRhLyIgeDp4bXB0az0iWE1QIENvcmUgNi4wLjAiPgogICA8cmRmOlJERiB4bWxuczpyZGY9Imh0dHA6Ly93d3cudzMub3JnLzE5OTkvMDIvMjItcmRmLXN5bnRheC1ucyMiPgogICAgICA8cmRmOkRlc2NyaXB0aW9uIHJkZjphYm91dD0iIgogICAgICAgICAgICB4bWxuczpleGlmPSJodHRwOi8vbnMuYWRvYmUuY29tL2V4aWYvMS4wLyI+CiAgICAgICAgIDxleGlmOlBpeGVsWURpbWVuc2lvbj44NDwvZXhpZjpQaXhlbFlEaW1lbnNpb24+CiAgICAgICAgIDxleGlmOlBpeGVsWERpbWVuc2lvbj44NDwvZXhpZjpQaXhlbFhEaW1lbnNpb24+CiAgICAgICAgIDxleGlmOlVzZXJDb21tZW50PlNjcmVlbnNob3Q8L2V4aWY6VXNlckNvbW1lbnQ+CiAgICAgIDwvcmRmOkRlc2NyaXB0aW9uPgogICA8L3JkZjpSREY+CjwveDp4bXBtZXRhPgr/fMjhAAAKu0lEQVR4Ae2ca3BbxRXHj2RZsmVHfr8CSewYkvYLkEKJC4XOdDrtBFpKiEMJcZxkhhkGOp0y08JAialdWihp8wHiPEgnFFLHSZyHEzJNCQVmSMirIQbaNPGD4Gf8kmTLliVZL7vnXGl1FRdZK/vKutfymURXlq727v7uf8/unru7qnE0mDPJCKglS2kuIYHAHFCJhTAHNF6A7r9ghNueb4CNu1okLnJ0k1PJsVF68q9fQt2ZfnCP+drL/HQtlN+fDy89vCC6NCRIXVZAj14agMojbdAz4AK3dxw8njFIUKtAm6CGMXRO6XoNgs2Dip/KF6xsgD6xuwWOf2qGMVIJvmQZNFBZWgiXO22w/2w/WOweSBhXCWAz/GA3yRBszIEevGiGl+vboWfQBWoE6VWNw0N3ZsMrjxbeUAGrP+iGA2eNMGhzB8Cmp2hgA7qCFx+6+YZzY/lHTIFu/EsLnGgQVZmTlgh/WrsY7ixMDclk+wc9gmIHgsBmItj138uH3/wk9mBjArT2nBFePdoJvcOiKh++Kxt+v7owJMiJX+z4sAf2YcM1ESwp9oUYKnbGgZbvbIaTXwwIvpJGvQVpWtiMqly2KLQqJ8IM/nsngUUfax4RXUFWqgbW3RcbVzBjQA9cMEHV4XYwWt0BX1l6dw5UrloUzGfK79/8qBdqz/T9H9iy7+bBTDZeUQdqd47B+l1NcOrKUECV8zN1sHnNYrhjYcqUAYb6ISl2/7l+MOGNY72CbFTs4wh2JrpbUQVag61y1aE2sDi8AVX+rCQXKlYuDMVDss/Jx9YhWKoRAbDzEmHNPblRHSBEBSipsmxHE5xpElVZmJMEf3i0CG6PgionuwvbEOzB86jYYRFsDoJ97DsIdqX0AwTJge47b4RNB9pgeNSnSsARTtl9efDsg7Ht0mzD7tZhjA/0Y8+CKTYPwa5GsL+VEKxkQEmVa7Y1wvmW4YCvLM5Lhj9jC34rHuVi2/7ZDYf/ZboBbK4BwaIrqpQArCRA6zCDz9V+BTaESqMdQZU45n72gdiqcrKbWP1+Nxy9aBL6wsGKXVWSA1WPTN3HTwsoqXLt9kY42yyqckm+XhjtFOcmTVYe2Xy3FcEemwCWfGzp8hz43arIwU4ZaD0GMn655xo43D5VqtFXrsVRyq8fuEk2sCLJyOt+sME+VpuggpV3Z0N1eTF3UhEDJVWue7MJPrk6JESFKJixpEAv+MrF2JIr3d44ia7gUxNcH3DCOIYQVQi1d/tySNYmcBUtIqB1503wzN+u+QK/6Cs1eI0yVOWvVihTlZMR2rCrGc6haKjmtVeXgCEJ33CYhuMcIFWWbr0Kl65ZBVWOkyrn62FL2WIoyla+Kr+OwcIsHVxKVAtA7U6vdECv9tihZNPnwjW1GjXoNCp48vsF8PQP5n9dPmbNZzdl6AJlae5xQD6GFnksrEJfO94FXpoLgf++ebMetm64BfKw3zbbLT05AagmAqiEgAtvecM6hmUY7KVnOqTOKowMxQNMgqfTiWioJ8Nr4q9C/EKPCSdiNVdjA2R38SccIjnFfJyM/pOMSmyXEmhKUHfB5vIKF4mHl/w00Yf2WdzcRQ6r0JxUn79U4RNHi83DnbDST1yQJbYT1NnntbBAl84XAxutRidvuoo/L7hmjkpa5XXiCCGShJVOVIc+NEGlEorhclNrz2dhFTrPP0KgE+MJKOHTYGNMZnXyu7qwQKm7xMwVR608lTkt2ddN75eyURISxqkvZB3mUeEYLy+kUIrvur383UVRfpNQouEmmdPD70smSU4xXyXiRDUymrjGa1xAtf5Orhtnw8WTJWl9eBwRuDo+oKhQmk7oiuBOzQbwFLknG8aZf7zGBTTXoBXSi6eOPRWYaibVyQhcKD1OC28Gva8vGm/dJtZ2eHEmNf3nMS6gSX4fypsoz4WVcI4uqMtIQXYe4wKanOhTqCeCO8VzcbmfU5QrDrsbOmxc2eUCujDoMQdFr+PF9FgzfUFmDOFJqdD01ISAszXhzOF4sSSdrx9K5R3lDF1yKZTuFDOHi885s/OVfNT7Y8HkPXmD6yKpSUqeEhRxsnPeqUmSU8xXNDeLWauRb9jNBXRBpq8fSkHmSKLXLDNKPWbhYghmQzjHlce4gAY3SkYrf/SaJwNyPicl6EGdk3PYzQU0NSjh0QjGtXKGxZM3Cl3SzDwy3tAlF1Dq2FPwmk7mvVNCLmbBi84fIOm28NVMLqDEJck/ajCP8AcKZgFPSMbaSTFRG07H4TFuoAZcSUEWbwESDc6+I3NzxoK5ger8CbsiCb0IWVH2CwuQ8MaCuYEm+qt8JNFrZaP05T7V//jHKmW3iZJOTUoQgsyjnGPa2QCTypDhf1Bn5RzQcCuUTefjvVOzBSi18jT0HOP0oeJQIAwBevBPRttWUFyUdlqIB7ONjuE6Ai/uLsFXXm6FsgdWtIKYtwuhZOA2XLhWvrMJzjZZQB1BPIhboSxqT5AIqMHvW5QMLVTea84Y4Y33usCB7YUGG+NkrQqe+iHfjG1uoEsKxMjLf7ocUJAuTvcLlTGlfT6Iswt/gUuFPm+zCkNOWrBQcqsB9v38G0DzZHmMGyjNRqMkabxwpcsGdxWlQGaKOOWP52JyPmfP6X6oPnkd6Bm8CtuHefhg8kVcUbcRl4VHYtxA71+aBnrsOo2gb3n/8iA0tI3Aitsy4Ee3ZygabD+uUn6m5hr8u30koMp7lhhg79P8qgwGHtE6pcZeB3z0Xwuc+GwAzLgOnXoSGRgzVCrY13GRV82pXpxViAXB6kcLFSpwHUH5vbnBjCJ6HxFQlrLR6oFjl0xwBJcnDioQ7Jf9Dni+thUaccmQEJ5DmPdiDax5aim3r2QsJh6nBJQlQmDrcRnfUQKLm6goQbFb/nEd9p7u8wU7SJU4tHwJfeW6aaiS8aDjtICyhEwY0juEK3ppVS9Fo+QI9go+/t60vxWae0VVrliWCdvX3zJtVTIOkgFlCQ4gzAO4a8Ix3C1sCCdYyQXs5r93CTvmeCmUi6qkSWBVqxfB6m9ns6xLdpREoRNzY7F5oRb3+SBXYI0h2Muddqg42AotfY6Ar3zwW1nCcm3efuXEsoX7OypA2UUtdi/sxU2qyM/aMPw1k4p95XgnHMSdx8YwskFTMWkbjMrS6KiSlZeOUQXKLkQRqndwk6p6dAV27MdGE2xDuw0qcWujr7AlV+GDMGQJ0VYlKycdZwQou+AIRm7eOt2Le32YcZwsPdiX6zvgEPpwireRKvPTE7EFj74qWflmHCi7ME282o0d6voLCJZCY9McIHzcOASvHuuALtyFIRaqZOWKGVCWAZonRWBJVU4cQ08F7At1bXAcBxlsZxvanLACN1+JRgvO8j3ZcUarfKiMOHHp3+5TfcKGqy6cocED9kMcAr/2bid0W0RVPoKbE255vEjSfmWoPIf6XBZAWeYIJoGt/cQIHny6Ggrsc9hBP/GZOaBK2s6iClvwH9+RyZKK2VFWQBkFD642eQvB7sH/9LiFgV1ebIAjF43QN+QK+EpS5Y6NxeynMT/KEiijQjBJsW9/jGNvdAsdZlwN7W/B5aRKll86yhooyyhteUKhtj++2wH0Xm6qZPlUDFCW4VaTE2gmIFuQxT6X01ERCpUTsHB5oZHZnElIYA6ohDApqTmgc0AlJiBxcv8Drs2tYjwqYo0AAAAASUVORK5CYII=;rotation=-15;imageBackground=#E6D0DE;" vertex="1" parent="1">
          <mxGeometry x="127" y="532" width="47" height="47" as="geometry" />
        </mxCell>
        <mxCell id="UZAGVTF5EnCvgB7L0BSY-16" value="" style="shape=image;verticalLabelPosition=bottom;labelBackgroundColor=default;verticalAlign=top;aspect=fixed;imageAspect=0;image=data:image/png,iVBORw0KGgoAAAANSUhEUgAAAEgAAABICAYAAABV7bNHAAAAAXNSR0IArs4c6QAAAHhlWElmTU0AKgAAAAgABAEaAAUAAAABAAAAPgEbAAUAAAABAAAARgEoAAMAAAABAAIAAIdpAAQAAAABAAAATgAAAAAAAABIAAAAAQAAAEgAAAABAAOgAQADAAAAAQABAACgAgAEAAAAAQAAAEigAwAEAAAAAQAAAEgAAAAAo75y2AAAAAlwSFlzAAALEwAACxMBAJqcGAAABMBJREFUeAHtmFmIHUUUhuMSNyYYI24xihI1BndUkKgIbqCIBhWUEB/1XQTRKAYEUXzw1RfxwQURFwQVUcEXCREXgguaxEkc47hFMTGKxGRQvy/cHsqarntv93SuoufAR3dV9Tl16r9VXdV3zpywUCAUCAVCgVAgFAgFQoFQIBQIBUKBUCAUCAVCgVAgFAgFQoFQIBQIBUKB/4AC+7Qcw/74LYTjYQGMwb6wA7bCJHwDf8AozL7NZxEcBfPAvn+FbbAFvoYpaGTDCHQAEc+FC+B8OAOWwFzoZ7toHIcN8Bl83MNy40Tx0fxh7NscZGmvfBJX8+xn9rkRzON9eAfeg9+haCWBTsfjKrgSlsEh0JXtJJBJrgMTFcu5aIqhCOf1OKdXPohrV2Yua+ENeA0+hL52L62b4c8R8xv9rYFHenhv3ajzmKDPu2Ha8hlkQv93UwPfaXvMadzEdP4EPoCPwNk2Cb+AL8XD4Bg4AU6GU8H3xLGwN+xLgq7vMc51Ar6F7eDY5sEiWAxngcvVnPKJQdW09WsrTunvcV8JCtDG3OkugdXwAyh0G77DbxVcBIdCGzsCp1tBEUs5FOOWnC4vejRvWIjLJiglV6r/HJ+jm3dX9LipkINHlaLdTotLJU9ybtGjXcPVNX3kfeZld9UuTbHzPiyvHtSJO0nuOMinabvvh901/eT9VmWf1adLc4lW8aurY/+b1XXqCfifMLf1h8Ed5E5IzzsOoGubqgk4UVM3o8oXWKVoda0TcoZjg4oLa/q4K/G/p6Zdny5tjGDV+KrriryD6f0+aXCbzO3gvGKW5Wtq/J9P6p5J7qvbOp+qrc217tNkqNXjeaFStLoe2SaDPj7jWR+f1jzrOavq36tnri7N81oa3/sT8w7qZtCW/CHKnh26smUE8uCW2tNpoXf/RFZn8hdndbMpHp45+06azOqKRR9M1b22+GTzhhey2Dsp1/0A86n374o0j5cod2XXESiN7RfCDKubQT60Jnuyqxfk2cRdnsV+krKn69y2U/FYVukP5edCF+ZMTm1tWhh0fwsPpOp6xG97tK/62o8bv+HSuD9T7nc69hPlx8zHd9NsD66OxTGluVxPeWjz/x+/v9IAr1Nuu5v5Afh4Fs/Yd8Agu40H0jy8fwpKs39QPMfgWNKY7twHDnLM22/OghjwXViSPzigbMculTQh71+FYQf5bI2/S7PpD2bujiHPxbG2sofwyoPtou5ROG1ARA+XN4J/t+Yx1lPXZMk6o9fVxNlInR+dg5acuZqzuee5PEhd0fr+99Hz8lR7P9T92ib4NmyAbWCinplM6FLIt1Kq9vwvfBnXobdUnTDjvglnWsjsJ8pvgTvRVtgN/jXjjPFocArk5kf5ffBA3tCmfAVOX0CuftPyy8Ro+5+SeY9B3XJrmodjcUydmtN8FbglN01oMz4roCu7gUDO3qZ5mLtjcCx7zQy+El6BHVBK0iX3Ivgecul1bR4bPFM9By6xUh7maK7m3FiYYd5BxC2a76WlcBwsgCnwbLMJnDWu81GYefgpshjmgxuEon0FbhKjyoOuwkKBUCAUCAVCgVAgFAgFQoFQIBQIBUKBUCAUCAVCgVAgFAgFQoFQIBQIBf6FCvwFt9Lnr1bMg8sAAAAASUVORK5CYII=;rotation=20;" vertex="1" parent="1">
          <mxGeometry x="443" y="349" width="54" height="54" as="geometry" />
        </mxCell>
        <mxCell id="UZAGVTF5EnCvgB7L0BSY-17" value="" style="ellipse;whiteSpace=wrap;html=1;aspect=fixed;fillColor=#000000;" vertex="1" parent="1">
          <mxGeometry x="146.5" y="552.1700000000001" width="6" height="6" as="geometry" />
        </mxCell>
        <mxCell id="UZAGVTF5EnCvgB7L0BSY-18" value="" style="shape=image;verticalLabelPosition=bottom;labelBackgroundColor=default;verticalAlign=top;aspect=fixed;imageAspect=0;image=data:image/png,iVBORw0KGgoAAAANSUhEUgAAAFQAAABUCAYAAAAcaxDBAAAYhWlDQ1BJQ0MgUHJvZmlsZQAAWIWVeQk4Vl3X/z7nPvfIbZ5nmck8k3me5zGV2zzTbYoiIYkKGVJI4RENNAoJUSnJlFIqKTKUSoMp5DuGep73ef/X/7u+fV37nN9Ze+211l57WGedAwD3K0pERAjMAEBoWBTV3kRfwNXNXQA/DiCAAAJgA2IU78gIPVtbS4CW3/f/LHPPUG60PJFek/Xf7f/fwuTjG+kNAOSBYi+fSO9QFLcCgBR7R1CjAMCt0YVioyLWcBKKWaiogSjOW8P+G7hqDXtt4KZ1Hkd7AxT3AkCgpVCo/gDQvULpAjHe/qgcumW0jSnMJzAMAFZ05Dht7wCKDwDctijP1tDQ8DW8D8XiKH8EiitQrOb1D5n+/yHf6498CsX/D94Y13ohGAZGRoRQ4v6PrvnfS2hI9G8domilDaCa2q+NH/Xh8+BwizVMi+LpMC9rmzVfo3gh0GfD7wDApIBoU6cNfpjHO9IA9R864wCW86EYWqCYB8XGYSHWlpt0L79AYzMUoz6D9wRGmTmimAPF6b6RRg6bPGeo4fabuuA6P6qB3ib9AYW6rndN13B0sJPepvxvAb5mm/IxdPEBji4oJqFYOCbQ2RrFdCiWiQx2sNjk2RYfYGD9m4cabb9mvzCK7X3DTPQ35GNi/KjG9pv8GaGRv8eLORMQaGa9ia9GBTiabvgHc9ebsm4/OhZMr2+YntNvOb6Rrpa/x+Lja2i0MXbMpG+Yk8OmnIWIKH37jb4IKSLEdpMf2eIbYrJG34JipcgYh82+iHMUujg35CN+EVG2jht2IvFBFHPbDXuQbGAJDIAhEADRaPUC4SAIBHZP35xGnzZajAEFUIE/8AXSm5TfPVzWW8LQqwOIB59Q5Asi//TTX2/1BTEofeUPdeMqDfzWW2PWewSDcRSHAgsQgj5Hr/cK+6PNGYyhlMD/0k5Bqzdqbwha19r/3/Tf1L8peijFcpMS/VujAP1vTpwRzhBnijPGSSBciDaiiViiV120KiBqiPrvcfzNjx3H9mHfYZ9iR7AvdgUmU/9lpRUYQeUbb/rC65++QERRmcqIPqKFSkclI2wIF5BGlFA9eogOqlkZpRps2r3mFYF/yf6PEfxjNjb5iHJEmMhO1CWK/7snnSSd8h8pa77+p382bPX642+DPy3/1m/wD+/7oHeLf3Ni0jHXMB2YO5iHmCbMTSCAacHUY7owt9fwn9U1tr66fmuzX7cnGJUT+F/6KJs61zwZKXdBbkpueaMtyndP1NrGMwiPiKMG+gdECeih0cFXwCzMW2argIKcggIAa7Fm4/j6br8eQyC2nr9pFDSWqKFcJP2/aeHomVGTj26Zk3/TRNE9zakOwFV772hqzAYNWbtg0VOCHt1pnIAPCAFxdDwKQAVoAl1gBMyBDXAEbmAn6uUAdJ1TQSzYBw6ANJAJskE+OAVKQTmoApfAVXATNIE74D54BHrBU/ASXT3vwUcwA+bAEgRBeIgMMUOcED8kAklBCpAapA0ZQZaQPeQGeUL+UBgUDe2DUqBM6Dh0CjoLVUNXoAboDvQQ6oNeQG+hKegb9BPGwLQwC8wLi8KysBqsB1vAjvAO2B/eDcfDqfAxuBAugy/CdfAd+BH8FB6BP8KzGIChwbBhBDHSGDWMAcYG447xw1AxiZgMTAGmDFODaUTn+QlmBDONWURwCDMigEijK9gUcUK8kd1IInIEOYVUIXXIXeQJ8haZQX5hyVgerBRWA2uGdcX6Y2OxadgCbCX2BvYeupfeY+dwOBwbTgyniu5FN1wQbi/uCK4EV4trxfXhRnGzeDyeEy+F18Lb4Cn4KHwa/iT+Ir4F349/j18g0BD4CQoEY4I7IYyQTCggnCc0E/oJE4QlIgNRhKhBtCH6EOOIWcQKYiOxh/ieuERiJImRtEiOpCDSAVIhqYZ0j/SK9J2GhmYLjTqNHU0gTRJNIc1lmgc0b2kWaZloJWkNaD1oo2mP0Z6jbaV9QfudTCaLknXJ7uQo8jFyNbmdPExeoGOmk6Ezo/Oh209XRFdH10/3mZ5IL0KvR7+TPp6+gP4afQ/9NAORQZTBgIHCkMhQxNDAMMgwy8jMKM9owxjKeITxPONDxkkmPJMokxGTD1MqUzlTO9MoM4ZZiNmA2Zs5hbmC+R7zexYcixiLGUsQSybLJZZulhlWJlYlVmfWPaxFrLdZR9gwbKJsZmwhbFlsV9mesf1k52XXY/dlP8xew97PPs/BzaHL4cuRwVHL8ZTjJ6cApxFnMGcO503O11wIlySXHVcs12mue1zT3Czcmtze3BncV7mHeGAeSR57nr085TxdPLO8fLwmvBG8J3nbeaf52Ph0+YL48via+ab4mfm1+QP58/hb+D8IsAroCYQIFArcFZgR5BE0FYwWPCvYLbi0RWyL05bkLbVbXguRhNSE/ITyhNqEZoT5ha2E9wlfEB4SIYqoiQSInBDpEJkXFRN1ET0kelN0UoxDzEwsXuyC2CtxsriO+G7xMvEBCZyEmkSwRIlEryQsqSwZIFkk2SMFS6lIBUqVSPVtxW5V3xq2tWzroDSttJ50jPQF6bcybDKWMskyN2U+ywrLusvmyHbI/pJTlguRq5B7Kc8kby6fLN8o/01BUsFboUhhQJGsaKy4X7Fe8auSlJKv0mml58rMylbKh5TblFdUVFWoKjUqU6rCqp6qxaqDaixqtmpH1B6oY9X11ferN6kvaqhoRGlc1fiiKa0ZrHlec3Kb2DbfbRXbRrW2aFG0zmqNaAtoe2qf0R7REdSh6JTpvNMV0vXRrdSd0JPQC9K7qPdZX06fqn9Df95AwyDBoNUQY2himGHYbcRk5GR0ymjYeIuxv/EF4xkTZZO9Jq2mWFML0xzTQTNeM2+zarMZc1XzBPO7FrQWDhanLN5ZSlpSLRutYCtzq1yrV9Yi1mHWN22AjZlNrs1rWzHb3ba37HB2tnZFduP28vb77DscmB12OZx3mHPUd8xyfOkk7hTt1OZM7+zhXO0872LoctxlxFXWNcH1kRuXW6BbvTve3dm90n12u9H2/O3vPZQ90jye7RDbsWfHw51cO0N23t5Fv4uy65on1tPF87znMsWGUkaZ9TLzKvaa8TbwPuH90UfXJ89nylfL97jvhJ+W33G/SX8t/1z/qQCdgIKA6UCDwFOBX4NMg0qD5oNtgs8Fr4a4hNSGEkI9QxvCmMKCw+6G84XvCe+LkIpIixjZrbE7f/cM1YJaGQlF7oisj2JBX+q7osWjD0a/jdGOKYpZiHWOvbaHcU/Ynq44ybjDcRPxxvF/7UX2eu9t2ye478C+twl6CWcToUSvxLb9QvtT979PMkmqOkA6EHzgcbJc8vHkHykuKY2pvKlJqaMHTQ5eSKNLo6YNHtI8VJqOpAemdx9WPHzy8K8Mn4zOTLnMgszlI95HOo/KHy08unrM71h3lkrW6Wxcdlj2sxydnKrjjMfjj4/mWuXW5QnkZeT9yN+V/7BAqaD0BOlE9ImRQsvC+pPCJ7NPLp8KOPW0SL+otpin+HDxfIlPSf9p3dM1pbylmaU/zwSeeX7W5GxdmWhZQTmuPKZ8vMK5ouMvtb+qK7kqMytXzoWdG6myr7pbrVpdfZ7nfNYF+EL0hamLHhd7Lxleqq+Rrjlby1abeRlcjr784YrnlWdXLa62XVO7VnNd5HrxDeYbGXVQXVzdzM2AmyP1bvV9DeYNbY2ajTduydw61yTYVHSb9XZWM6k5tXm1Jb5ltjWidfqO/53Rtl1tL9td2wfu2t3tvmdx78F94/vtHXodLQ+0HjQ91HjY0KnWefORyqO6LuWuG4+VH9/oVumu61Htqe9V723s29bX3K/Tf+eJ4ZP7A2YDj55aP+175vTs+aDH4Mhzn+eTL0JefB2KGVp6mfQK+yrjNcPrgmGe4bI3Em9qR1RGbr81fNv1zuHdy1Hv0Y9jkWPL71PHyeMFE/wT1ZMKk01TxlO9H7Z/eP8x4uPSdNonxk/Fn8U/X/+i+6VrxnXm/Vfq19VvR75zfj/3Q+lH26zt7PBc6NzSfMYC50LVotpix0+XnxNLscv45cIViZXGXxa/Xq2Grq5GUKiU9VcBDFphPz8Avp0DgOwGADOat5G2b+SCmwWDvnzA6N0ZkoE+wncxKYgDVhcnhucicBD5SVo01rTB5Gy6BvppRmkmX+ZyllE2SfY4jhYuem4Xngre7/zbBFIFHwsxCtuLHBV9JA4kFCX9pE5s7ZSelxWXs5NPUrig+FQZVpFX3aGWoV6n8XYbWUtN21PnsO4VvVcGBEMVI2/jbJN602FzyELY0sQqyDrL5rrtc7sFBzZHRScb51CXo641bo/c326f8ZjfsbQLeJIonF7S3no+9r67/Hz9KQEOgduCBIKh4JGQltAzYSnhARG2u9WoApGEyC9Rz6KbY6pic/ckxoXEu+0126eVoJqosl89Se+ARbJLim9q1MGDaXmHKtKvHW7N6Mp8duTN0Yljn7K+Zc/mzB2fzZ3N+1mAnGAt3HrS5JR30f7iwpKa0y2lj84MnB0qGymfqvhRiTnHWiVZrX/e40LsxbxLV2v6ar9eYbyqeM3heuSN7Lrqm431dxraG1tv3Wq6cbu2ubqlvLXkTn5bRvu+u0H3HO6rdHB0LD4YedjTef9Re9edx03dtT2FvZF9Bv3k/idPigb8nio/wz4bHKx6HvNCdwg31IGuL+VXE69zhjWHR98cHdEc+fi29J39KGa0dsxpbPF93vjW8ZYJ+4mxyYNTslNjH6o+hk0rTs9+qv3s/YXxy40Z25nxr/u+sX+7/z3rR9gsZc4PXUdjP++tyKyurs+/EHQZDsIoYCaRK9gknCteiyBNFCOJ0WyhlSNr0NnRezMkMpYyNTNPsTKwqbFTONI5r3MN89DwKvJt508SOCvYsuWl0KwIjSi/mLK4mYSnZJxU7tYr0l0yk3KIvKDCNkV3pSjlTJUK1Qa1x+rvNH5sw2lxa8vrWOmG6GXpXzboNfxkTDDhNVUwMzJ3svC2DLPaY51ok2J70C7NPt0hw/GIU4Zzqkuca4Cbo7vhdh0P4x3uO2N35XteprR5dXrf87nhW+y3198lQC6QNnA6qDe4MaQ6tCgsKzw5grrbg6obyR+5FPU0+lJMWqzXHqM4uXjhvbz7OBNYExn24/bPJb070Jl8JSU/NfbgjjTzQ4bplocpGQcy/zpy/+jwsc9Zs9nzObPHv+fO5H3Kny74fGLhJMMp9aKw4sqS7tOjpVNn3p99U/aivK/iwV/NlU3nOqs+nRe8sONi8aUXtSyXra+ko6fX4g2ZOp+bRfX9jdhbSk27bh9srmxpam2+c74tuz3hbuy9pPtZHSUPyh+e7jz2KLrL4bF0N9I91HO1N7MvqN/uidGA0VO7Z16D0c9TXxwaSnjp98rgNdfr6eGGN4dGXN9KvyO8Gx9tHyt5v3tcd4J2YmCyfGr/h8CPPtMBn0I/R3yJmIn4Sv0W8z3uR+xs4JzJPP38tQWjhUeL7ouffvYu064Mrc+/FLgLWUDPYV8MDpOFSCE92HicLG4K/xchgChLXCR10pTSxpLt6RTo6ejnGF4wtjJVM+eyJLD6s9mza3FIcLJyLnNNcvfzNPPW8JXzFwkUCOZtyRJKE44RoYgaiQmILYh3SZRKRkqZbhWUhqWnZAZlH8g1yp9XKFRMUvJUVlfBqfSo5qu5qnOqv9Ao0fTZpqCF0xrWrtPJ0g3QM9QXNWAwBIbfjSaMn5ncMi0w8zUXMR+xKLS0scJbtVun2JjZcth+sGu2z3UIcNR0IjsNO19y2edq7sbq9sa9ans4Gv8Xd9zembTLwJPg2Ucp9gr23uZD6zPke85vt7+a/3JAS2BSkG4wCG4NORBqEIaE3Qs/GKEXsbD7AtUNjdnVUTZRP6ILY7bFDMcm7eHdczvOM54tfmjvhX0pCa6J4olz+9uTcg/4JxumSKZyHKRJA2k/Do2mPz5cm3Ekk3JE6Sj+6NCxy1kZ2cE5JseZjt/P3Z47nRefr1egfyL9JOFURtFYCedphVL1M+pnlctky8UrBP/irGQ8R6oiVtOjK0nrouelQzWXap9cXr4qfs39+vEbfTdZ6t0aihsHm7C3JZpNWrxa99853dbc/ubu6n3BDoMH/g+PdF559KxrpVuiZ3vvib7hJwoDR59+HnR43jAk+DL/tewburexY5mTcZ+sv80t2q3N/8Y3wbWCUwEgF80znY+idQqAnJtonnkLAHYSALZkABzVAXyoBsAmNQAKPvgnfmx8NaUHbIAfSAAlNNO0BO5o1rwHHEYzyougGfSDcbAMMUESkC6aH0ZCR9F88B40CkOwIKwP+8CH0CyvH/6JEcJYYeIxVZhBhIBoIKFIOfICy4S1QDOydhyE08Ul4drwWLw5Phv/nCBICCE0EPFEF2IV8SfJinSWNE9jTVNFi9B60baTRciHyZ/pHOma0EwnhwEw7GYYY3Rj7GEyZrrNrMZcx6LB0s5qzzrKFs2OYy/gEOWo57TmnORK55bnHuUp5fXik+Jb4L8vkC/os0VJCCf0UviaSJZoiJiFuJQEWWJG8qnUra2npRNlPGTV5VjkZuQfK5xXPKwUoGyuIqPKqrqq9kl9WKNfs3PbPa272h063bpDepP6c4bACIeecwRTghnRnNaCxVLQSsna2ibMNs+uyf69I9lJydnNJcH1jNtd9wkPmh1yO5137fOsoHR7LfgI+zr4HfRvCvgZZBB8MmQxzDu8f7cxtSlKKbo2VnrPlfhte3sTwvfzJD1Lzku1PDh3KO/w1ox7R3yPsWa9yXmc+zp/tVDglHqx5eldZ+LKzlQMnZOuPnNRrmbkytnrO2/SNNQ07WiRauO/Z/ygrIu2R7xvbiBnUPxF36vTb0686x/3nFr8xPTl4jfwQ25OfX51MeNn/dLA8q2V8l8Rq6rr5we0/s2BCXADUaAAdIAV8AChIBHkgArQAHrAe7ACsUGykDnkB6VAZdAd6B2MwGKwJUyFT8Ht8BcMD8YCsw9TixlDuBB7JBO5h4WwWti92FvYZZwOLgX3EM+Ad8P/hf9G0CPkEsaJmsRc4jTJGJ3zZRpXmutoJkylHSCrk8/Q0dDtoZugd6PvZjBmaGXUZmxhMmDqZHZgfo1mpj9Zs9gk2R6x7+Zg46jjtOMc54rjJnNX8OjyjPHm8Jnz0/G/FrgmeGxLoJC+MIfwR5HbotlifuL6EiKSTFKErVhpggydLJMcozxBflFhUnFQqVP5jsod1U61l+rfNOm2yWnZaQfqROlS9QL0XQ1MDNWNlIzVTExMd5klmp+16LCcsea2MbINRmNansMJx3ynPOczLi2uX92Vtyd5PN7JtyvKs8dLyNvPJ9/3hl+3/1jAUhBbsGKIY2hM2Knw1ogPVPZI46iY6HMxQ3sY4qzis/Y+TxBNTNg/esA/hSG1My0qHXf4UCZyJP0Yd1Z7TnKua77BCc2TmkWaJeqlEmeRsvsVMZXc525Xe11gvfi65t7lnquzN+Rv7mt41ETfbNhKbau8O9Wh//Bql3x3ce/r/h8DX59NPB8dmnz14w30ljTK8l54wnSqYFr1S8b3yvmQxe6l1OX2lR+/FtfnH0Z3PyPgA9JAG9gBP5AACsBl0AU+QERICrKCqFAh1Ap9gNlgQzgKroSHMIwYM0wqphWzgmgi8UgjsozVw2ZgB3ESuAO413htfBmBQAgnDBDViSUkmBREekpjSHOLVp32DtmWPE6XTC9I38rgwTDHmM0kzfSYOYyFzFLFqs/6ii2OnY+9m+MYpxeXPrckDwvPEu9rvnr+4wKhgpZb5IQ4hHHCiyJfRb+IfRdfkaSTEt6qK+0pkyRbIlcv/0ThuxKXsplKsmq7Oq2Gh+ZlLTz6rtqst0U/15DNqMbE3YzRvM/ylHW4rZO9gsOQk7tzl6up25Ptfh4LO1M8IUqE11MfVd9if2LAgSBScHmoVTiIuEkNj+KLbo+NjvPZ+zmxIinuwLPk5VT4ICGN4ZBieuThgUynI1PH0rNlcl7kpudrFnwtrD61s5hUcq5U9cztMp3y1r8MKzurbKsHLjhe7K0xrm24In71xHXCjYS65frDjaK3em8nt6i0TrUV37W5j3Tcehj5SKprrPt0r2s/y5P+p1mD5s9Xhy6+snk9+SZ6ZOVd8hjmffIEPJnyAfm4f/rzZ+MvcTMlX49+i/5u+H3+x/lZ69mXcwFzc/Mx81MLHgs9iwaLF36Sf0b87F9SXipc+rpstly2vLTiuHLpF+aX66+Lq9Cq0+r5tfmP9FNUWA8fEK0+ANjh1dXvogDgjwOwkrO6ulS2urpSjiYbrwBoDdn4z7QeaxgAKH6zhjolnyb9+x/Pxj+of+Qx/76D9Ui0rhWNRGtlLSqB/wGS8u+dg9nj8AAAAFZlWElmTU0AKgAAAAgAAYdpAAQAAAABAAAAGgAAAAAAA5KGAAcAAAASAAAARKACAAQAAAABAAAAVKADAAQAAAABAAAAVAAAAABBU0NJSQAAAFNjcmVlbnNob3RenayNAAAB1GlUWHRYTUw6Y29tLmFkb2JlLnhtcAAAAAAAPHg6eG1wbWV0YSB4bWxuczp4PSJhZG9iZTpuczptZXRhLyIgeDp4bXB0az0iWE1QIENvcmUgNi4wLjAiPgogICA8cmRmOlJERiB4bWxuczpyZGY9Imh0dHA6Ly93d3cudzMub3JnLzE5OTkvMDIvMjItcmRmLXN5bnRheC1ucyMiPgogICAgICA8cmRmOkRlc2NyaXB0aW9uIHJkZjphYm91dD0iIgogICAgICAgICAgICB4bWxuczpleGlmPSJodHRwOi8vbnMuYWRvYmUuY29tL2V4aWYvMS4wLyI+CiAgICAgICAgIDxleGlmOlBpeGVsWURpbWVuc2lvbj44NDwvZXhpZjpQaXhlbFlEaW1lbnNpb24+CiAgICAgICAgIDxleGlmOlBpeGVsWERpbWVuc2lvbj44NDwvZXhpZjpQaXhlbFhEaW1lbnNpb24+CiAgICAgICAgIDxleGlmOlVzZXJDb21tZW50PlNjcmVlbnNob3Q8L2V4aWY6VXNlckNvbW1lbnQ+CiAgICAgIDwvcmRmOkRlc2NyaXB0aW9uPgogICA8L3JkZjpSREY+CjwveDp4bXBtZXRhPgr/fMjhAAAKu0lEQVR4Ae2ca3BbxRXHj2RZsmVHfr8CSewYkvYLkEKJC4XOdDrtBFpKiEMJcZxkhhkGOp0y08JAialdWihp8wHiPEgnFFLHSZyHEzJNCQVmSMirIQbaNPGD4Gf8kmTLliVZL7vnXGl1FRdZK/vKutfymURXlq727v7uf8/unru7qnE0mDPJCKglS2kuIYHAHFCJhTAHNF6A7r9ghNueb4CNu1okLnJ0k1PJsVF68q9fQt2ZfnCP+drL/HQtlN+fDy89vCC6NCRIXVZAj14agMojbdAz4AK3dxw8njFIUKtAm6CGMXRO6XoNgs2Dip/KF6xsgD6xuwWOf2qGMVIJvmQZNFBZWgiXO22w/2w/WOweSBhXCWAz/GA3yRBszIEevGiGl+vboWfQBWoE6VWNw0N3ZsMrjxbeUAGrP+iGA2eNMGhzB8Cmp2hgA7qCFx+6+YZzY/lHTIFu/EsLnGgQVZmTlgh/WrsY7ixMDclk+wc9gmIHgsBmItj138uH3/wk9mBjArT2nBFePdoJvcOiKh++Kxt+v7owJMiJX+z4sAf2YcM1ESwp9oUYKnbGgZbvbIaTXwwIvpJGvQVpWtiMqly2KLQqJ8IM/nsngUUfax4RXUFWqgbW3RcbVzBjQA9cMEHV4XYwWt0BX1l6dw5UrloUzGfK79/8qBdqz/T9H9iy7+bBTDZeUQdqd47B+l1NcOrKUECV8zN1sHnNYrhjYcqUAYb6ISl2/7l+MOGNY72CbFTs4wh2JrpbUQVag61y1aE2sDi8AVX+rCQXKlYuDMVDss/Jx9YhWKoRAbDzEmHNPblRHSBEBSipsmxHE5xpElVZmJMEf3i0CG6PgionuwvbEOzB86jYYRFsDoJ97DsIdqX0AwTJge47b4RNB9pgeNSnSsARTtl9efDsg7Ht0mzD7tZhjA/0Y8+CKTYPwa5GsL+VEKxkQEmVa7Y1wvmW4YCvLM5Lhj9jC34rHuVi2/7ZDYf/ZboBbK4BwaIrqpQArCRA6zCDz9V+BTaESqMdQZU45n72gdiqcrKbWP1+Nxy9aBL6wsGKXVWSA1WPTN3HTwsoqXLt9kY42yyqckm+XhjtFOcmTVYe2Xy3FcEemwCWfGzp8hz43arIwU4ZaD0GMn655xo43D5VqtFXrsVRyq8fuEk2sCLJyOt+sME+VpuggpV3Z0N1eTF3UhEDJVWue7MJPrk6JESFKJixpEAv+MrF2JIr3d44ia7gUxNcH3DCOIYQVQi1d/tySNYmcBUtIqB1503wzN+u+QK/6Cs1eI0yVOWvVihTlZMR2rCrGc6haKjmtVeXgCEJ33CYhuMcIFWWbr0Kl65ZBVWOkyrn62FL2WIoyla+Kr+OwcIsHVxKVAtA7U6vdECv9tihZNPnwjW1GjXoNCp48vsF8PQP5n9dPmbNZzdl6AJlae5xQD6GFnksrEJfO94FXpoLgf++ebMetm64BfKw3zbbLT05AagmAqiEgAtvecM6hmUY7KVnOqTOKowMxQNMgqfTiWioJ8Nr4q9C/EKPCSdiNVdjA2R38SccIjnFfJyM/pOMSmyXEmhKUHfB5vIKF4mHl/w00Yf2WdzcRQ6r0JxUn79U4RNHi83DnbDST1yQJbYT1NnntbBAl84XAxutRidvuoo/L7hmjkpa5XXiCCGShJVOVIc+NEGlEorhclNrz2dhFTrPP0KgE+MJKOHTYGNMZnXyu7qwQKm7xMwVR608lTkt2ddN75eyURISxqkvZB3mUeEYLy+kUIrvur383UVRfpNQouEmmdPD70smSU4xXyXiRDUymrjGa1xAtf5Orhtnw8WTJWl9eBwRuDo+oKhQmk7oiuBOzQbwFLknG8aZf7zGBTTXoBXSi6eOPRWYaibVyQhcKD1OC28Gva8vGm/dJtZ2eHEmNf3nMS6gSX4fypsoz4WVcI4uqMtIQXYe4wKanOhTqCeCO8VzcbmfU5QrDrsbOmxc2eUCujDoMQdFr+PF9FgzfUFmDOFJqdD01ISAszXhzOF4sSSdrx9K5R3lDF1yKZTuFDOHi885s/OVfNT7Y8HkPXmD6yKpSUqeEhRxsnPeqUmSU8xXNDeLWauRb9jNBXRBpq8fSkHmSKLXLDNKPWbhYghmQzjHlce4gAY3SkYrf/SaJwNyPicl6EGdk3PYzQU0NSjh0QjGtXKGxZM3Cl3SzDwy3tAlF1Dq2FPwmk7mvVNCLmbBi84fIOm28NVMLqDEJck/ajCP8AcKZgFPSMbaSTFRG07H4TFuoAZcSUEWbwESDc6+I3NzxoK5ger8CbsiCb0IWVH2CwuQ8MaCuYEm+qt8JNFrZaP05T7V//jHKmW3iZJOTUoQgsyjnGPa2QCTypDhf1Bn5RzQcCuUTefjvVOzBSi18jT0HOP0oeJQIAwBevBPRttWUFyUdlqIB7ONjuE6Ai/uLsFXXm6FsgdWtIKYtwuhZOA2XLhWvrMJzjZZQB1BPIhboSxqT5AIqMHvW5QMLVTea84Y4Y33usCB7YUGG+NkrQqe+iHfjG1uoEsKxMjLf7ocUJAuTvcLlTGlfT6Iswt/gUuFPm+zCkNOWrBQcqsB9v38G0DzZHmMGyjNRqMkabxwpcsGdxWlQGaKOOWP52JyPmfP6X6oPnkd6Bm8CtuHefhg8kVcUbcRl4VHYtxA71+aBnrsOo2gb3n/8iA0tI3Aitsy4Ee3ZygabD+uUn6m5hr8u30koMp7lhhg79P8qgwGHtE6pcZeB3z0Xwuc+GwAzLgOnXoSGRgzVCrY13GRV82pXpxViAXB6kcLFSpwHUH5vbnBjCJ6HxFQlrLR6oFjl0xwBJcnDioQ7Jf9Dni+thUaccmQEJ5DmPdiDax5aim3r2QsJh6nBJQlQmDrcRnfUQKLm6goQbFb/nEd9p7u8wU7SJU4tHwJfeW6aaiS8aDjtICyhEwY0juEK3ppVS9Fo+QI9go+/t60vxWae0VVrliWCdvX3zJtVTIOkgFlCQ4gzAO4a8Ix3C1sCCdYyQXs5r93CTvmeCmUi6qkSWBVqxfB6m9ns6xLdpREoRNzY7F5oRb3+SBXYI0h2Muddqg42AotfY6Ar3zwW1nCcm3efuXEsoX7OypA2UUtdi/sxU2qyM/aMPw1k4p95XgnHMSdx8YwskFTMWkbjMrS6KiSlZeOUQXKLkQRqndwk6p6dAV27MdGE2xDuw0qcWujr7AlV+GDMGQJ0VYlKycdZwQou+AIRm7eOt2Le32YcZwsPdiX6zvgEPpwireRKvPTE7EFj74qWflmHCi7ME282o0d6voLCJZCY9McIHzcOASvHuuALtyFIRaqZOWKGVCWAZonRWBJVU4cQ08F7At1bXAcBxlsZxvanLACN1+JRgvO8j3ZcUarfKiMOHHp3+5TfcKGqy6cocED9kMcAr/2bid0W0RVPoKbE255vEjSfmWoPIf6XBZAWeYIJoGt/cQIHny6Ggrsc9hBP/GZOaBK2s6iClvwH9+RyZKK2VFWQBkFD642eQvB7sH/9LiFgV1ebIAjF43QN+QK+EpS5Y6NxeynMT/KEiijQjBJsW9/jGNvdAsdZlwN7W/B5aRKll86yhooyyhteUKhtj++2wH0Xm6qZPlUDFCW4VaTE2gmIFuQxT6X01ERCpUTsHB5oZHZnElIYA6ohDApqTmgc0AlJiBxcv8Drs2tYjwqYo0AAAAASUVORK5CYII=;rotation=-15;imageBackground=none;" vertex="1" parent="1">
          <mxGeometry x="164" y="562" width="47" height="47" as="geometry" />
        </mxCell>
        <mxCell id="UZAGVTF5EnCvgB7L0BSY-19" value="" style="ellipse;whiteSpace=wrap;html=1;aspect=fixed;fillColor=#000000;" vertex="1" parent="1">
          <mxGeometry x="183.5" y="582.1700000000001" width="6" height="6" as="geometry" />
        </mxCell>
        <mxCell id="UZAGVTF5EnCvgB7L0BSY-20" value="" style="endArrow=none;dashed=1;html=1;rounded=0;exitX=0;exitY=0.5;exitDx=0;exitDy=0;entryX=0.233;entryY=0.578;entryDx=0;entryDy=0;entryPerimeter=0;" edge="1" parent="1">
          <mxGeometry width="50" height="50" relative="1" as="geometry">
            <mxPoint x="148.50000000000227" y="555.1700000000002" as="sourcePoint" />
            <mxPoint x="456.0109229498212" y="375.0267388922807" as="targetPoint" />
          </mxGeometry>
        </mxCell>
        <mxCell id="UZAGVTF5EnCvgB7L0BSY-21" value="" style="endArrow=none;dashed=1;html=1;rounded=0;exitX=0;exitY=0.5;exitDx=0;exitDy=0;" edge="1" parent="1">
          <mxGeometry width="50" height="50" relative="1" as="geometry">
            <mxPoint x="146.5000000000024" y="558.1700000000002" as="sourcePoint" />
            <mxPoint x="483" y="380.99999999999994" as="targetPoint" />
          </mxGeometry>
        </mxCell>
        <mxCell id="UZAGVTF5EnCvgB7L0BSY-22" value="" style="endArrow=blockThin;html=1;rounded=0;exitX=0;exitY=0;exitDx=0;exitDy=0;fontColor=#FF0000;strokeColor=#FF0000;endFill=1;" edge="1" parent="1">
          <mxGeometry width="50" height="50" relative="1" as="geometry">
            <mxPoint x="184.37867965644193" y="585.0486796564422" as="sourcePoint" />
            <mxPoint x="259" y="546" as="targetPoint" />
          </mxGeometry>
        </mxCell>
        <mxCell id="UZAGVTF5EnCvgB7L0BSY-23" value="" style="endArrow=blockThin;html=1;rounded=0;exitX=1;exitY=0.5;exitDx=0;exitDy=0;fontColor=#FF0000;strokeColor=#FF0000;endFill=1;" edge="1" parent="1" source="UZAGVTF5EnCvgB7L0BSY-19">
          <mxGeometry width="50" height="50" relative="1" as="geometry">
            <mxPoint x="194.37867965644205" y="595.0486796564422" as="sourcePoint" />
            <mxPoint x="269" y="549" as="targetPoint" />
          </mxGeometry>
        </mxCell>
        <mxCell id="UZAGVTF5EnCvgB7L0BSY-24" value="" style="endArrow=blockThin;html=1;rounded=0;fontColor=#FF0000;strokeColor=#FF0000;endFill=1;" edge="1" parent="1">
          <mxGeometry width="50" height="50" relative="1" as="geometry">
            <mxPoint x="259" y="544" as="sourcePoint" />
            <mxPoint x="326" y="450" as="targetPoint" />
          </mxGeometry>
        </mxCell>
        <mxCell id="UZAGVTF5EnCvgB7L0BSY-25" value="" style="endArrow=blockThin;html=1;rounded=0;fontColor=#FF0000;strokeColor=#FF0000;endFill=1;" edge="1" parent="1">
          <mxGeometry width="50" height="50" relative="1" as="geometry">
            <mxPoint x="269" y="548" as="sourcePoint" />
            <mxPoint x="345" y="454" as="targetPoint" />
          </mxGeometry>
        </mxCell>
        <mxCell id="UZAGVTF5EnCvgB7L0BSY-26" value="" style="endArrow=blockThin;html=1;rounded=0;fontColor=#FF0000;strokeColor=#FF0000;endFill=1;" edge="1" parent="1">
          <mxGeometry width="50" height="50" relative="1" as="geometry">
            <mxPoint x="326" y="451" as="sourcePoint" />
            <mxPoint x="455" y="377" as="targetPoint" />
          </mxGeometry>
        </mxCell>
        <mxCell id="UZAGVTF5EnCvgB7L0BSY-27" value="" style="endArrow=blockThin;html=1;rounded=0;fontColor=#FF0000;strokeColor=#FF0000;endFill=1;exitX=0.551;exitY=0.009;exitDx=0;exitDy=0;exitPerimeter=0;" edge="1" parent="1">
          <mxGeometry width="50" height="50" relative="1" as="geometry">
            <mxPoint x="343.3245887258199" y="454.7861669897841" as="sourcePoint" />
            <mxPoint x="483" y="381" as="targetPoint" />
          </mxGeometry>
        </mxCell>
        <mxCell id="UZAGVTF5EnCvgB7L0BSY-41" value="" style="rounded=0;whiteSpace=wrap;html=1;rotation=15;" vertex="1" parent="1">
          <mxGeometry x="613.48" y="463.16999999999996" width="213" height="109" as="geometry" />
        </mxCell>
        <mxCell id="UZAGVTF5EnCvgB7L0BSY-42" value="" style="shape=image;verticalLabelPosition=bottom;labelBackgroundColor=default;verticalAlign=top;aspect=fixed;imageAspect=0;image=data:image/png,iVBORw0KGgoAAAANSUhEUgAAAFQAAABUCAYAAAAcaxDBAAAYhWlDQ1BJQ0MgUHJvZmlsZQAAWIWVeQk4Vl3X/z7nPvfIbZ5nmck8k3me5zGV2zzTbYoiIYkKGVJI4RENNAoJUSnJlFIqKTKUSoMp5DuGep73ef/X/7u+fV37nN9Ze+211l57WGedAwD3K0pERAjMAEBoWBTV3kRfwNXNXQA/DiCAAAJgA2IU78gIPVtbS4CW3/f/LHPPUG60PJFek/Xf7f/fwuTjG+kNAOSBYi+fSO9QFLcCgBR7R1CjAMCt0YVioyLWcBKKWaiogSjOW8P+G7hqDXtt4KZ1Hkd7AxT3AkCgpVCo/gDQvULpAjHe/qgcumW0jSnMJzAMAFZ05Dht7wCKDwDctijP1tDQ8DW8D8XiKH8EiitQrOb1D5n+/yHf6498CsX/D94Y13ohGAZGRoRQ4v6PrvnfS2hI9G8domilDaCa2q+NH/Xh8+BwizVMi+LpMC9rmzVfo3gh0GfD7wDApIBoU6cNfpjHO9IA9R864wCW86EYWqCYB8XGYSHWlpt0L79AYzMUoz6D9wRGmTmimAPF6b6RRg6bPGeo4fabuuA6P6qB3ib9AYW6rndN13B0sJPepvxvAb5mm/IxdPEBji4oJqFYOCbQ2RrFdCiWiQx2sNjk2RYfYGD9m4cabb9mvzCK7X3DTPQ35GNi/KjG9pv8GaGRv8eLORMQaGa9ia9GBTiabvgHc9ebsm4/OhZMr2+YntNvOb6Rrpa/x+Lja2i0MXbMpG+Yk8OmnIWIKH37jb4IKSLEdpMf2eIbYrJG34JipcgYh82+iHMUujg35CN+EVG2jht2IvFBFHPbDXuQbGAJDIAhEADRaPUC4SAIBHZP35xGnzZajAEFUIE/8AXSm5TfPVzWW8LQqwOIB59Q5Asi//TTX2/1BTEofeUPdeMqDfzWW2PWewSDcRSHAgsQgj5Hr/cK+6PNGYyhlMD/0k5Bqzdqbwha19r/3/Tf1L8peijFcpMS/VujAP1vTpwRzhBnijPGSSBciDaiiViiV120KiBqiPrvcfzNjx3H9mHfYZ9iR7AvdgUmU/9lpRUYQeUbb/rC65++QERRmcqIPqKFSkclI2wIF5BGlFA9eogOqlkZpRps2r3mFYF/yf6PEfxjNjb5iHJEmMhO1CWK/7snnSSd8h8pa77+p382bPX642+DPy3/1m/wD+/7oHeLf3Ni0jHXMB2YO5iHmCbMTSCAacHUY7owt9fwn9U1tr66fmuzX7cnGJUT+F/6KJs61zwZKXdBbkpueaMtyndP1NrGMwiPiKMG+gdECeih0cFXwCzMW2argIKcggIAa7Fm4/j6br8eQyC2nr9pFDSWqKFcJP2/aeHomVGTj26Zk3/TRNE9zakOwFV772hqzAYNWbtg0VOCHt1pnIAPCAFxdDwKQAVoAl1gBMyBDXAEbmAn6uUAdJ1TQSzYBw6ANJAJskE+OAVKQTmoApfAVXATNIE74D54BHrBU/ASXT3vwUcwA+bAEgRBeIgMMUOcED8kAklBCpAapA0ZQZaQPeQGeUL+UBgUDe2DUqBM6Dh0CjoLVUNXoAboDvQQ6oNeQG+hKegb9BPGwLQwC8wLi8KysBqsB1vAjvAO2B/eDcfDqfAxuBAugy/CdfAd+BH8FB6BP8KzGIChwbBhBDHSGDWMAcYG447xw1AxiZgMTAGmDFODaUTn+QlmBDONWURwCDMigEijK9gUcUK8kd1IInIEOYVUIXXIXeQJ8haZQX5hyVgerBRWA2uGdcX6Y2OxadgCbCX2BvYeupfeY+dwOBwbTgyniu5FN1wQbi/uCK4EV4trxfXhRnGzeDyeEy+F18Lb4Cn4KHwa/iT+Ir4F349/j18g0BD4CQoEY4I7IYyQTCggnCc0E/oJE4QlIgNRhKhBtCH6EOOIWcQKYiOxh/ieuERiJImRtEiOpCDSAVIhqYZ0j/SK9J2GhmYLjTqNHU0gTRJNIc1lmgc0b2kWaZloJWkNaD1oo2mP0Z6jbaV9QfudTCaLknXJ7uQo8jFyNbmdPExeoGOmk6Ezo/Oh209XRFdH10/3mZ5IL0KvR7+TPp6+gP4afQ/9NAORQZTBgIHCkMhQxNDAMMgwy8jMKM9owxjKeITxPONDxkkmPJMokxGTD1MqUzlTO9MoM4ZZiNmA2Zs5hbmC+R7zexYcixiLGUsQSybLJZZulhlWJlYlVmfWPaxFrLdZR9gwbKJsZmwhbFlsV9mesf1k52XXY/dlP8xew97PPs/BzaHL4cuRwVHL8ZTjJ6cApxFnMGcO503O11wIlySXHVcs12mue1zT3Czcmtze3BncV7mHeGAeSR57nr085TxdPLO8fLwmvBG8J3nbeaf52Ph0+YL48via+ab4mfm1+QP58/hb+D8IsAroCYQIFArcFZgR5BE0FYwWPCvYLbi0RWyL05bkLbVbXguRhNSE/ITyhNqEZoT5ha2E9wlfEB4SIYqoiQSInBDpEJkXFRN1ET0kelN0UoxDzEwsXuyC2CtxsriO+G7xMvEBCZyEmkSwRIlEryQsqSwZIFkk2SMFS6lIBUqVSPVtxW5V3xq2tWzroDSttJ50jPQF6bcybDKWMskyN2U+ywrLusvmyHbI/pJTlguRq5B7Kc8kby6fLN8o/01BUsFboUhhQJGsaKy4X7Fe8auSlJKv0mml58rMylbKh5TblFdUVFWoKjUqU6rCqp6qxaqDaixqtmpH1B6oY9X11ferN6kvaqhoRGlc1fiiKa0ZrHlec3Kb2DbfbRXbRrW2aFG0zmqNaAtoe2qf0R7REdSh6JTpvNMV0vXRrdSd0JPQC9K7qPdZX06fqn9Df95AwyDBoNUQY2himGHYbcRk5GR0ymjYeIuxv/EF4xkTZZO9Jq2mWFML0xzTQTNeM2+zarMZc1XzBPO7FrQWDhanLN5ZSlpSLRutYCtzq1yrV9Yi1mHWN22AjZlNrs1rWzHb3ba37HB2tnZFduP28vb77DscmB12OZx3mHPUd8xyfOkk7hTt1OZM7+zhXO0872LoctxlxFXWNcH1kRuXW6BbvTve3dm90n12u9H2/O3vPZQ90jye7RDbsWfHw51cO0N23t5Fv4uy65on1tPF87znMsWGUkaZ9TLzKvaa8TbwPuH90UfXJ89nylfL97jvhJ+W33G/SX8t/1z/qQCdgIKA6UCDwFOBX4NMg0qD5oNtgs8Fr4a4hNSGEkI9QxvCmMKCw+6G84XvCe+LkIpIixjZrbE7f/cM1YJaGQlF7oisj2JBX+q7osWjD0a/jdGOKYpZiHWOvbaHcU/Ynq44ybjDcRPxxvF/7UX2eu9t2ye478C+twl6CWcToUSvxLb9QvtT979PMkmqOkA6EHzgcbJc8vHkHykuKY2pvKlJqaMHTQ5eSKNLo6YNHtI8VJqOpAemdx9WPHzy8K8Mn4zOTLnMgszlI95HOo/KHy08unrM71h3lkrW6Wxcdlj2sxydnKrjjMfjj4/mWuXW5QnkZeT9yN+V/7BAqaD0BOlE9ImRQsvC+pPCJ7NPLp8KOPW0SL+otpin+HDxfIlPSf9p3dM1pbylmaU/zwSeeX7W5GxdmWhZQTmuPKZ8vMK5ouMvtb+qK7kqMytXzoWdG6myr7pbrVpdfZ7nfNYF+EL0hamLHhd7Lxleqq+Rrjlby1abeRlcjr784YrnlWdXLa62XVO7VnNd5HrxDeYbGXVQXVzdzM2AmyP1bvV9DeYNbY2ajTduydw61yTYVHSb9XZWM6k5tXm1Jb5ltjWidfqO/53Rtl1tL9td2wfu2t3tvmdx78F94/vtHXodLQ+0HjQ91HjY0KnWefORyqO6LuWuG4+VH9/oVumu61Htqe9V723s29bX3K/Tf+eJ4ZP7A2YDj55aP+175vTs+aDH4Mhzn+eTL0JefB2KGVp6mfQK+yrjNcPrgmGe4bI3Em9qR1RGbr81fNv1zuHdy1Hv0Y9jkWPL71PHyeMFE/wT1ZMKk01TxlO9H7Z/eP8x4uPSdNonxk/Fn8U/X/+i+6VrxnXm/Vfq19VvR75zfj/3Q+lH26zt7PBc6NzSfMYC50LVotpix0+XnxNLscv45cIViZXGXxa/Xq2Grq5GUKiU9VcBDFphPz8Avp0DgOwGADOat5G2b+SCmwWDvnzA6N0ZkoE+wncxKYgDVhcnhucicBD5SVo01rTB5Gy6BvppRmkmX+ZyllE2SfY4jhYuem4Xngre7/zbBFIFHwsxCtuLHBV9JA4kFCX9pE5s7ZSelxWXs5NPUrig+FQZVpFX3aGWoV6n8XYbWUtN21PnsO4VvVcGBEMVI2/jbJN602FzyELY0sQqyDrL5rrtc7sFBzZHRScb51CXo641bo/c326f8ZjfsbQLeJIonF7S3no+9r67/Hz9KQEOgduCBIKh4JGQltAzYSnhARG2u9WoApGEyC9Rz6KbY6pic/ckxoXEu+0126eVoJqosl89Se+ARbJLim9q1MGDaXmHKtKvHW7N6Mp8duTN0Yljn7K+Zc/mzB2fzZ3N+1mAnGAt3HrS5JR30f7iwpKa0y2lj84MnB0qGymfqvhRiTnHWiVZrX/e40LsxbxLV2v6ar9eYbyqeM3heuSN7Lrqm431dxraG1tv3Wq6cbu2ubqlvLXkTn5bRvu+u0H3HO6rdHB0LD4YedjTef9Re9edx03dtT2FvZF9Bv3k/idPigb8nio/wz4bHKx6HvNCdwg31IGuL+VXE69zhjWHR98cHdEc+fi29J39KGa0dsxpbPF93vjW8ZYJ+4mxyYNTslNjH6o+hk0rTs9+qv3s/YXxy40Z25nxr/u+sX+7/z3rR9gsZc4PXUdjP++tyKyurs+/EHQZDsIoYCaRK9gknCteiyBNFCOJ0WyhlSNr0NnRezMkMpYyNTNPsTKwqbFTONI5r3MN89DwKvJt508SOCvYsuWl0KwIjSi/mLK4mYSnZJxU7tYr0l0yk3KIvKDCNkV3pSjlTJUK1Qa1x+rvNH5sw2lxa8vrWOmG6GXpXzboNfxkTDDhNVUwMzJ3svC2DLPaY51ok2J70C7NPt0hw/GIU4Zzqkuca4Cbo7vhdh0P4x3uO2N35XteprR5dXrf87nhW+y3198lQC6QNnA6qDe4MaQ6tCgsKzw5grrbg6obyR+5FPU0+lJMWqzXHqM4uXjhvbz7OBNYExn24/bPJb070Jl8JSU/NfbgjjTzQ4bplocpGQcy/zpy/+jwsc9Zs9nzObPHv+fO5H3Kny74fGLhJMMp9aKw4sqS7tOjpVNn3p99U/aivK/iwV/NlU3nOqs+nRe8sONi8aUXtSyXra+ko6fX4g2ZOp+bRfX9jdhbSk27bh9srmxpam2+c74tuz3hbuy9pPtZHSUPyh+e7jz2KLrL4bF0N9I91HO1N7MvqN/uidGA0VO7Z16D0c9TXxwaSnjp98rgNdfr6eGGN4dGXN9KvyO8Gx9tHyt5v3tcd4J2YmCyfGr/h8CPPtMBn0I/R3yJmIn4Sv0W8z3uR+xs4JzJPP38tQWjhUeL7ouffvYu064Mrc+/FLgLWUDPYV8MDpOFSCE92HicLG4K/xchgChLXCR10pTSxpLt6RTo6ejnGF4wtjJVM+eyJLD6s9mza3FIcLJyLnNNcvfzNPPW8JXzFwkUCOZtyRJKE44RoYgaiQmILYh3SZRKRkqZbhWUhqWnZAZlH8g1yp9XKFRMUvJUVlfBqfSo5qu5qnOqv9Ao0fTZpqCF0xrWrtPJ0g3QM9QXNWAwBIbfjSaMn5ncMi0w8zUXMR+xKLS0scJbtVun2JjZcth+sGu2z3UIcNR0IjsNO19y2edq7sbq9sa9ans4Gv8Xd9zembTLwJPg2Ucp9gr23uZD6zPke85vt7+a/3JAS2BSkG4wCG4NORBqEIaE3Qs/GKEXsbD7AtUNjdnVUTZRP6ILY7bFDMcm7eHdczvOM54tfmjvhX0pCa6J4olz+9uTcg/4JxumSKZyHKRJA2k/Do2mPz5cm3Ekk3JE6Sj+6NCxy1kZ2cE5JseZjt/P3Z47nRefr1egfyL9JOFURtFYCedphVL1M+pnlctky8UrBP/irGQ8R6oiVtOjK0nrouelQzWXap9cXr4qfs39+vEbfTdZ6t0aihsHm7C3JZpNWrxa99853dbc/ubu6n3BDoMH/g+PdF559KxrpVuiZ3vvib7hJwoDR59+HnR43jAk+DL/tewburexY5mTcZ+sv80t2q3N/8Y3wbWCUwEgF80znY+idQqAnJtonnkLAHYSALZkABzVAXyoBsAmNQAKPvgnfmx8NaUHbIAfSAAlNNO0BO5o1rwHHEYzyougGfSDcbAMMUESkC6aH0ZCR9F88B40CkOwIKwP+8CH0CyvH/6JEcJYYeIxVZhBhIBoIKFIOfICy4S1QDOydhyE08Ul4drwWLw5Phv/nCBICCE0EPFEF2IV8SfJinSWNE9jTVNFi9B60baTRciHyZ/pHOma0EwnhwEw7GYYY3Rj7GEyZrrNrMZcx6LB0s5qzzrKFs2OYy/gEOWo57TmnORK55bnHuUp5fXik+Jb4L8vkC/os0VJCCf0UviaSJZoiJiFuJQEWWJG8qnUra2npRNlPGTV5VjkZuQfK5xXPKwUoGyuIqPKqrqq9kl9WKNfs3PbPa272h063bpDepP6c4bACIeecwRTghnRnNaCxVLQSsna2ibMNs+uyf69I9lJydnNJcH1jNtd9wkPmh1yO5137fOsoHR7LfgI+zr4HfRvCvgZZBB8MmQxzDu8f7cxtSlKKbo2VnrPlfhte3sTwvfzJD1Lzku1PDh3KO/w1ox7R3yPsWa9yXmc+zp/tVDglHqx5eldZ+LKzlQMnZOuPnNRrmbkytnrO2/SNNQ07WiRauO/Z/ygrIu2R7xvbiBnUPxF36vTb0686x/3nFr8xPTl4jfwQ25OfX51MeNn/dLA8q2V8l8Rq6rr5we0/s2BCXADUaAAdIAV8AChIBHkgArQAHrAe7ACsUGykDnkB6VAZdAd6B2MwGKwJUyFT8Ht8BcMD8YCsw9TixlDuBB7JBO5h4WwWti92FvYZZwOLgX3EM+Ad8P/hf9G0CPkEsaJmsRc4jTJGJ3zZRpXmutoJkylHSCrk8/Q0dDtoZugd6PvZjBmaGXUZmxhMmDqZHZgfo1mpj9Zs9gk2R6x7+Zg46jjtOMc54rjJnNX8OjyjPHm8Jnz0/G/FrgmeGxLoJC+MIfwR5HbotlifuL6EiKSTFKErVhpggydLJMcozxBflFhUnFQqVP5jsod1U61l+rfNOm2yWnZaQfqROlS9QL0XQ1MDNWNlIzVTExMd5klmp+16LCcsea2MbINRmNansMJx3ynPOczLi2uX92Vtyd5PN7JtyvKs8dLyNvPJ9/3hl+3/1jAUhBbsGKIY2hM2Knw1ogPVPZI46iY6HMxQ3sY4qzis/Y+TxBNTNg/esA/hSG1My0qHXf4UCZyJP0Yd1Z7TnKua77BCc2TmkWaJeqlEmeRsvsVMZXc525Xe11gvfi65t7lnquzN+Rv7mt41ETfbNhKbau8O9Wh//Bql3x3ce/r/h8DX59NPB8dmnz14w30ljTK8l54wnSqYFr1S8b3yvmQxe6l1OX2lR+/FtfnH0Z3PyPgA9JAG9gBP5AACsBl0AU+QERICrKCqFAh1Ap9gNlgQzgKroSHMIwYM0wqphWzgmgi8UgjsozVw2ZgB3ESuAO413htfBmBQAgnDBDViSUkmBREekpjSHOLVp32DtmWPE6XTC9I38rgwTDHmM0kzfSYOYyFzFLFqs/6ii2OnY+9m+MYpxeXPrckDwvPEu9rvnr+4wKhgpZb5IQ4hHHCiyJfRb+IfRdfkaSTEt6qK+0pkyRbIlcv/0ThuxKXsplKsmq7Oq2Gh+ZlLTz6rtqst0U/15DNqMbE3YzRvM/ylHW4rZO9gsOQk7tzl6up25Ptfh4LO1M8IUqE11MfVd9if2LAgSBScHmoVTiIuEkNj+KLbo+NjvPZ+zmxIinuwLPk5VT4ICGN4ZBieuThgUynI1PH0rNlcl7kpudrFnwtrD61s5hUcq5U9cztMp3y1r8MKzurbKsHLjhe7K0xrm24In71xHXCjYS65frDjaK3em8nt6i0TrUV37W5j3Tcehj5SKprrPt0r2s/y5P+p1mD5s9Xhy6+snk9+SZ6ZOVd8hjmffIEPJnyAfm4f/rzZ+MvcTMlX49+i/5u+H3+x/lZ69mXcwFzc/Mx81MLHgs9iwaLF36Sf0b87F9SXipc+rpstly2vLTiuHLpF+aX66+Lq9Cq0+r5tfmP9FNUWA8fEK0+ANjh1dXvogDgjwOwkrO6ulS2urpSjiYbrwBoDdn4z7QeaxgAKH6zhjolnyb9+x/Pxj+of+Qx/76D9Ui0rhWNRGtlLSqB/wGS8u+dg9nj8AAAAFZlWElmTU0AKgAAAAgAAYdpAAQAAAABAAAAGgAAAAAAA5KGAAcAAAASAAAARKACAAQAAAABAAAAVKADAAQAAAABAAAAVAAAAABBU0NJSQAAAFNjcmVlbnNob3RenayNAAAB1GlUWHRYTUw6Y29tLmFkb2JlLnhtcAAAAAAAPHg6eG1wbWV0YSB4bWxuczp4PSJhZG9iZTpuczptZXRhLyIgeDp4bXB0az0iWE1QIENvcmUgNi4wLjAiPgogICA8cmRmOlJERiB4bWxuczpyZGY9Imh0dHA6Ly93d3cudzMub3JnLzE5OTkvMDIvMjItcmRmLXN5bnRheC1ucyMiPgogICAgICA8cmRmOkRlc2NyaXB0aW9uIHJkZjphYm91dD0iIgogICAgICAgICAgICB4bWxuczpleGlmPSJodHRwOi8vbnMuYWRvYmUuY29tL2V4aWYvMS4wLyI+CiAgICAgICAgIDxleGlmOlBpeGVsWURpbWVuc2lvbj44NDwvZXhpZjpQaXhlbFlEaW1lbnNpb24+CiAgICAgICAgIDxleGlmOlBpeGVsWERpbWVuc2lvbj44NDwvZXhpZjpQaXhlbFhEaW1lbnNpb24+CiAgICAgICAgIDxleGlmOlVzZXJDb21tZW50PlNjcmVlbnNob3Q8L2V4aWY6VXNlckNvbW1lbnQ+CiAgICAgIDwvcmRmOkRlc2NyaXB0aW9uPgogICA8L3JkZjpSREY+CjwveDp4bXBtZXRhPgr/fMjhAAAKu0lEQVR4Ae2ca3BbxRXHj2RZsmVHfr8CSewYkvYLkEKJC4XOdDrtBFpKiEMJcZxkhhkGOp0y08JAialdWihp8wHiPEgnFFLHSZyHEzJNCQVmSMirIQbaNPGD4Gf8kmTLliVZL7vnXGl1FRdZK/vKutfymURXlq727v7uf8/unru7qnE0mDPJCKglS2kuIYHAHFCJhTAHNF6A7r9ghNueb4CNu1okLnJ0k1PJsVF68q9fQt2ZfnCP+drL/HQtlN+fDy89vCC6NCRIXVZAj14agMojbdAz4AK3dxw8njFIUKtAm6CGMXRO6XoNgs2Dip/KF6xsgD6xuwWOf2qGMVIJvmQZNFBZWgiXO22w/2w/WOweSBhXCWAz/GA3yRBszIEevGiGl+vboWfQBWoE6VWNw0N3ZsMrjxbeUAGrP+iGA2eNMGhzB8Cmp2hgA7qCFx+6+YZzY/lHTIFu/EsLnGgQVZmTlgh/WrsY7ixMDclk+wc9gmIHgsBmItj138uH3/wk9mBjArT2nBFePdoJvcOiKh++Kxt+v7owJMiJX+z4sAf2YcM1ESwp9oUYKnbGgZbvbIaTXwwIvpJGvQVpWtiMqly2KLQqJ8IM/nsngUUfax4RXUFWqgbW3RcbVzBjQA9cMEHV4XYwWt0BX1l6dw5UrloUzGfK79/8qBdqz/T9H9iy7+bBTDZeUQdqd47B+l1NcOrKUECV8zN1sHnNYrhjYcqUAYb6ISl2/7l+MOGNY72CbFTs4wh2JrpbUQVag61y1aE2sDi8AVX+rCQXKlYuDMVDss/Jx9YhWKoRAbDzEmHNPblRHSBEBSipsmxHE5xpElVZmJMEf3i0CG6PgionuwvbEOzB86jYYRFsDoJ97DsIdqX0AwTJge47b4RNB9pgeNSnSsARTtl9efDsg7Ht0mzD7tZhjA/0Y8+CKTYPwa5GsL+VEKxkQEmVa7Y1wvmW4YCvLM5Lhj9jC34rHuVi2/7ZDYf/ZboBbK4BwaIrqpQArCRA6zCDz9V+BTaESqMdQZU45n72gdiqcrKbWP1+Nxy9aBL6wsGKXVWSA1WPTN3HTwsoqXLt9kY42yyqckm+XhjtFOcmTVYe2Xy3FcEemwCWfGzp8hz43arIwU4ZaD0GMn655xo43D5VqtFXrsVRyq8fuEk2sCLJyOt+sME+VpuggpV3Z0N1eTF3UhEDJVWue7MJPrk6JESFKJixpEAv+MrF2JIr3d44ia7gUxNcH3DCOIYQVQi1d/tySNYmcBUtIqB1503wzN+u+QK/6Cs1eI0yVOWvVihTlZMR2rCrGc6haKjmtVeXgCEJ33CYhuMcIFWWbr0Kl65ZBVWOkyrn62FL2WIoyla+Kr+OwcIsHVxKVAtA7U6vdECv9tihZNPnwjW1GjXoNCp48vsF8PQP5n9dPmbNZzdl6AJlae5xQD6GFnksrEJfO94FXpoLgf++ebMetm64BfKw3zbbLT05AagmAqiEgAtvecM6hmUY7KVnOqTOKowMxQNMgqfTiWioJ8Nr4q9C/EKPCSdiNVdjA2R38SccIjnFfJyM/pOMSmyXEmhKUHfB5vIKF4mHl/w00Yf2WdzcRQ6r0JxUn79U4RNHi83DnbDST1yQJbYT1NnntbBAl84XAxutRidvuoo/L7hmjkpa5XXiCCGShJVOVIc+NEGlEorhclNrz2dhFTrPP0KgE+MJKOHTYGNMZnXyu7qwQKm7xMwVR608lTkt2ddN75eyURISxqkvZB3mUeEYLy+kUIrvur383UVRfpNQouEmmdPD70smSU4xXyXiRDUymrjGa1xAtf5Orhtnw8WTJWl9eBwRuDo+oKhQmk7oiuBOzQbwFLknG8aZf7zGBTTXoBXSi6eOPRWYaibVyQhcKD1OC28Gva8vGm/dJtZ2eHEmNf3nMS6gSX4fypsoz4WVcI4uqMtIQXYe4wKanOhTqCeCO8VzcbmfU5QrDrsbOmxc2eUCujDoMQdFr+PF9FgzfUFmDOFJqdD01ISAszXhzOF4sSSdrx9K5R3lDF1yKZTuFDOHi885s/OVfNT7Y8HkPXmD6yKpSUqeEhRxsnPeqUmSU8xXNDeLWauRb9jNBXRBpq8fSkHmSKLXLDNKPWbhYghmQzjHlce4gAY3SkYrf/SaJwNyPicl6EGdk3PYzQU0NSjh0QjGtXKGxZM3Cl3SzDwy3tAlF1Dq2FPwmk7mvVNCLmbBi84fIOm28NVMLqDEJck/ajCP8AcKZgFPSMbaSTFRG07H4TFuoAZcSUEWbwESDc6+I3NzxoK5ger8CbsiCb0IWVH2CwuQ8MaCuYEm+qt8JNFrZaP05T7V//jHKmW3iZJOTUoQgsyjnGPa2QCTypDhf1Bn5RzQcCuUTefjvVOzBSi18jT0HOP0oeJQIAwBevBPRttWUFyUdlqIB7ONjuE6Ai/uLsFXXm6FsgdWtIKYtwuhZOA2XLhWvrMJzjZZQB1BPIhboSxqT5AIqMHvW5QMLVTea84Y4Y33usCB7YUGG+NkrQqe+iHfjG1uoEsKxMjLf7ocUJAuTvcLlTGlfT6Iswt/gUuFPm+zCkNOWrBQcqsB9v38G0DzZHmMGyjNRqMkabxwpcsGdxWlQGaKOOWP52JyPmfP6X6oPnkd6Bm8CtuHefhg8kVcUbcRl4VHYtxA71+aBnrsOo2gb3n/8iA0tI3Aitsy4Ee3ZygabD+uUn6m5hr8u30koMp7lhhg79P8qgwGHtE6pcZeB3z0Xwuc+GwAzLgOnXoSGRgzVCrY13GRV82pXpxViAXB6kcLFSpwHUH5vbnBjCJ6HxFQlrLR6oFjl0xwBJcnDioQ7Jf9Dni+thUaccmQEJ5DmPdiDax5aim3r2QsJh6nBJQlQmDrcRnfUQKLm6goQbFb/nEd9p7u8wU7SJU4tHwJfeW6aaiS8aDjtICyhEwY0juEK3ppVS9Fo+QI9go+/t60vxWae0VVrliWCdvX3zJtVTIOkgFlCQ4gzAO4a8Ix3C1sCCdYyQXs5r93CTvmeCmUi6qkSWBVqxfB6m9ns6xLdpREoRNzY7F5oRb3+SBXYI0h2Muddqg42AotfY6Ar3zwW1nCcm3efuXEsoX7OypA2UUtdi/sxU2qyM/aMPw1k4p95XgnHMSdx8YwskFTMWkbjMrS6KiSlZeOUQXKLkQRqndwk6p6dAV27MdGE2xDuw0qcWujr7AlV+GDMGQJ0VYlKycdZwQou+AIRm7eOt2Le32YcZwsPdiX6zvgEPpwireRKvPTE7EFj74qWflmHCi7ME282o0d6voLCJZCY9McIHzcOASvHuuALtyFIRaqZOWKGVCWAZonRWBJVU4cQ08F7At1bXAcBxlsZxvanLACN1+JRgvO8j3ZcUarfKiMOHHp3+5TfcKGqy6cocED9kMcAr/2bid0W0RVPoKbE255vEjSfmWoPIf6XBZAWeYIJoGt/cQIHny6Ggrsc9hBP/GZOaBK2s6iClvwH9+RyZKK2VFWQBkFD642eQvB7sH/9LiFgV1ebIAjF43QN+QK+EpS5Y6NxeynMT/KEiijQjBJsW9/jGNvdAsdZlwN7W/B5aRKll86yhooyyhteUKhtj++2wH0Xm6qZPlUDFCW4VaTE2gmIFuQxT6X01ERCpUTsHB5oZHZnElIYA6ohDApqTmgc0AlJiBxcv8Drs2tYjwqYo0AAAAASUVORK5CYII=;rotation=-15;imageBackground=#E6D0DE;" vertex="1" parent="1">
          <mxGeometry x="527" y="545" width="47" height="47" as="geometry" />
        </mxCell>
        <mxCell id="UZAGVTF5EnCvgB7L0BSY-43" value="" style="shape=image;verticalLabelPosition=bottom;labelBackgroundColor=default;verticalAlign=top;aspect=fixed;imageAspect=0;image=data:image/png,iVBORw0KGgoAAAANSUhEUgAAAEgAAABICAYAAABV7bNHAAAAAXNSR0IArs4c6QAAAHhlWElmTU0AKgAAAAgABAEaAAUAAAABAAAAPgEbAAUAAAABAAAARgEoAAMAAAABAAIAAIdpAAQAAAABAAAATgAAAAAAAABIAAAAAQAAAEgAAAABAAOgAQADAAAAAQABAACgAgAEAAAAAQAAAEigAwAEAAAAAQAAAEgAAAAAo75y2AAAAAlwSFlzAAALEwAACxMBAJqcGAAABMBJREFUeAHtmFmIHUUUhuMSNyYYI24xihI1BndUkKgIbqCIBhWUEB/1XQTRKAYEUXzw1RfxwQURFwQVUcEXCREXgguaxEkc47hFMTGKxGRQvy/cHsqarntv93SuoufAR3dV9Tl16r9VXdV3zpywUCAUCAVCgVAgFAgFQoFQIBQIBUKBUCAUCAVCgVAgFAgFQoFQIBQIBUKB/4AC+7Qcw/74LYTjYQGMwb6wA7bCJHwDf8AozL7NZxEcBfPAvn+FbbAFvoYpaGTDCHQAEc+FC+B8OAOWwFzoZ7toHIcN8Bl83MNy40Tx0fxh7NscZGmvfBJX8+xn9rkRzON9eAfeg9+haCWBTsfjKrgSlsEh0JXtJJBJrgMTFcu5aIqhCOf1OKdXPohrV2Yua+ENeA0+hL52L62b4c8R8xv9rYFHenhv3ajzmKDPu2Ha8hlkQv93UwPfaXvMadzEdP4EPoCPwNk2Cb+AL8XD4Bg4AU6GU8H3xLGwN+xLgq7vMc51Ar6F7eDY5sEiWAxngcvVnPKJQdW09WsrTunvcV8JCtDG3OkugdXwAyh0G77DbxVcBIdCGzsCp1tBEUs5FOOWnC4vejRvWIjLJiglV6r/HJ+jm3dX9LipkINHlaLdTotLJU9ybtGjXcPVNX3kfeZld9UuTbHzPiyvHtSJO0nuOMinabvvh901/eT9VmWf1adLc4lW8aurY/+b1XXqCfifMLf1h8Ed5E5IzzsOoGubqgk4UVM3o8oXWKVoda0TcoZjg4oLa/q4K/G/p6Zdny5tjGDV+KrriryD6f0+aXCbzO3gvGKW5Wtq/J9P6p5J7qvbOp+qrc217tNkqNXjeaFStLoe2SaDPj7jWR+f1jzrOavq36tnri7N81oa3/sT8w7qZtCW/CHKnh26smUE8uCW2tNpoXf/RFZn8hdndbMpHp45+06azOqKRR9M1b22+GTzhhey2Dsp1/0A86n374o0j5cod2XXESiN7RfCDKubQT60Jnuyqxfk2cRdnsV+krKn69y2U/FYVukP5edCF+ZMTm1tWhh0fwsPpOp6xG97tK/62o8bv+HSuD9T7nc69hPlx8zHd9NsD66OxTGluVxPeWjz/x+/v9IAr1Nuu5v5Afh4Fs/Yd8Agu40H0jy8fwpKs39QPMfgWNKY7twHDnLM22/OghjwXViSPzigbMculTQh71+FYQf5bI2/S7PpD2bujiHPxbG2sofwyoPtou5ROG1ARA+XN4J/t+Yx1lPXZMk6o9fVxNlInR+dg5acuZqzuee5PEhd0fr+99Hz8lR7P9T92ib4NmyAbWCinplM6FLIt1Kq9vwvfBnXobdUnTDjvglnWsjsJ8pvgTvRVtgN/jXjjPFocArk5kf5ffBA3tCmfAVOX0CuftPyy8Ro+5+SeY9B3XJrmodjcUydmtN8FbglN01oMz4roCu7gUDO3qZ5mLtjcCx7zQy+El6BHVBK0iX3Ivgecul1bR4bPFM9By6xUh7maK7m3FiYYd5BxC2a76WlcBwsgCnwbLMJnDWu81GYefgpshjmgxuEon0FbhKjyoOuwkKBUCAUCAVCgVAgFAgFQoFQIBQIBUKBUCAUCAVCgVAgFAgFQoFQIBQIBf6FCvwFt9Lnr1bMg8sAAAAASUVORK5CYII=;rotation=20;" vertex="1" parent="1">
          <mxGeometry x="843" y="362" width="54" height="54" as="geometry" />
        </mxCell>
        <mxCell id="UZAGVTF5EnCvgB7L0BSY-44" value="" style="ellipse;whiteSpace=wrap;html=1;aspect=fixed;fillColor=#000000;" vertex="1" parent="1">
          <mxGeometry x="546.5" y="565.1700000000001" width="6" height="6" as="geometry" />
        </mxCell>
        <mxCell id="UZAGVTF5EnCvgB7L0BSY-45" value="" style="shape=image;verticalLabelPosition=bottom;labelBackgroundColor=default;verticalAlign=top;aspect=fixed;imageAspect=0;image=data:image/png,iVBORw0KGgoAAAANSUhEUgAAAFQAAABUCAYAAAAcaxDBAAAYhWlDQ1BJQ0MgUHJvZmlsZQAAWIWVeQk4Vl3X/z7nPvfIbZ5nmck8k3me5zGV2zzTbYoiIYkKGVJI4RENNAoJUSnJlFIqKTKUSoMp5DuGep73ef/X/7u+fV37nN9Ze+211l57WGedAwD3K0pERAjMAEBoWBTV3kRfwNXNXQA/DiCAAAJgA2IU78gIPVtbS4CW3/f/LHPPUG60PJFek/Xf7f/fwuTjG+kNAOSBYi+fSO9QFLcCgBR7R1CjAMCt0YVioyLWcBKKWaiogSjOW8P+G7hqDXtt4KZ1Hkd7AxT3AkCgpVCo/gDQvULpAjHe/qgcumW0jSnMJzAMAFZ05Dht7wCKDwDctijP1tDQ8DW8D8XiKH8EiitQrOb1D5n+/yHf6498CsX/D94Y13ohGAZGRoRQ4v6PrvnfS2hI9G8domilDaCa2q+NH/Xh8+BwizVMi+LpMC9rmzVfo3gh0GfD7wDApIBoU6cNfpjHO9IA9R864wCW86EYWqCYB8XGYSHWlpt0L79AYzMUoz6D9wRGmTmimAPF6b6RRg6bPGeo4fabuuA6P6qB3ib9AYW6rndN13B0sJPepvxvAb5mm/IxdPEBji4oJqFYOCbQ2RrFdCiWiQx2sNjk2RYfYGD9m4cabb9mvzCK7X3DTPQ35GNi/KjG9pv8GaGRv8eLORMQaGa9ia9GBTiabvgHc9ebsm4/OhZMr2+YntNvOb6Rrpa/x+Lja2i0MXbMpG+Yk8OmnIWIKH37jb4IKSLEdpMf2eIbYrJG34JipcgYh82+iHMUujg35CN+EVG2jht2IvFBFHPbDXuQbGAJDIAhEADRaPUC4SAIBHZP35xGnzZajAEFUIE/8AXSm5TfPVzWW8LQqwOIB59Q5Asi//TTX2/1BTEofeUPdeMqDfzWW2PWewSDcRSHAgsQgj5Hr/cK+6PNGYyhlMD/0k5Bqzdqbwha19r/3/Tf1L8peijFcpMS/VujAP1vTpwRzhBnijPGSSBciDaiiViiV120KiBqiPrvcfzNjx3H9mHfYZ9iR7AvdgUmU/9lpRUYQeUbb/rC65++QERRmcqIPqKFSkclI2wIF5BGlFA9eogOqlkZpRps2r3mFYF/yf6PEfxjNjb5iHJEmMhO1CWK/7snnSSd8h8pa77+p382bPX642+DPy3/1m/wD+/7oHeLf3Ni0jHXMB2YO5iHmCbMTSCAacHUY7owt9fwn9U1tr66fmuzX7cnGJUT+F/6KJs61zwZKXdBbkpueaMtyndP1NrGMwiPiKMG+gdECeih0cFXwCzMW2argIKcggIAa7Fm4/j6br8eQyC2nr9pFDSWqKFcJP2/aeHomVGTj26Zk3/TRNE9zakOwFV772hqzAYNWbtg0VOCHt1pnIAPCAFxdDwKQAVoAl1gBMyBDXAEbmAn6uUAdJ1TQSzYBw6ANJAJskE+OAVKQTmoApfAVXATNIE74D54BHrBU/ASXT3vwUcwA+bAEgRBeIgMMUOcED8kAklBCpAapA0ZQZaQPeQGeUL+UBgUDe2DUqBM6Dh0CjoLVUNXoAboDvQQ6oNeQG+hKegb9BPGwLQwC8wLi8KysBqsB1vAjvAO2B/eDcfDqfAxuBAugy/CdfAd+BH8FB6BP8KzGIChwbBhBDHSGDWMAcYG447xw1AxiZgMTAGmDFODaUTn+QlmBDONWURwCDMigEijK9gUcUK8kd1IInIEOYVUIXXIXeQJ8haZQX5hyVgerBRWA2uGdcX6Y2OxadgCbCX2BvYeupfeY+dwOBwbTgyniu5FN1wQbi/uCK4EV4trxfXhRnGzeDyeEy+F18Lb4Cn4KHwa/iT+Ir4F349/j18g0BD4CQoEY4I7IYyQTCggnCc0E/oJE4QlIgNRhKhBtCH6EOOIWcQKYiOxh/ieuERiJImRtEiOpCDSAVIhqYZ0j/SK9J2GhmYLjTqNHU0gTRJNIc1lmgc0b2kWaZloJWkNaD1oo2mP0Z6jbaV9QfudTCaLknXJ7uQo8jFyNbmdPExeoGOmk6Ezo/Oh209XRFdH10/3mZ5IL0KvR7+TPp6+gP4afQ/9NAORQZTBgIHCkMhQxNDAMMgwy8jMKM9owxjKeITxPONDxkkmPJMokxGTD1MqUzlTO9MoM4ZZiNmA2Zs5hbmC+R7zexYcixiLGUsQSybLJZZulhlWJlYlVmfWPaxFrLdZR9gwbKJsZmwhbFlsV9mesf1k52XXY/dlP8xew97PPs/BzaHL4cuRwVHL8ZTjJ6cApxFnMGcO503O11wIlySXHVcs12mue1zT3Czcmtze3BncV7mHeGAeSR57nr085TxdPLO8fLwmvBG8J3nbeaf52Ph0+YL48via+ab4mfm1+QP58/hb+D8IsAroCYQIFArcFZgR5BE0FYwWPCvYLbi0RWyL05bkLbVbXguRhNSE/ITyhNqEZoT5ha2E9wlfEB4SIYqoiQSInBDpEJkXFRN1ET0kelN0UoxDzEwsXuyC2CtxsriO+G7xMvEBCZyEmkSwRIlEryQsqSwZIFkk2SMFS6lIBUqVSPVtxW5V3xq2tWzroDSttJ50jPQF6bcybDKWMskyN2U+ywrLusvmyHbI/pJTlguRq5B7Kc8kby6fLN8o/01BUsFboUhhQJGsaKy4X7Fe8auSlJKv0mml58rMylbKh5TblFdUVFWoKjUqU6rCqp6qxaqDaixqtmpH1B6oY9X11ferN6kvaqhoRGlc1fiiKa0ZrHlec3Kb2DbfbRXbRrW2aFG0zmqNaAtoe2qf0R7REdSh6JTpvNMV0vXRrdSd0JPQC9K7qPdZX06fqn9Df95AwyDBoNUQY2himGHYbcRk5GR0ymjYeIuxv/EF4xkTZZO9Jq2mWFML0xzTQTNeM2+zarMZc1XzBPO7FrQWDhanLN5ZSlpSLRutYCtzq1yrV9Yi1mHWN22AjZlNrs1rWzHb3ba37HB2tnZFduP28vb77DscmB12OZx3mHPUd8xyfOkk7hTt1OZM7+zhXO0872LoctxlxFXWNcH1kRuXW6BbvTve3dm90n12u9H2/O3vPZQ90jye7RDbsWfHw51cO0N23t5Fv4uy65on1tPF87znMsWGUkaZ9TLzKvaa8TbwPuH90UfXJ89nylfL97jvhJ+W33G/SX8t/1z/qQCdgIKA6UCDwFOBX4NMg0qD5oNtgs8Fr4a4hNSGEkI9QxvCmMKCw+6G84XvCe+LkIpIixjZrbE7f/cM1YJaGQlF7oisj2JBX+q7osWjD0a/jdGOKYpZiHWOvbaHcU/Ynq44ybjDcRPxxvF/7UX2eu9t2ye478C+twl6CWcToUSvxLb9QvtT979PMkmqOkA6EHzgcbJc8vHkHykuKY2pvKlJqaMHTQ5eSKNLo6YNHtI8VJqOpAemdx9WPHzy8K8Mn4zOTLnMgszlI95HOo/KHy08unrM71h3lkrW6Wxcdlj2sxydnKrjjMfjj4/mWuXW5QnkZeT9yN+V/7BAqaD0BOlE9ImRQsvC+pPCJ7NPLp8KOPW0SL+otpin+HDxfIlPSf9p3dM1pbylmaU/zwSeeX7W5GxdmWhZQTmuPKZ8vMK5ouMvtb+qK7kqMytXzoWdG6myr7pbrVpdfZ7nfNYF+EL0hamLHhd7Lxleqq+Rrjlby1abeRlcjr784YrnlWdXLa62XVO7VnNd5HrxDeYbGXVQXVzdzM2AmyP1bvV9DeYNbY2ajTduydw61yTYVHSb9XZWM6k5tXm1Jb5ltjWidfqO/53Rtl1tL9td2wfu2t3tvmdx78F94/vtHXodLQ+0HjQ91HjY0KnWefORyqO6LuWuG4+VH9/oVumu61Htqe9V723s29bX3K/Tf+eJ4ZP7A2YDj55aP+175vTs+aDH4Mhzn+eTL0JefB2KGVp6mfQK+yrjNcPrgmGe4bI3Em9qR1RGbr81fNv1zuHdy1Hv0Y9jkWPL71PHyeMFE/wT1ZMKk01TxlO9H7Z/eP8x4uPSdNonxk/Fn8U/X/+i+6VrxnXm/Vfq19VvR75zfj/3Q+lH26zt7PBc6NzSfMYC50LVotpix0+XnxNLscv45cIViZXGXxa/Xq2Grq5GUKiU9VcBDFphPz8Avp0DgOwGADOat5G2b+SCmwWDvnzA6N0ZkoE+wncxKYgDVhcnhucicBD5SVo01rTB5Gy6BvppRmkmX+ZyllE2SfY4jhYuem4Xngre7/zbBFIFHwsxCtuLHBV9JA4kFCX9pE5s7ZSelxWXs5NPUrig+FQZVpFX3aGWoV6n8XYbWUtN21PnsO4VvVcGBEMVI2/jbJN602FzyELY0sQqyDrL5rrtc7sFBzZHRScb51CXo641bo/c326f8ZjfsbQLeJIonF7S3no+9r67/Hz9KQEOgduCBIKh4JGQltAzYSnhARG2u9WoApGEyC9Rz6KbY6pic/ckxoXEu+0126eVoJqosl89Se+ARbJLim9q1MGDaXmHKtKvHW7N6Mp8duTN0Yljn7K+Zc/mzB2fzZ3N+1mAnGAt3HrS5JR30f7iwpKa0y2lj84MnB0qGymfqvhRiTnHWiVZrX/e40LsxbxLV2v6ar9eYbyqeM3heuSN7Lrqm431dxraG1tv3Wq6cbu2ubqlvLXkTn5bRvu+u0H3HO6rdHB0LD4YedjTef9Re9edx03dtT2FvZF9Bv3k/idPigb8nio/wz4bHKx6HvNCdwg31IGuL+VXE69zhjWHR98cHdEc+fi29J39KGa0dsxpbPF93vjW8ZYJ+4mxyYNTslNjH6o+hk0rTs9+qv3s/YXxy40Z25nxr/u+sX+7/z3rR9gsZc4PXUdjP++tyKyurs+/EHQZDsIoYCaRK9gknCteiyBNFCOJ0WyhlSNr0NnRezMkMpYyNTNPsTKwqbFTONI5r3MN89DwKvJt508SOCvYsuWl0KwIjSi/mLK4mYSnZJxU7tYr0l0yk3KIvKDCNkV3pSjlTJUK1Qa1x+rvNH5sw2lxa8vrWOmG6GXpXzboNfxkTDDhNVUwMzJ3svC2DLPaY51ok2J70C7NPt0hw/GIU4Zzqkuca4Cbo7vhdh0P4x3uO2N35XteprR5dXrf87nhW+y3198lQC6QNnA6qDe4MaQ6tCgsKzw5grrbg6obyR+5FPU0+lJMWqzXHqM4uXjhvbz7OBNYExn24/bPJb070Jl8JSU/NfbgjjTzQ4bplocpGQcy/zpy/+jwsc9Zs9nzObPHv+fO5H3Kny74fGLhJMMp9aKw4sqS7tOjpVNn3p99U/aivK/iwV/NlU3nOqs+nRe8sONi8aUXtSyXra+ko6fX4g2ZOp+bRfX9jdhbSk27bh9srmxpam2+c74tuz3hbuy9pPtZHSUPyh+e7jz2KLrL4bF0N9I91HO1N7MvqN/uidGA0VO7Z16D0c9TXxwaSnjp98rgNdfr6eGGN4dGXN9KvyO8Gx9tHyt5v3tcd4J2YmCyfGr/h8CPPtMBn0I/R3yJmIn4Sv0W8z3uR+xs4JzJPP38tQWjhUeL7ouffvYu064Mrc+/FLgLWUDPYV8MDpOFSCE92HicLG4K/xchgChLXCR10pTSxpLt6RTo6ejnGF4wtjJVM+eyJLD6s9mza3FIcLJyLnNNcvfzNPPW8JXzFwkUCOZtyRJKE44RoYgaiQmILYh3SZRKRkqZbhWUhqWnZAZlH8g1yp9XKFRMUvJUVlfBqfSo5qu5qnOqv9Ao0fTZpqCF0xrWrtPJ0g3QM9QXNWAwBIbfjSaMn5ncMi0w8zUXMR+xKLS0scJbtVun2JjZcth+sGu2z3UIcNR0IjsNO19y2edq7sbq9sa9ans4Gv8Xd9zembTLwJPg2Ucp9gr23uZD6zPke85vt7+a/3JAS2BSkG4wCG4NORBqEIaE3Qs/GKEXsbD7AtUNjdnVUTZRP6ILY7bFDMcm7eHdczvOM54tfmjvhX0pCa6J4olz+9uTcg/4JxumSKZyHKRJA2k/Do2mPz5cm3Ekk3JE6Sj+6NCxy1kZ2cE5JseZjt/P3Z47nRefr1egfyL9JOFURtFYCedphVL1M+pnlctky8UrBP/irGQ8R6oiVtOjK0nrouelQzWXap9cXr4qfs39+vEbfTdZ6t0aihsHm7C3JZpNWrxa99853dbc/ubu6n3BDoMH/g+PdF559KxrpVuiZ3vvib7hJwoDR59+HnR43jAk+DL/tewburexY5mTcZ+sv80t2q3N/8Y3wbWCUwEgF80znY+idQqAnJtonnkLAHYSALZkABzVAXyoBsAmNQAKPvgnfmx8NaUHbIAfSAAlNNO0BO5o1rwHHEYzyougGfSDcbAMMUESkC6aH0ZCR9F88B40CkOwIKwP+8CH0CyvH/6JEcJYYeIxVZhBhIBoIKFIOfICy4S1QDOydhyE08Ul4drwWLw5Phv/nCBICCE0EPFEF2IV8SfJinSWNE9jTVNFi9B60baTRciHyZ/pHOma0EwnhwEw7GYYY3Rj7GEyZrrNrMZcx6LB0s5qzzrKFs2OYy/gEOWo57TmnORK55bnHuUp5fXik+Jb4L8vkC/os0VJCCf0UviaSJZoiJiFuJQEWWJG8qnUra2npRNlPGTV5VjkZuQfK5xXPKwUoGyuIqPKqrqq9kl9WKNfs3PbPa272h063bpDepP6c4bACIeecwRTghnRnNaCxVLQSsna2ibMNs+uyf69I9lJydnNJcH1jNtd9wkPmh1yO5137fOsoHR7LfgI+zr4HfRvCvgZZBB8MmQxzDu8f7cxtSlKKbo2VnrPlfhte3sTwvfzJD1Lzku1PDh3KO/w1ox7R3yPsWa9yXmc+zp/tVDglHqx5eldZ+LKzlQMnZOuPnNRrmbkytnrO2/SNNQ07WiRauO/Z/ygrIu2R7xvbiBnUPxF36vTb0686x/3nFr8xPTl4jfwQ25OfX51MeNn/dLA8q2V8l8Rq6rr5we0/s2BCXADUaAAdIAV8AChIBHkgArQAHrAe7ACsUGykDnkB6VAZdAd6B2MwGKwJUyFT8Ht8BcMD8YCsw9TixlDuBB7JBO5h4WwWti92FvYZZwOLgX3EM+Ad8P/hf9G0CPkEsaJmsRc4jTJGJ3zZRpXmutoJkylHSCrk8/Q0dDtoZugd6PvZjBmaGXUZmxhMmDqZHZgfo1mpj9Zs9gk2R6x7+Zg46jjtOMc54rjJnNX8OjyjPHm8Jnz0/G/FrgmeGxLoJC+MIfwR5HbotlifuL6EiKSTFKErVhpggydLJMcozxBflFhUnFQqVP5jsod1U61l+rfNOm2yWnZaQfqROlS9QL0XQ1MDNWNlIzVTExMd5klmp+16LCcsea2MbINRmNansMJx3ynPOczLi2uX92Vtyd5PN7JtyvKs8dLyNvPJ9/3hl+3/1jAUhBbsGKIY2hM2Knw1ogPVPZI46iY6HMxQ3sY4qzis/Y+TxBNTNg/esA/hSG1My0qHXf4UCZyJP0Yd1Z7TnKua77BCc2TmkWaJeqlEmeRsvsVMZXc525Xe11gvfi65t7lnquzN+Rv7mt41ETfbNhKbau8O9Wh//Bql3x3ce/r/h8DX59NPB8dmnz14w30ljTK8l54wnSqYFr1S8b3yvmQxe6l1OX2lR+/FtfnH0Z3PyPgA9JAG9gBP5AACsBl0AU+QERICrKCqFAh1Ap9gNlgQzgKroSHMIwYM0wqphWzgmgi8UgjsozVw2ZgB3ESuAO413htfBmBQAgnDBDViSUkmBREekpjSHOLVp32DtmWPE6XTC9I38rgwTDHmM0kzfSYOYyFzFLFqs/6ii2OnY+9m+MYpxeXPrckDwvPEu9rvnr+4wKhgpZb5IQ4hHHCiyJfRb+IfRdfkaSTEt6qK+0pkyRbIlcv/0ThuxKXsplKsmq7Oq2Gh+ZlLTz6rtqst0U/15DNqMbE3YzRvM/ylHW4rZO9gsOQk7tzl6up25Ptfh4LO1M8IUqE11MfVd9if2LAgSBScHmoVTiIuEkNj+KLbo+NjvPZ+zmxIinuwLPk5VT4ICGN4ZBieuThgUynI1PH0rNlcl7kpudrFnwtrD61s5hUcq5U9cztMp3y1r8MKzurbKsHLjhe7K0xrm24In71xHXCjYS65frDjaK3em8nt6i0TrUV37W5j3Tcehj5SKprrPt0r2s/y5P+p1mD5s9Xhy6+snk9+SZ6ZOVd8hjmffIEPJnyAfm4f/rzZ+MvcTMlX49+i/5u+H3+x/lZ69mXcwFzc/Mx81MLHgs9iwaLF36Sf0b87F9SXipc+rpstly2vLTiuHLpF+aX66+Lq9Cq0+r5tfmP9FNUWA8fEK0+ANjh1dXvogDgjwOwkrO6ulS2urpSjiYbrwBoDdn4z7QeaxgAKH6zhjolnyb9+x/Pxj+of+Qx/76D9Ui0rhWNRGtlLSqB/wGS8u+dg9nj8AAAAFZlWElmTU0AKgAAAAgAAYdpAAQAAAABAAAAGgAAAAAAA5KGAAcAAAASAAAARKACAAQAAAABAAAAVKADAAQAAAABAAAAVAAAAABBU0NJSQAAAFNjcmVlbnNob3RenayNAAAB1GlUWHRYTUw6Y29tLmFkb2JlLnhtcAAAAAAAPHg6eG1wbWV0YSB4bWxuczp4PSJhZG9iZTpuczptZXRhLyIgeDp4bXB0az0iWE1QIENvcmUgNi4wLjAiPgogICA8cmRmOlJERiB4bWxuczpyZGY9Imh0dHA6Ly93d3cudzMub3JnLzE5OTkvMDIvMjItcmRmLXN5bnRheC1ucyMiPgogICAgICA8cmRmOkRlc2NyaXB0aW9uIHJkZjphYm91dD0iIgogICAgICAgICAgICB4bWxuczpleGlmPSJodHRwOi8vbnMuYWRvYmUuY29tL2V4aWYvMS4wLyI+CiAgICAgICAgIDxleGlmOlBpeGVsWURpbWVuc2lvbj44NDwvZXhpZjpQaXhlbFlEaW1lbnNpb24+CiAgICAgICAgIDxleGlmOlBpeGVsWERpbWVuc2lvbj44NDwvZXhpZjpQaXhlbFhEaW1lbnNpb24+CiAgICAgICAgIDxleGlmOlVzZXJDb21tZW50PlNjcmVlbnNob3Q8L2V4aWY6VXNlckNvbW1lbnQ+CiAgICAgIDwvcmRmOkRlc2NyaXB0aW9uPgogICA8L3JkZjpSREY+CjwveDp4bXBtZXRhPgr/fMjhAAAKu0lEQVR4Ae2ca3BbxRXHj2RZsmVHfr8CSewYkvYLkEKJC4XOdDrtBFpKiEMJcZxkhhkGOp0y08JAialdWihp8wHiPEgnFFLHSZyHEzJNCQVmSMirIQbaNPGD4Gf8kmTLliVZL7vnXGl1FRdZK/vKutfymURXlq727v7uf8/unru7qnE0mDPJCKglS2kuIYHAHFCJhTAHNF6A7r9ghNueb4CNu1okLnJ0k1PJsVF68q9fQt2ZfnCP+drL/HQtlN+fDy89vCC6NCRIXVZAj14agMojbdAz4AK3dxw8njFIUKtAm6CGMXRO6XoNgs2Dip/KF6xsgD6xuwWOf2qGMVIJvmQZNFBZWgiXO22w/2w/WOweSBhXCWAz/GA3yRBszIEevGiGl+vboWfQBWoE6VWNw0N3ZsMrjxbeUAGrP+iGA2eNMGhzB8Cmp2hgA7qCFx+6+YZzY/lHTIFu/EsLnGgQVZmTlgh/WrsY7ixMDclk+wc9gmIHgsBmItj138uH3/wk9mBjArT2nBFePdoJvcOiKh++Kxt+v7owJMiJX+z4sAf2YcM1ESwp9oUYKnbGgZbvbIaTXwwIvpJGvQVpWtiMqly2KLQqJ8IM/nsngUUfax4RXUFWqgbW3RcbVzBjQA9cMEHV4XYwWt0BX1l6dw5UrloUzGfK79/8qBdqz/T9H9iy7+bBTDZeUQdqd47B+l1NcOrKUECV8zN1sHnNYrhjYcqUAYb6ISl2/7l+MOGNY72CbFTs4wh2JrpbUQVag61y1aE2sDi8AVX+rCQXKlYuDMVDss/Jx9YhWKoRAbDzEmHNPblRHSBEBSipsmxHE5xpElVZmJMEf3i0CG6PgionuwvbEOzB86jYYRFsDoJ97DsIdqX0AwTJge47b4RNB9pgeNSnSsARTtl9efDsg7Ht0mzD7tZhjA/0Y8+CKTYPwa5GsL+VEKxkQEmVa7Y1wvmW4YCvLM5Lhj9jC34rHuVi2/7ZDYf/ZboBbK4BwaIrqpQArCRA6zCDz9V+BTaESqMdQZU45n72gdiqcrKbWP1+Nxy9aBL6wsGKXVWSA1WPTN3HTwsoqXLt9kY42yyqckm+XhjtFOcmTVYe2Xy3FcEemwCWfGzp8hz43arIwU4ZaD0GMn655xo43D5VqtFXrsVRyq8fuEk2sCLJyOt+sME+VpuggpV3Z0N1eTF3UhEDJVWue7MJPrk6JESFKJixpEAv+MrF2JIr3d44ia7gUxNcH3DCOIYQVQi1d/tySNYmcBUtIqB1503wzN+u+QK/6Cs1eI0yVOWvVihTlZMR2rCrGc6haKjmtVeXgCEJ33CYhuMcIFWWbr0Kl65ZBVWOkyrn62FL2WIoyla+Kr+OwcIsHVxKVAtA7U6vdECv9tihZNPnwjW1GjXoNCp48vsF8PQP5n9dPmbNZzdl6AJlae5xQD6GFnksrEJfO94FXpoLgf++ebMetm64BfKw3zbbLT05AagmAqiEgAtvecM6hmUY7KVnOqTOKowMxQNMgqfTiWioJ8Nr4q9C/EKPCSdiNVdjA2R38SccIjnFfJyM/pOMSmyXEmhKUHfB5vIKF4mHl/w00Yf2WdzcRQ6r0JxUn79U4RNHi83DnbDST1yQJbYT1NnntbBAl84XAxutRidvuoo/L7hmjkpa5XXiCCGShJVOVIc+NEGlEorhclNrz2dhFTrPP0KgE+MJKOHTYGNMZnXyu7qwQKm7xMwVR608lTkt2ddN75eyURISxqkvZB3mUeEYLy+kUIrvur383UVRfpNQouEmmdPD70smSU4xXyXiRDUymrjGa1xAtf5Orhtnw8WTJWl9eBwRuDo+oKhQmk7oiuBOzQbwFLknG8aZf7zGBTTXoBXSi6eOPRWYaibVyQhcKD1OC28Gva8vGm/dJtZ2eHEmNf3nMS6gSX4fypsoz4WVcI4uqMtIQXYe4wKanOhTqCeCO8VzcbmfU5QrDrsbOmxc2eUCujDoMQdFr+PF9FgzfUFmDOFJqdD01ISAszXhzOF4sSSdrx9K5R3lDF1yKZTuFDOHi885s/OVfNT7Y8HkPXmD6yKpSUqeEhRxsnPeqUmSU8xXNDeLWauRb9jNBXRBpq8fSkHmSKLXLDNKPWbhYghmQzjHlce4gAY3SkYrf/SaJwNyPicl6EGdk3PYzQU0NSjh0QjGtXKGxZM3Cl3SzDwy3tAlF1Dq2FPwmk7mvVNCLmbBi84fIOm28NVMLqDEJck/ajCP8AcKZgFPSMbaSTFRG07H4TFuoAZcSUEWbwESDc6+I3NzxoK5ger8CbsiCb0IWVH2CwuQ8MaCuYEm+qt8JNFrZaP05T7V//jHKmW3iZJOTUoQgsyjnGPa2QCTypDhf1Bn5RzQcCuUTefjvVOzBSi18jT0HOP0oeJQIAwBevBPRttWUFyUdlqIB7ONjuE6Ai/uLsFXXm6FsgdWtIKYtwuhZOA2XLhWvrMJzjZZQB1BPIhboSxqT5AIqMHvW5QMLVTea84Y4Y33usCB7YUGG+NkrQqe+iHfjG1uoEsKxMjLf7ocUJAuTvcLlTGlfT6Iswt/gUuFPm+zCkNOWrBQcqsB9v38G0DzZHmMGyjNRqMkabxwpcsGdxWlQGaKOOWP52JyPmfP6X6oPnkd6Bm8CtuHefhg8kVcUbcRl4VHYtxA71+aBnrsOo2gb3n/8iA0tI3Aitsy4Ee3ZygabD+uUn6m5hr8u30koMp7lhhg79P8qgwGHtE6pcZeB3z0Xwuc+GwAzLgOnXoSGRgzVCrY13GRV82pXpxViAXB6kcLFSpwHUH5vbnBjCJ6HxFQlrLR6oFjl0xwBJcnDioQ7Jf9Dni+thUaccmQEJ5DmPdiDax5aim3r2QsJh6nBJQlQmDrcRnfUQKLm6goQbFb/nEd9p7u8wU7SJU4tHwJfeW6aaiS8aDjtICyhEwY0juEK3ppVS9Fo+QI9go+/t60vxWae0VVrliWCdvX3zJtVTIOkgFlCQ4gzAO4a8Ix3C1sCCdYyQXs5r93CTvmeCmUi6qkSWBVqxfB6m9ns6xLdpREoRNzY7F5oRb3+SBXYI0h2Muddqg42AotfY6Ar3zwW1nCcm3efuXEsoX7OypA2UUtdi/sxU2qyM/aMPw1k4p95XgnHMSdx8YwskFTMWkbjMrS6KiSlZeOUQXKLkQRqndwk6p6dAV27MdGE2xDuw0qcWujr7AlV+GDMGQJ0VYlKycdZwQou+AIRm7eOt2Le32YcZwsPdiX6zvgEPpwireRKvPTE7EFj74qWflmHCi7ME282o0d6voLCJZCY9McIHzcOASvHuuALtyFIRaqZOWKGVCWAZonRWBJVU4cQ08F7At1bXAcBxlsZxvanLACN1+JRgvO8j3ZcUarfKiMOHHp3+5TfcKGqy6cocED9kMcAr/2bid0W0RVPoKbE255vEjSfmWoPIf6XBZAWeYIJoGt/cQIHny6Ggrsc9hBP/GZOaBK2s6iClvwH9+RyZKK2VFWQBkFD642eQvB7sH/9LiFgV1ebIAjF43QN+QK+EpS5Y6NxeynMT/KEiijQjBJsW9/jGNvdAsdZlwN7W/B5aRKll86yhooyyhteUKhtj++2wH0Xm6qZPlUDFCW4VaTE2gmIFuQxT6X01ERCpUTsHB5oZHZnElIYA6ohDApqTmgc0AlJiBxcv8Drs2tYjwqYo0AAAAASUVORK5CYII=;rotation=-15;imageBackground=none;" vertex="1" parent="1">
          <mxGeometry x="564" y="575" width="47" height="47" as="geometry" />
        </mxCell>
        <mxCell id="UZAGVTF5EnCvgB7L0BSY-46" value="" style="ellipse;whiteSpace=wrap;html=1;aspect=fixed;fillColor=#000000;" vertex="1" parent="1">
          <mxGeometry x="583.5" y="595.1700000000001" width="6" height="6" as="geometry" />
        </mxCell>
        <mxCell id="UZAGVTF5EnCvgB7L0BSY-47" value="" style="endArrow=none;dashed=1;html=1;rounded=0;exitX=0;exitY=0.5;exitDx=0;exitDy=0;entryX=0.233;entryY=0.578;entryDx=0;entryDy=0;entryPerimeter=0;" edge="1" parent="1">
          <mxGeometry width="50" height="50" relative="1" as="geometry">
            <mxPoint x="548.5000000000023" y="568.1700000000003" as="sourcePoint" />
            <mxPoint x="856.0109229498212" y="388.0267388922807" as="targetPoint" />
          </mxGeometry>
        </mxCell>
        <mxCell id="UZAGVTF5EnCvgB7L0BSY-48" value="" style="endArrow=none;dashed=1;html=1;rounded=0;exitX=0;exitY=0.5;exitDx=0;exitDy=0;" edge="1" parent="1">
          <mxGeometry width="50" height="50" relative="1" as="geometry">
            <mxPoint x="546.5000000000024" y="571.1700000000002" as="sourcePoint" />
            <mxPoint x="883" y="394" as="targetPoint" />
          </mxGeometry>
        </mxCell>
        <mxCell id="UZAGVTF5EnCvgB7L0BSY-49" value="" style="endArrow=blockThin;html=1;rounded=0;exitX=0;exitY=0;exitDx=0;exitDy=0;fontColor=#FF0000;strokeColor=#FF0000;endFill=1;" edge="1" parent="1">
          <mxGeometry width="50" height="50" relative="1" as="geometry">
            <mxPoint x="584.3786796564419" y="598.0486796564423" as="sourcePoint" />
            <mxPoint x="659.0000000000001" y="559" as="targetPoint" />
          </mxGeometry>
        </mxCell>
        <mxCell id="UZAGVTF5EnCvgB7L0BSY-50" value="" style="endArrow=blockThin;html=1;rounded=0;exitX=1;exitY=0.5;exitDx=0;exitDy=0;fontColor=#FF0000;strokeColor=#FF0000;endFill=1;" edge="1" parent="1" source="UZAGVTF5EnCvgB7L0BSY-46">
          <mxGeometry width="50" height="50" relative="1" as="geometry">
            <mxPoint x="594.378679656442" y="608.0486796564422" as="sourcePoint" />
            <mxPoint x="669.0000000000001" y="561.9999999999999" as="targetPoint" />
          </mxGeometry>
        </mxCell>
        <mxCell id="UZAGVTF5EnCvgB7L0BSY-51" value="" style="endArrow=blockThin;html=1;rounded=0;fontColor=#FF0000;strokeColor=#FF0000;endFill=1;" edge="1" parent="1">
          <mxGeometry width="50" height="50" relative="1" as="geometry">
            <mxPoint x="659.0000000000001" y="556.9999999999999" as="sourcePoint" />
            <mxPoint x="726" y="463" as="targetPoint" />
          </mxGeometry>
        </mxCell>
        <mxCell id="UZAGVTF5EnCvgB7L0BSY-52" value="" style="endArrow=blockThin;html=1;rounded=0;fontColor=#FF0000;strokeColor=#FF0000;endFill=1;" edge="1" parent="1">
          <mxGeometry width="50" height="50" relative="1" as="geometry">
            <mxPoint x="669.0000000000001" y="561.0000000000001" as="sourcePoint" />
            <mxPoint x="744.9999999999999" y="466.9999999999999" as="targetPoint" />
          </mxGeometry>
        </mxCell>
        <mxCell id="UZAGVTF5EnCvgB7L0BSY-53" value="" style="endArrow=blockThin;html=1;rounded=0;fontColor=#FF0000;strokeColor=#FF0000;endFill=1;" edge="1" parent="1">
          <mxGeometry width="50" height="50" relative="1" as="geometry">
            <mxPoint x="726" y="464" as="sourcePoint" />
            <mxPoint x="855" y="390" as="targetPoint" />
          </mxGeometry>
        </mxCell>
        <mxCell id="UZAGVTF5EnCvgB7L0BSY-54" value="" style="endArrow=blockThin;html=1;rounded=0;fontColor=#FF0000;strokeColor=#FF0000;endFill=1;exitX=0.551;exitY=0.009;exitDx=0;exitDy=0;exitPerimeter=0;" edge="1" parent="1">
          <mxGeometry width="50" height="50" relative="1" as="geometry">
            <mxPoint x="743.3245887258199" y="467.7861669897841" as="sourcePoint" />
            <mxPoint x="883" y="394" as="targetPoint" />
          </mxGeometry>
        </mxCell>
        <mxCell id="UZAGVTF5EnCvgB7L0BSY-55" value="" style="endArrow=none;html=1;rounded=0;fontColor=#FF0000;strokeColor=#0000FF;" edge="1" parent="1">
          <mxGeometry width="50" height="50" relative="1" as="geometry">
            <mxPoint x="674.52" y="499" as="sourcePoint" />
            <mxPoint x="648.0027634413409" y="598.77223913322" as="targetPoint" />
          </mxGeometry>
        </mxCell>
        <mxCell id="UZAGVTF5EnCvgB7L0BSY-56" value="" style="endArrow=none;html=1;rounded=0;fontColor=#FF0000;strokeColor=#0000FF;" edge="1" parent="1">
          <mxGeometry width="50" height="50" relative="1" as="geometry">
            <mxPoint x="739.52" y="413" as="sourcePoint" />
            <mxPoint x="713.0027634413407" y="512.77223913322" as="targetPoint" />
          </mxGeometry>
        </mxCell>
      </root>
    </mxGraphModel>
  </diagram>
</mxfile>
